<ttFont>
    <TTGlyph name="A" xMin="-52" yMin="0" xMax="1153" yMax="1456">
      <contour>
        <pt x="905" y="375" on="1"/>
        <pt x="347" y="375" on="1"/>
        <pt x="144" y="0" on="1"/>
        <pt x="-52" y="0" on="1"/>
        <pt x="764" y="1456" on="1"/>
        <pt x="928" y="1456" on="1"/>
        <pt x="1153" y="0" on="1"/>
        <pt x="956" y="0" on="1"/>
      </contour>
      <contour>
        <pt x="437" y="540" on="1"/>
        <pt x="882" y="540" on="1"/>
        <pt x="794" y="1187" on="1"/>
        <pt x="788" y="1189" on="1"/>
      </contour>
    </TTGlyph>
    <TTGlyph name="A.smcp" xMin="-46" yMin="0" xMax="1007" yMax="1165">
      <contour>
        <pt x="765" y="268" on="1"/>
        <pt x="303" y="268" on="1"/>
        <pt x="154" y="0" on="1"/>
        <pt x="-46" y="0" on="1"/>
        <pt x="623" y="1165" on="1"/>
        <pt x="805" y="1165" on="1"/>
        <pt x="1007" y="0" on="1"/>
        <pt x="808" y="0" on="1"/>
      </contour>
      <contour>
        <pt x="389" y="422" on="1"/>
        <pt x="741" y="422" on="1"/>
        <pt x="664" y="904" on="1"/>
        <pt x="659" y="905" on="1"/>
      </contour>
    </TTGlyph>
    <TTGlyph name="AE" xMin="-104" yMin="0" xMax="1919" yMax="1456">
      <contour>
        <pt x="1685" y="0" on="1"/>
        <pt x="843" y="0" on="1"/>
        <pt x="899" y="350" on="1"/>
        <pt x="389" y="350" on="1"/>
        <pt x="132" y="0" on="1"/>
        <pt x="-104" y="0" on="1"/>
        <pt x="1006" y="1456" on="1"/>
        <pt x="1919" y="1456" on="1"/>
        <pt x="1888" y="1301" on="1"/>
        <pt x="1245" y="1301" on="1"/>
        <pt x="1170" y="835" on="1"/>
        <pt x="1719" y="835" on="1"/>
        <pt x="1688" y="680" on="1"/>
        <pt x="1145" y="680" on="1"/>
        <pt x="1060" y="154" on="1"/>
        <pt x="1716" y="154" on="1"/>
      </contour>
      <contour>
        <pt x="928" y="529" on="1"/>
        <pt x="1040" y="1225" on="1"/>
        <pt x="1034" y="1228" on="1"/>
        <pt x="520" y="529" on="1"/>
      </contour>
    </TTGlyph>
    <TTGlyph name="AEacute" xMin="-104" yMin="0" xMax="1919" yMax="1823">
      <component glyphName="AE" x="0" y="0" flags="0x204"/>
      <component glyphName="acute" x="762" y="345" flags="0x4"/>
    </TTGlyph>
    <TTGlyph name="Aacute" xMin="-52" yMin="0" xMax="1254" yMax="1823">
      <component glyphName="A" x="0" y="0" flags="0x204"/>
      <component glyphName="acute" x="564" y="345" flags="0x4"/>
    </TTGlyph>
    <TTGlyph name="Aacute.smcp" xMin="-46" yMin="0" xMax="1078" yMax="1500">
      <component glyphName="A.smcp" x="0" y="0" flags="0x204"/>
      <component glyphName="acute" x="388" y="22" flags="0x4"/>
    </TTGlyph>
    <TTGlyph name="Abreve" xMin="-52" yMin="0" xMax="1228" yMax="1870">
      <component glyphName="A" x="0" y="0" flags="0x204"/>
      <component glyphName="breve" x="386" y="414" flags="0x4"/>
    </TTGlyph>
    <TTGlyph name="Abreve.smcp" xMin="-46" yMin="0" xMax="1052" yMax="1547">
      <component glyphName="A.smcp" x="0" y="0" flags="0x204"/>
      <component glyphName="breve" x="210" y="91" flags="0x4"/>
    </TTGlyph>
    <TTGlyph name="Acircumflex" xMin="-52" yMin="0" xMax="1203" yMax="1864">
      <component glyphName="A" x="0" y="0" flags="0x204"/>
      <component glyphName="circumflex" x="289" y="349" flags="0x4"/>
    </TTGlyph>
    <TTGlyph name="Acircumflex.smcp" xMin="-46" yMin="0" xMax="1027" yMax="1541">
      <component glyphName="A.smcp" x="0" y="0" flags="0x204"/>
      <component glyphName="circumflex" x="113" y="26" flags="0x4"/>
    </TTGlyph>
    <TTGlyph name="Adieresis" xMin="-52" yMin="0" xMax="1265" yMax="1805">
      <component glyphName="A" x="0" y="0" flags="0x204"/>
      <component glyphName="dieresis" x="291" y="349" flags="0x4"/>
    </TTGlyph>
    <TTGlyph name="Adieresis.smcp" xMin="-46" yMin="0" xMax="1089" yMax="1482">
      <component glyphName="A.smcp" x="0" y="0" flags="0x204"/>
      <component glyphName="dieresis" x="115" y="26" flags="0x4"/>
    </TTGlyph>
    <TTGlyph name="Agrave" xMin="-52" yMin="0" xMax="1153" yMax="1826">
      <component glyphName="A" x="0" y="0" flags="0x204"/>
      <component glyphName="grave" x="392" y="349" flags="0x4"/>
    </TTGlyph>
    <TTGlyph name="Agrave.smcp" xMin="-46" yMin="0" xMax="1007" yMax="1503">
      <component glyphName="A.smcp" x="0" y="0" flags="0x204"/>
      <component glyphName="grave" x="216" y="26" flags="0x4"/>
    </TTGlyph>
    <TTGlyph name="Alpha" xMin="-52" yMin="0" xMax="1153" yMax="1456">
      <component glyphName="A" x="0" y="0" flags="0x204"/>
    </TTGlyph>
    <TTGlyph name="Alphatonos" xMin="-52" yMin="0" xMax="1153" yMax="1660">
      <component glyphName="A" x="0" y="0" flags="0x204"/>
      <component glyphName="tonos" x="58" y="0" flags="0x4"/>
    </TTGlyph>
    <TTGlyph name="Amacron" xMin="-52" yMin="0" xMax="1284" yMax="1786">
      <component glyphName="A" x="0" y="0" flags="0x204"/>
      <component glyphName="macron" x="322" y="330" flags="0x4"/>
    </TTGlyph>
    <TTGlyph name="Amacron.smcp" xMin="-46" yMin="0" xMax="1108" yMax="1463">
      <component glyphName="A.smcp" x="0" y="0" flags="0x204"/>
      <component glyphName="macron" x="146" y="7" flags="0x4"/>
    </TTGlyph>
    <TTGlyph name="Aogonek" xMin="-52" yMin="-432" xMax="1153" yMax="1456">
      <component glyphName="A" x="0" y="0" flags="0x204"/>
      <component glyphName="ogonek" x="844" y="0" flags="0x4"/>
    </TTGlyph>
    <TTGlyph name="Aogonek.smcp" xMin="-46" yMin="-432" xMax="1007" yMax="1165">
      <component glyphName="A.smcp" x="0" y="0" flags="0x204"/>
      <component glyphName="ogonek" x="694" y="0" flags="0x4"/>
    </TTGlyph>
    <TTGlyph name="Aring" xMin="-52" yMin="0" xMax="1153" yMax="1932">
      <component glyphName="A" x="0" y="0" flags="0x204"/>
      <component glyphName="ring" x="436" y="426" flags="0x4"/>
    </TTGlyph>
    <TTGlyph name="Aring.smcp" xMin="-46" yMin="0" xMax="1007" yMax="1609">
      <component glyphName="A.smcp" x="0" y="0" flags="0x204"/>
      <component glyphName="ring" x="260" y="103" flags="0x4"/>
    </TTGlyph>
    <TTGlyph name="Aringacute" xMin="-52" yMin="0" xMax="1290" yMax="2085">
      <component glyphName="A" x="0" y="0" flags="0x204"/>
      <component glyphName="ringacute" x="452" y="435" flags="0x4"/>
    </TTGlyph>
    <TTGlyph name="Aringacute.smcp" xMin="-46" yMin="0" xMax="1114" yMax="1762">
      <component glyphName="A.smcp" x="0" y="0" flags="0x204"/>
      <component glyphName="ringacute" x="276" y="112" flags="0x4"/>
    </TTGlyph>
    <TTGlyph name="Atilde" xMin="-52" yMin="0" xMax="1275" yMax="1876">
      <component glyphName="A" x="0" y="0" flags="0x204"/>
      <component glyphName="tilde" x="322" y="353" flags="0x4"/>
    </TTGlyph>
    <TTGlyph name="Atilde.smcp" xMin="-46" yMin="0" xMax="1099" yMax="1553">
      <component glyphName="A.smcp" x="0" y="0" flags="0x204"/>
      <component glyphName="tilde" x="146" y="30" flags="0x4"/>
    </TTGlyph>
    <TTGlyph name="B" xMin="86" yMin="0" xMax="1238" yMax="1456">
      <contour>
        <pt x="86" y="0" on="1"/>
        <pt x="377" y="1456" on="1"/>
        <pt x="825" y="1456" on="1"/>
        <pt x="1024" y="1456" on="0"/>
        <pt x="1238" y="1256" on="0"/>
        <pt x="1199" y="1062" on="1"/>
        <pt x="1178" y="959" on="0"/>
        <pt x="1036" y="811" on="0"/>
        <pt x="933" y="775" on="1"/>
        <pt x="1050" y="747" on="0"/>
        <pt x="1149" y="544" on="0"/>
        <pt x="1122" y="411" on="1"/>
        <pt x="1079" y="198" on="0"/>
        <pt x="803" y="0" on="0"/>
        <pt x="591" y="0" on="1"/>
      </contour>
      <contour>
        <pt x="415" y="683" on="1"/>
        <pt x="310" y="154" on="1"/>
        <pt x="622" y="154" on="1"/>
        <pt x="735" y="154" on="0"/>
        <pt x="904" y="289" on="0"/>
        <pt x="929" y="409" on="1"/>
        <pt x="955" y="545" on="0"/>
        <pt x="874" y="683" on="0"/>
        <pt x="756" y="683" on="1"/>
      </contour>
      <contour>
        <pt x="446" y="837" on="1"/>
        <pt x="741" y="837" on="1"/>
        <pt x="831" y="837" on="0"/>
        <pt x="986" y="960" on="0"/>
        <pt x="1007" y="1066" on="1"/>
        <pt x="1032" y="1191" on="0"/>
        <pt x="923" y="1301" on="0"/>
        <pt x="794" y="1301" on="1"/>
        <pt x="539" y="1301" on="1"/>
      </contour>
    </TTGlyph>
    <TTGlyph name="B.smcp" xMin="60" yMin="0" xMax="1054" yMax="1165">
      <contour>
        <pt x="60" y="0" on="1"/>
        <pt x="293" y="1165" on="1"/>
        <pt x="666" y="1165" on="1"/>
        <pt x="853" y="1165" on="0"/>
        <pt x="1054" y="1003" on="0"/>
        <pt x="1023" y="847" on="1"/>
        <pt x="1004" y="758" on="0"/>
        <pt x="893" y="631" on="0"/>
        <pt x="806" y="599" on="1"/>
        <pt x="896" y="574" on="0"/>
        <pt x="972" y="426" on="0"/>
        <pt x="954" y="329" on="1"/>
        <pt x="919" y="156" on="0"/>
        <pt x="687" y="0" on="0"/>
        <pt x="497" y="0" on="1"/>
      </contour>
      <contour>
        <pt x="358" y="521" on="1"/>
        <pt x="284" y="152" on="1"/>
        <pt x="527" y="152" on="1"/>
        <pt x="619" y="152" on="0"/>
        <pt x="743" y="248" on="0"/>
        <pt x="761" y="334" on="1"/>
        <pt x="779" y="427" on="0"/>
        <pt x="701" y="521" on="0"/>
        <pt x="601" y="521" on="1"/>
      </contour>
      <contour>
        <pt x="386" y="662" on="1"/>
        <pt x="565" y="662" on="1"/>
        <pt x="670" y="662" on="0"/>
        <pt x="811" y="753" on="0"/>
        <pt x="828" y="836" on="1"/>
        <pt x="846" y="927" on="0"/>
        <pt x="752" y="992" on="0"/>
        <pt x="631" y="992" on="1"/>
        <pt x="452" y="992" on="1"/>
      </contour>
    </TTGlyph>
    <TTGlyph name="Beta" xMin="86" yMin="0" xMax="1238" yMax="1456">
      <component glyphName="B" x="0" y="0" flags="0x204"/>
    </TTGlyph>
    <TTGlyph name="C" xMin="96" yMin="-21" xMax="1272" yMax="1477">
      <contour>
        <pt x="1134" y="447" on="1"/>
        <pt x="1136" y="441" on="1"/>
        <pt x="1075" y="227" on="0"/>
        <pt x="803" y="-21" on="0"/>
        <pt x="583" y="-21" on="1"/>
        <pt x="364" y="-21" on="0"/>
        <pt x="96" y="346" on="0"/>
        <pt x="149" y="607" on="1"/>
        <pt x="201" y="867" on="1"/>
        <pt x="258" y="1156" on="0"/>
        <pt x="575" y="1477" on="0"/>
        <pt x="807" y="1477" on="1"/>
        <pt x="1022" y="1477" on="0"/>
        <pt x="1272" y="1202" on="0"/>
        <pt x="1245" y="986" on="1"/>
        <pt x="1243" y="981" on="1"/>
        <pt x="1056" y="981" on="1"/>
        <pt x="1066" y="1139" on="0"/>
        <pt x="932" y="1322" on="0"/>
        <pt x="785" y="1322" on="1"/>
        <pt x="647" y="1322" on="0"/>
        <pt x="434" y="1065" on="0"/>
        <pt x="395" y="869" on="1"/>
        <pt x="342" y="607" on="1"/>
        <pt x="300" y="398" on="0"/>
        <pt x="449" y="133" on="0"/>
        <pt x="604" y="133" on="1"/>
        <pt x="738" y="133" on="0"/>
        <pt x="895" y="285" on="0"/>
        <pt x="949" y="447" on="1"/>
      </contour>
    </TTGlyph>
    <TTGlyph name="C.smcp" xMin="73" yMin="-17" xMax="1106" yMax="1181">
      <contour>
        <pt x="979" y="381" on="1"/>
        <pt x="981" y="375" on="1"/>
        <pt x="944" y="173" on="0"/>
        <pt x="669" y="-17" on="0"/>
        <pt x="472" y="-17" on="1"/>
        <pt x="292" y="-17" on="0"/>
        <pt x="73" y="255" on="0"/>
        <pt x="114" y="461" on="1"/>
        <pt x="163" y="704" on="1"/>
        <pt x="207" y="927" on="0"/>
        <pt x="514" y="1181" on="0"/>
        <pt x="711" y="1181" on="1"/>
        <pt x="897" y="1181" on="0"/>
        <pt x="1106" y="975" on="0"/>
        <pt x="1065" y="790" on="1"/>
        <pt x="1063" y="785" on="1"/>
        <pt x="876" y="785" on="1"/>
        <pt x="901" y="914" on="0"/>
        <pt x="798" y="1028" on="0"/>
        <pt x="681" y="1028" on="1"/>
        <pt x="578" y="1028" on="0"/>
        <pt x="383" y="840" on="0"/>
        <pt x="356" y="705" on="1"/>
        <pt x="307" y="461" on="1"/>
        <pt x="277" y="313" on="0"/>
        <pt x="389" y="135" on="0"/>
        <pt x="502" y="135" on="1"/>
        <pt x="609" y="135" on="0"/>
        <pt x="769" y="259" on="0"/>
        <pt x="794" y="381" on="1"/>
      </contour>
    </TTGlyph>
    <TTGlyph name="Cacute" xMin="96" yMin="-21" xMax="1272" yMax="1844">
      <component glyphName="C" x="0" y="0" flags="0x204"/>
      <component glyphName="acute" x="531" y="366" flags="0x4"/>
    </TTGlyph>
    <TTGlyph name="Cacute.smcp" xMin="73" yMin="-17" xMax="1106" yMax="1516">
      <component glyphName="C.smcp" x="0" y="0" flags="0x204"/>
      <component glyphName="acute" x="375" y="38" flags="0x4"/>
    </TTGlyph>
    <TTGlyph name="Ccaron" xMin="96" yMin="-21" xMax="1272" yMax="1886">
      <component glyphName="C" x="0" y="0" flags="0x204"/>
      <component glyphName="caron" x="279" y="371" flags="0x4"/>
    </TTGlyph>
    <TTGlyph name="Ccaron.smcp" xMin="73" yMin="-17" xMax="1106" yMax="1558">
      <component glyphName="C.smcp" x="0" y="0" flags="0x204"/>
      <component glyphName="caron" x="123" y="43" flags="0x4"/>
    </TTGlyph>
    <TTGlyph name="Ccedilla" xMin="96" yMin="-441" xMax="1272" yMax="1477">
      <component glyphName="C" x="0" y="0" flags="0x204"/>
      <component glyphName="cedilla" x="426" y="-8" flags="0x4"/>
    </TTGlyph>
    <TTGlyph name="Ccedilla.smcp" xMin="73" yMin="-438" xMax="1106" yMax="1181">
      <component glyphName="C.smcp" x="0" y="0" flags="0x204"/>
      <component glyphName="cedilla" x="337" y="-5" flags="0x4"/>
    </TTGlyph>
    <TTGlyph name="Ccircumflex" xMin="96" yMin="-21" xMax="1272" yMax="1885">
      <component glyphName="C" x="0" y="0" flags="0x204"/>
      <component glyphName="circumflex" x="256" y="370" flags="0x4"/>
    </TTGlyph>
    <TTGlyph name="Ccircumflex.smcp" xMin="73" yMin="-17" xMax="1106" yMax="1557">
      <component glyphName="C.smcp" x="0" y="0" flags="0x204"/>
      <component glyphName="circumflex" x="100" y="42" flags="0x4"/>
    </TTGlyph>
    <TTGlyph name="Chi" xMin="-3" yMin="0" xMax="1316" yMax="1456">
      <component glyphName="X" x="0" y="0" flags="0x204"/>
    </TTGlyph>
    <TTGlyph name="D" xMin="86" yMin="0" xMax="1312" yMax="1456">
      <contour>
        <pt x="86" y="0" on="1"/>
        <pt x="377" y="1456" on="1"/>
        <pt x="759" y="1456" on="1"/>
        <pt x="1013" y="1456" on="0"/>
        <pt x="1312" y="1087" on="0"/>
        <pt x="1258" y="817" on="1"/>
        <pt x="1219" y="619" on="1"/>
        <pt x="1158" y="318" on="0"/>
        <pt x="812" y="0" on="0"/>
        <pt x="542" y="0" on="1"/>
      </contour>
      <contour>
        <pt x="539" y="1301" on="1"/>
        <pt x="310" y="154" on="1"/>
        <pt x="573" y="154" on="1"/>
        <pt x="744" y="154" on="0"/>
        <pt x="984" y="411" on="0"/>
        <pt x="1026" y="619" on="1"/>
        <pt x="1066" y="820" on="1"/>
        <pt x="1109" y="1035" on="0"/>
        <pt x="921" y="1301" on="0"/>
        <pt x="728" y="1301" on="1"/>
      </contour>
    </TTGlyph>
    <TTGlyph name="D.smcp" xMin="60" yMin="0" xMax="1100" yMax="1165">
      <contour>
        <pt x="688" y="1165" on="1"/>
        <pt x="873" y="1165" on="0"/>
        <pt x="1100" y="892" on="0"/>
        <pt x="1059" y="687" on="1"/>
        <pt x="1017" y="477" on="1"/>
        <pt x="972" y="253" on="0"/>
        <pt x="657" y="0" on="0"/>
        <pt x="455" y="0" on="1"/>
        <pt x="60" y="0" on="1"/>
        <pt x="293" y="1165" on="1"/>
      </contour>
      <contour>
        <pt x="456" y="1012" on="1"/>
        <pt x="284" y="152" on="1"/>
        <pt x="485" y="152" on="1"/>
        <pt x="592" y="152" on="0"/>
        <pt x="796" y="341" on="0"/>
        <pt x="824" y="477" on="1"/>
        <pt x="867" y="688" on="1"/>
        <pt x="896" y="834" on="0"/>
        <pt x="774" y="1012" on="0"/>
        <pt x="657" y="1012" on="1"/>
      </contour>
    </TTGlyph>
    <TTGlyph name="Dcaron" xMin="86" yMin="0" xMax="1312" yMax="1865">
      <component glyphName="D" x="0" y="0" flags="0x204"/>
      <component glyphName="caron" x="222" y="350" flags="0x4"/>
    </TTGlyph>
    <TTGlyph name="Dcaron.smcp" xMin="60" yMin="0" xMax="1100" yMax="1542">
      <component glyphName="D.smcp" x="0" y="0" flags="0x204"/>
      <component glyphName="caron" x="43" y="27" flags="0x4"/>
    </TTGlyph>
    <TTGlyph name="Dcroat" xMin="90" yMin="0" xMax="1342" yMax="1456">
      <contour>
        <pt x="789" y="1456" on="1"/>
        <pt x="1043" y="1456" on="0"/>
        <pt x="1342" y="1087" on="0"/>
        <pt x="1288" y="817" on="1"/>
        <pt x="1249" y="619" on="1"/>
        <pt x="1188" y="318" on="0"/>
        <pt x="842" y="0" on="0"/>
        <pt x="572" y="0" on="1"/>
        <pt x="116" y="0" on="1"/>
        <pt x="248" y="663" on="1"/>
        <pt x="90" y="663" on="1"/>
        <pt x="121" y="818" on="1"/>
        <pt x="279" y="818" on="1"/>
        <pt x="407" y="1456" on="1"/>
      </contour>
      <contour>
        <pt x="690" y="663" on="1"/>
        <pt x="441" y="663" on="1"/>
        <pt x="340" y="154" on="1"/>
        <pt x="603" y="154" on="1"/>
        <pt x="774" y="154" on="0"/>
        <pt x="1014" y="411" on="0"/>
        <pt x="1056" y="619" on="1"/>
        <pt x="1096" y="820" on="1"/>
        <pt x="1139" y="1035" on="0"/>
        <pt x="951" y="1301" on="0"/>
        <pt x="758" y="1301" on="1"/>
        <pt x="569" y="1301" on="1"/>
        <pt x="472" y="818" on="1"/>
        <pt x="721" y="818" on="1"/>
      </contour>
    </TTGlyph>
    <TTGlyph name="Dcroat.smcp" xMin="14" yMin="0" xMax="1100" yMax="1165">
      <component glyphName="D.smcp" x="0" y="0" flags="0x204"/>
      <component glyphName="crossbar" x="-174" y="-131" flags="0x4"/>
    </TTGlyph>
    <TTGlyph name="Delta" xMin="-54" yMin="0" xMax="1217" yMax="1456">
      <contour>
        <pt x="975" y="1456" on="1"/>
        <pt x="1217" y="0" on="1"/>
        <pt x="-54" y="0" on="1"/>
        <pt x="811" y="1456" on="1"/>
      </contour>
      <contour>
        <pt x="232" y="154" on="1"/>
        <pt x="996" y="154" on="1"/>
        <pt x="839" y="1187" on="1"/>
        <pt x="833" y="1188" on="1"/>
      </contour>
    </TTGlyph>
    <TTGlyph name="E" xMin="86" yMin="0" xMax="1270" yMax="1456">
      <contour>
        <pt x="1030" y="675" on="1"/>
        <pt x="414" y="675" on="1"/>
        <pt x="310" y="154" on="1"/>
        <pt x="1021" y="154" on="1"/>
        <pt x="990" y="0" on="1"/>
        <pt x="86" y="0" on="1"/>
        <pt x="377" y="1456" on="1"/>
        <pt x="1270" y="1456" on="1"/>
        <pt x="1239" y="1301" on="1"/>
        <pt x="539" y="1301" on="1"/>
        <pt x="445" y="830" on="1"/>
        <pt x="1061" y="830" on="1"/>
      </contour>
    </TTGlyph>
    <TTGlyph name="E.smcp" xMin="60" yMin="0" xMax="1054" yMax="1165">
      <contour>
        <pt x="847" y="530" on="1"/>
        <pt x="360" y="530" on="1"/>
        <pt x="284" y="152" on="1"/>
        <pt x="851" y="152" on="1"/>
        <pt x="821" y="0" on="1"/>
        <pt x="60" y="0" on="1"/>
        <pt x="293" y="1165" on="1"/>
        <pt x="1054" y="1165" on="1"/>
        <pt x="1023" y="1012" on="1"/>
        <pt x="456" y="1012" on="1"/>
        <pt x="391" y="684" on="1"/>
        <pt x="878" y="684" on="1"/>
      </contour>
    </TTGlyph>
    <TTGlyph name="Eacute" xMin="86" yMin="0" xMax="1270" yMax="1823">
      <component glyphName="E" x="0" y="0" flags="0x204"/>
      <component glyphName="acute" x="480" y="345" flags="0x4"/>
    </TTGlyph>
    <TTGlyph name="Eacute.smcp" xMin="60" yMin="0" xMax="1054" yMax="1500">
      <component glyphName="E.smcp" x="0" y="0" flags="0x204"/>
      <component glyphName="acute" x="338" y="22" flags="0x4"/>
    </TTGlyph>
    <TTGlyph name="Ebreve" xMin="86" yMin="0" xMax="1270" yMax="1870">
      <component glyphName="E" x="0" y="0" flags="0x204"/>
      <component glyphName="breve" x="302" y="414" flags="0x4"/>
    </TTGlyph>
    <TTGlyph name="Ebreve.smcp" xMin="60" yMin="0" xMax="1054" yMax="1547">
      <component glyphName="E.smcp" x="0" y="0" flags="0x204"/>
      <component glyphName="breve" x="160" y="91" flags="0x4"/>
    </TTGlyph>
    <TTGlyph name="Ecaron" xMin="86" yMin="0" xMax="1270" yMax="1865">
      <component glyphName="E" x="0" y="0" flags="0x204"/>
      <component glyphName="caron" x="228" y="350" flags="0x4"/>
    </TTGlyph>
    <TTGlyph name="Ecaron.smcp" xMin="60" yMin="0" xMax="1054" yMax="1542">
      <component glyphName="E.smcp" x="0" y="0" flags="0x204"/>
      <component glyphName="caron" x="86" y="27" flags="0x4"/>
    </TTGlyph>
    <TTGlyph name="Ecircumflex" xMin="86" yMin="0" xMax="1270" yMax="1864">
      <component glyphName="E" x="0" y="0" flags="0x204"/>
      <component glyphName="circumflex" x="205" y="349" flags="0x4"/>
    </TTGlyph>
    <TTGlyph name="Ecircumflex.smcp" xMin="60" yMin="0" xMax="1054" yMax="1541">
      <component glyphName="E.smcp" x="0" y="0" flags="0x204"/>
      <component glyphName="circumflex" x="63" y="26" flags="0x4"/>
    </TTGlyph>
    <TTGlyph name="Edieresis" xMin="86" yMin="0" xMax="1270" yMax="1805">
      <component glyphName="E" x="0" y="0" flags="0x204"/>
      <component glyphName="dieresis" x="207" y="349" flags="0x4"/>
    </TTGlyph>
    <TTGlyph name="Edieresis.smcp" xMin="60" yMin="0" xMax="1054" yMax="1482">
      <component glyphName="E.smcp" x="0" y="0" flags="0x204"/>
      <component glyphName="dieresis" x="65" y="26" flags="0x4"/>
    </TTGlyph>
    <TTGlyph name="Edotaccent" xMin="86" yMin="0" xMax="1270" yMax="1805">
      <component glyphName="E" x="0" y="0" flags="0x204"/>
      <component glyphName="dotaccent" x="399" y="349" flags="0x4"/>
    </TTGlyph>
    <TTGlyph name="Edotaccent.smcp" xMin="60" yMin="0" xMax="1054" yMax="1482">
      <component glyphName="E.smcp" x="0" y="0" flags="0x204"/>
      <component glyphName="dotaccent" x="257" y="26" flags="0x4"/>
    </TTGlyph>
    <TTGlyph name="Egrave" xMin="86" yMin="0" xMax="1270" yMax="1826">
      <component glyphName="E" x="0" y="0" flags="0x204"/>
      <component glyphName="grave" x="308" y="349" flags="0x4"/>
    </TTGlyph>
    <TTGlyph name="Egrave.smcp" xMin="60" yMin="0" xMax="1054" yMax="1503">
      <component glyphName="E.smcp" x="0" y="0" flags="0x204"/>
      <component glyphName="grave" x="166" y="26" flags="0x4"/>
    </TTGlyph>
    <TTGlyph name="Emacron" xMin="86" yMin="0" xMax="1270" yMax="1786">
      <component glyphName="E" x="0" y="0" flags="0x204"/>
      <component glyphName="macron" x="238" y="330" flags="0x4"/>
    </TTGlyph>
    <TTGlyph name="Emacron.smcp" xMin="60" yMin="0" xMax="1058" yMax="1463">
      <component glyphName="E.smcp" x="0" y="0" flags="0x204"/>
      <component glyphName="macron" x="96" y="7" flags="0x4"/>
    </TTGlyph>
    <TTGlyph name="Eng" xMin="67" yMin="-437" xMax="1386" yMax="1456">
      <contour>
        <pt x="1386" y="1456" on="1"/>
        <pt x="1077" y="-89" on="1"/>
        <pt x="1041" y="-267" on="0"/>
        <pt x="849" y="-437" on="0"/>
        <pt x="701" y="-437" on="1"/>
        <pt x="674" y="-437" on="0"/>
        <pt x="625" y="-428" on="0"/>
        <pt x="600" y="-419" on="1"/>
        <pt x="643" y="-269" on="1"/>
        <pt x="655" y="-274" on="0"/>
        <pt x="718" y="-282" on="0"/>
        <pt x="732" y="-282" on="1"/>
        <pt x="781" y="-282" on="0"/>
        <pt x="865" y="-177" on="0"/>
        <pt x="883" y="-89" on="1"/>
        <pt x="901" y="0" on="1"/>
        <pt x="485" y="1098" on="1"/>
        <pt x="479" y="1097" on="1"/>
        <pt x="260" y="0" on="1"/>
        <pt x="67" y="0" on="1"/>
        <pt x="358" y="1456" on="1"/>
        <pt x="551" y="1456" on="1"/>
        <pt x="966" y="359" on="1"/>
        <pt x="972" y="360" on="1"/>
        <pt x="1192" y="1456" on="1"/>
      </contour>
    </TTGlyph>
    <TTGlyph name="Eogonek" xMin="86" yMin="-432" xMax="1270" yMax="1456">
      <component glyphName="E" x="0" y="0" flags="0x204"/>
      <component glyphName="ogonek" x="465" y="0" flags="0x4"/>
    </TTGlyph>
    <TTGlyph name="Eogonek.smcp" xMin="60" yMin="-432" xMax="1054" yMax="1165">
      <component glyphName="E.smcp" x="0" y="0" flags="0x204"/>
      <component glyphName="ogonek" x="419" y="0" flags="0x4"/>
    </TTGlyph>
    <TTGlyph name="Epsilon" xMin="86" yMin="0" xMax="1270" yMax="1456">
      <component glyphName="E" x="0" y="0" flags="0x204"/>
    </TTGlyph>
    <TTGlyph name="Epsilontonos" xMin="152" yMin="0" xMax="1370" yMax="1662">
      <component glyphName="E" x="100" y="0" flags="0x4"/>
      <component glyphName="tonos" x="-204" y="2" flags="0x4"/>
    </TTGlyph>
    <TTGlyph name="Eta" xMin="86" yMin="0" xMax="1405" yMax="1456">
      <component glyphName="H" x="0" y="0" flags="0x204"/>
    </TTGlyph>
    <TTGlyph name="Etatonos" xMin="186" yMin="0" xMax="1505" yMax="1662">
      <component glyphName="H" x="100" y="0" flags="0x4"/>
      <component glyphName="tonos" x="-156" y="2" flags="0x4"/>
    </TTGlyph>
    <TTGlyph name="Eth" xMin="90" yMin="0" xMax="1342" yMax="1456">
      <contour>
        <pt x="789" y="1456" on="1"/>
        <pt x="1043" y="1456" on="0"/>
        <pt x="1342" y="1087" on="0"/>
        <pt x="1288" y="817" on="1"/>
        <pt x="1249" y="619" on="1"/>
        <pt x="1188" y="318" on="0"/>
        <pt x="842" y="0" on="0"/>
        <pt x="572" y="0" on="1"/>
        <pt x="116" y="0" on="1"/>
        <pt x="248" y="663" on="1"/>
        <pt x="90" y="663" on="1"/>
        <pt x="121" y="818" on="1"/>
        <pt x="279" y="818" on="1"/>
        <pt x="407" y="1456" on="1"/>
      </contour>
      <contour>
        <pt x="690" y="663" on="1"/>
        <pt x="441" y="663" on="1"/>
        <pt x="340" y="154" on="1"/>
        <pt x="603" y="154" on="1"/>
        <pt x="774" y="154" on="0"/>
        <pt x="1014" y="411" on="0"/>
        <pt x="1056" y="619" on="1"/>
        <pt x="1096" y="820" on="1"/>
        <pt x="1139" y="1035" on="0"/>
        <pt x="951" y="1301" on="0"/>
        <pt x="758" y="1301" on="1"/>
        <pt x="569" y="1301" on="1"/>
        <pt x="472" y="818" on="1"/>
        <pt x="721" y="818" on="1"/>
      </contour>
    </TTGlyph>
    <TTGlyph name="Eth.smcp" xMin="14" yMin="0" xMax="1100" yMax="1165">
      <component glyphName="D.smcp" x="0" y="0" flags="0x204"/>
      <component glyphName="crossbar" x="-174" y="-131" flags="0x4"/>
    </TTGlyph>
    <TTGlyph name="Euro" xMin="90" yMin="-21" xMax="1123" yMax="1477">
      <contour>
        <pt x="867" y="481" on="1"/>
        <pt x="416" y="481" on="1"/>
        <pt x="384" y="327" on="0"/>
        <pt x="500" y="133" on="0"/>
        <pt x="636" y="133" on="1"/>
        <pt x="686" y="133" on="0"/>
        <pt x="797" y="150" on="0"/>
        <pt x="848" y="167" on="1"/>
        <pt x="836" y="10" on="1"/>
        <pt x="779" y="-5" on="0"/>
        <pt x="662" y="-21" on="0"/>
        <pt x="605" y="-21" on="1"/>
        <pt x="402" y="-21" on="0"/>
        <pt x="180" y="272" on="0"/>
        <pt x="223" y="481" on="1"/>
        <pt x="90" y="481" on="1"/>
        <pt x="120" y="636" on="1"/>
        <pt x="253" y="636" on="1"/>
        <pt x="280" y="772" on="1"/>
        <pt x="147" y="772" on="1"/>
        <pt x="178" y="927" on="1"/>
        <pt x="311" y="927" on="1"/>
        <pt x="314" y="942" on="1"/>
        <pt x="366" y="1202" on="0"/>
        <pt x="682" y="1477" on="0"/>
        <pt x="902" y="1477" on="1"/>
        <pt x="954" y="1477" on="0"/>
        <pt x="1066" y="1460" on="0"/>
        <pt x="1123" y="1446" on="1"/>
        <pt x="1072" y="1287" on="1"/>
        <pt x="1025" y="1303" on="0"/>
        <pt x="924" y="1322" on="0"/>
        <pt x="871" y="1322" on="1"/>
        <pt x="747" y="1322" on="0"/>
        <pt x="541" y="1113" on="0"/>
        <pt x="508" y="944" on="1"/>
        <pt x="504" y="927" on="1"/>
        <pt x="955" y="927" on="1"/>
        <pt x="924" y="772" on="1"/>
        <pt x="473" y="772" on="1"/>
        <pt x="446" y="636" on="1"/>
        <pt x="897" y="636" on="1"/>
      </contour>
    </TTGlyph>
    <TTGlyph name="F" xMin="86" yMin="0" xMax="1277" yMax="1456">
      <contour>
        <pt x="1020" y="644" on="1"/>
        <pt x="407" y="644" on="1"/>
        <pt x="279" y="0" on="1"/>
        <pt x="86" y="0" on="1"/>
        <pt x="377" y="1456" on="1"/>
        <pt x="1277" y="1456" on="1"/>
        <pt x="1246" y="1301" on="1"/>
        <pt x="539" y="1301" on="1"/>
        <pt x="438" y="799" on="1"/>
        <pt x="1051" y="799" on="1"/>
      </contour>
    </TTGlyph>
    <TTGlyph name="F.smcp" xMin="60" yMin="0" xMax="1057" yMax="1165">
      <contour>
        <pt x="843" y="501" on="1"/>
        <pt x="354" y="501" on="1"/>
        <pt x="254" y="0" on="1"/>
        <pt x="60" y="0" on="1"/>
        <pt x="293" y="1165" on="1"/>
        <pt x="1057" y="1165" on="1"/>
        <pt x="1026" y="1012" on="1"/>
        <pt x="456" y="1012" on="1"/>
        <pt x="385" y="655" on="1"/>
        <pt x="874" y="655" on="1"/>
      </contour>
    </TTGlyph>
    <TTGlyph name="G" xMin="92" yMin="-21" xMax="1285" yMax="1477">
      <contour>
        <pt x="1108" y="193" on="1"/>
        <pt x="1043" y="112" on="0"/>
        <pt x="777" y="-21" on="0"/>
        <pt x="587" y="-21" on="1"/>
        <pt x="359" y="-21" on="0"/>
        <pt x="92" y="318" on="0"/>
        <pt x="144" y="578" on="1"/>
        <pt x="204" y="878" on="1"/>
        <pt x="259" y="1160" on="0"/>
        <pt x="615" y="1477" on="0"/>
        <pt x="854" y="1477" on="1"/>
        <pt x="1068" y="1477" on="0"/>
        <pt x="1285" y="1232" on="0"/>
        <pt x="1270" y="1038" on="1"/>
        <pt x="1267" y="1032" on="1"/>
        <pt x="1082" y="1032" on="1"/>
        <pt x="1085" y="1164" on="0"/>
        <pt x="970" y="1322" on="0"/>
        <pt x="823" y="1322" on="1"/>
        <pt x="682" y="1322" on="0"/>
        <pt x="435" y="1068" on="0"/>
        <pt x="398" y="880" on="1"/>
        <pt x="338" y="578" on="1"/>
        <pt x="296" y="372" on="0"/>
        <pt x="454" y="133" on="0"/>
        <pt x="618" y="133" on="1"/>
        <pt x="722" y="133" on="0"/>
        <pt x="886" y="200" on="0"/>
        <pt x="924" y="241" on="1"/>
        <pt x="990" y="572" on="1"/>
        <pt x="702" y="572" on="1"/>
        <pt x="733" y="727" on="1"/>
        <pt x="1214" y="727" on="1"/>
      </contour>
    </TTGlyph>
    <TTGlyph name="G.smcp" xMin="72" yMin="-17" xMax="1135" yMax="1181">
      <contour>
        <pt x="977" y="157" on="1"/>
        <pt x="923" y="92" on="0"/>
        <pt x="674" y="-17" on="0"/>
        <pt x="505" y="-17" on="1"/>
        <pt x="303" y="-17" on="0"/>
        <pt x="72" y="252" on="0"/>
        <pt x="114" y="461" on="1"/>
        <pt x="163" y="704" on="1"/>
        <pt x="207" y="928" on="0"/>
        <pt x="525" y="1181" on="0"/>
        <pt x="741" y="1181" on="1"/>
        <pt x="935" y="1181" on="0"/>
        <pt x="1135" y="976" on="0"/>
        <pt x="1099" y="823" on="1"/>
        <pt x="1097" y="817" on="1"/>
        <pt x="912" y="817" on="1"/>
        <pt x="933" y="918" on="0"/>
        <pt x="823" y="1028" on="0"/>
        <pt x="711" y="1028" on="1"/>
        <pt x="592" y="1028" on="0"/>
        <pt x="383" y="841" on="0"/>
        <pt x="356" y="705" on="1"/>
        <pt x="307" y="461" on="1"/>
        <pt x="277" y="310" on="0"/>
        <pt x="399" y="135" on="0"/>
        <pt x="535" y="135" on="1"/>
        <pt x="622" y="135" on="0"/>
        <pt x="763" y="178" on="0"/>
        <pt x="796" y="204" on="1"/>
        <pt x="846" y="454" on="1"/>
        <pt x="611" y="454" on="1"/>
        <pt x="642" y="608" on="1"/>
        <pt x="1068" y="608" on="1"/>
      </contour>
    </TTGlyph>
    <TTGlyph name="Gamma" xMin="86" yMin="0" xMax="1210" yMax="1456">
      <contour>
        <pt x="1179" y="1301" on="1"/>
        <pt x="540" y="1301" on="1"/>
        <pt x="280" y="0" on="1"/>
        <pt x="86" y="0" on="1"/>
        <pt x="377" y="1456" on="1"/>
        <pt x="1210" y="1456" on="1"/>
      </contour>
    </TTGlyph>
    <TTGlyph name="Gbreve" xMin="92" yMin="-21" xMax="1285" yMax="1891">
      <component glyphName="G" x="0" y="0" flags="0x204"/>
      <component glyphName="breve" x="341" y="435" flags="0x4"/>
    </TTGlyph>
    <TTGlyph name="Gbreve.smcp" xMin="72" yMin="-17" xMax="1135" yMax="1563">
      <component glyphName="G.smcp" x="0" y="0" flags="0x204"/>
      <component glyphName="breve" x="211" y="107" flags="0x4"/>
    </TTGlyph>
    <TTGlyph name="Gcircumflex" xMin="92" yMin="-21" xMax="1285" yMax="1885">
      <component glyphName="G" x="0" y="0" flags="0x204"/>
      <component glyphName="circumflex" x="244" y="370" flags="0x4"/>
    </TTGlyph>
    <TTGlyph name="Gcircumflex.smcp" xMin="72" yMin="-17" xMax="1135" yMax="1557">
      <component glyphName="G.smcp" x="0" y="0" flags="0x204"/>
      <component glyphName="circumflex" x="114" y="42" flags="0x4"/>
    </TTGlyph>
    <TTGlyph name="Gcommaaccent" xMin="92" yMin="-494" xMax="1285" yMax="1477">
      <component glyphName="G" x="0" y="0" flags="0x204"/>
      <component glyphName="commaaccent" x="313" y="-360" flags="0x4"/>
    </TTGlyph>
    <TTGlyph name="Gcommaaccent.smcp" xMin="72" yMin="-491" xMax="1135" yMax="1181">
      <component glyphName="G.smcp" x="0" y="0" flags="0x204"/>
      <component glyphName="commaaccent" x="248" y="-357" flags="0x4"/>
    </TTGlyph>
    <TTGlyph name="H" xMin="86" yMin="0" xMax="1405" yMax="1456">
      <contour>
        <pt x="1114" y="0" on="1"/>
        <pt x="921" y="0" on="1"/>
        <pt x="1049" y="643" on="1"/>
        <pt x="407" y="643" on="1"/>
        <pt x="279" y="0" on="1"/>
        <pt x="86" y="0" on="1"/>
        <pt x="377" y="1456" on="1"/>
        <pt x="570" y="1456" on="1"/>
        <pt x="438" y="798" on="1"/>
        <pt x="1080" y="798" on="1"/>
        <pt x="1212" y="1456" on="1"/>
        <pt x="1405" y="1456" on="1"/>
      </contour>
    </TTGlyph>
    <TTGlyph name="H.smcp" xMin="60" yMin="0" xMax="1193" yMax="1165">
      <contour>
        <pt x="960" y="0" on="1"/>
        <pt x="766" y="0" on="1"/>
        <pt x="864" y="491" on="1"/>
        <pt x="352" y="491" on="1"/>
        <pt x="254" y="0" on="1"/>
        <pt x="60" y="0" on="1"/>
        <pt x="293" y="1165" on="1"/>
        <pt x="487" y="1165" on="1"/>
        <pt x="382" y="644" on="1"/>
        <pt x="894" y="644" on="1"/>
        <pt x="999" y="1165" on="1"/>
        <pt x="1193" y="1165" on="1"/>
      </contour>
    </TTGlyph>
    <TTGlyph name="Hbar" xMin="86" yMin="0" xMax="1482" yMax="1456">
      <contour>
        <pt x="1347" y="1169" on="1"/>
        <pt x="1482" y="1169" on="1"/>
        <pt x="1453" y="1024" on="1"/>
        <pt x="1318" y="1024" on="1"/>
        <pt x="1114" y="0" on="1"/>
        <pt x="921" y="0" on="1"/>
        <pt x="1049" y="643" on="1"/>
        <pt x="407" y="643" on="1"/>
        <pt x="279" y="0" on="1"/>
        <pt x="86" y="0" on="1"/>
        <pt x="290" y="1024" on="1"/>
        <pt x="155" y="1024" on="1"/>
        <pt x="184" y="1169" on="1"/>
        <pt x="319" y="1169" on="1"/>
        <pt x="377" y="1456" on="1"/>
        <pt x="570" y="1456" on="1"/>
        <pt x="512" y="1169" on="1"/>
        <pt x="1154" y="1169" on="1"/>
        <pt x="1212" y="1456" on="1"/>
        <pt x="1405" y="1456" on="1"/>
      </contour>
      <contour>
        <pt x="438" y="798" on="1"/>
        <pt x="1080" y="798" on="1"/>
        <pt x="1125" y="1024" on="1"/>
        <pt x="483" y="1024" on="1"/>
      </contour>
    </TTGlyph>
    <TTGlyph name="Hcircumflex" xMin="86" yMin="0" xMax="1405" yMax="1864">
      <component glyphName="H" x="0" y="0" flags="0x204"/>
      <component glyphName="circumflex" x="291" y="349" flags="0x4"/>
    </TTGlyph>
    <TTGlyph name="Hcircumflex.smcp" xMin="60" yMin="0" xMax="1193" yMax="1541">
      <component glyphName="H.smcp" x="0" y="0" flags="0x204"/>
      <component glyphName="circumflex" x="119" y="26" flags="0x4"/>
    </TTGlyph>
    <TTGlyph name="I" xMin="93" yMin="0" xMax="578" yMax="1456">
      <contour>
        <pt x="287" y="0" on="1"/>
        <pt x="93" y="0" on="1"/>
        <pt x="384" y="1456" on="1"/>
        <pt x="578" y="1456" on="1"/>
      </contour>
    </TTGlyph>
    <TTGlyph name="I.smcp" xMin="60" yMin="0" xMax="486" yMax="1165">
      <contour>
        <pt x="253" y="0" on="1"/>
        <pt x="60" y="0" on="1"/>
        <pt x="293" y="1165" on="1"/>
        <pt x="486" y="1165" on="1"/>
      </contour>
    </TTGlyph>
    <TTGlyph name="IJ" xMin="93" yMin="-21" xMax="1661" yMax="1456">
      <component glyphName="I" x="0" y="0" flags="0x4"/>
      <component glyphName="J" x="552" y="0" flags="0x4"/>
    </TTGlyph>
    <TTGlyph name="Iacute" xMin="93" yMin="0" xMax="855" yMax="1823">
      <component glyphName="I" x="0" y="0" flags="0x204"/>
      <component glyphName="acute" x="165" y="345" flags="0x4"/>
    </TTGlyph>
    <TTGlyph name="Iacute.smcp" xMin="60" yMin="0" xMax="756" yMax="1500">
      <component glyphName="I.smcp" x="0" y="0" flags="0x204"/>
      <component glyphName="acute" x="66" y="22" flags="0x4"/>
    </TTGlyph>
    <TTGlyph name="Ibreve" xMin="93" yMin="0" xMax="831" yMax="1870">
      <component glyphName="I" x="0" y="0" flags="0x204"/>
      <component glyphName="breve" x="-11" y="414" flags="0x4"/>
    </TTGlyph>
    <TTGlyph name="Ibreve.smcp" xMin="60" yMin="0" xMax="732" yMax="1547">
      <component glyphName="I.smcp" x="0" y="0" flags="0x204"/>
      <component glyphName="breve" x="-110" y="91" flags="0x4"/>
    </TTGlyph>
    <TTGlyph name="Icircumflex" xMin="93" yMin="0" xMax="806" yMax="1864">
      <component glyphName="I" x="0" y="0" flags="0x204"/>
      <component glyphName="circumflex" x="-108" y="349" flags="0x4"/>
    </TTGlyph>
    <TTGlyph name="Icircumflex.smcp" xMin="60" yMin="0" xMax="707" yMax="1541">
      <component glyphName="I.smcp" x="0" y="0" flags="0x204"/>
      <component glyphName="circumflex" x="-207" y="26" flags="0x4"/>
    </TTGlyph>
    <TTGlyph name="Idieresis" xMin="93" yMin="0" xMax="868" yMax="1805">
      <component glyphName="I" x="0" y="0" flags="0x204"/>
      <component glyphName="dieresis" x="-106" y="349" flags="0x4"/>
    </TTGlyph>
    <TTGlyph name="Idieresis.smcp" xMin="60" yMin="0" xMax="769" yMax="1482">
      <component glyphName="I.smcp" x="0" y="0" flags="0x204"/>
      <component glyphName="dieresis" x="-205" y="26" flags="0x4"/>
    </TTGlyph>
    <TTGlyph name="Idotaccent" xMin="93" yMin="0" xMax="656" yMax="1805">
      <component glyphName="I" x="0" y="0" flags="0x204"/>
      <component glyphName="dotaccent" x="84" y="349" flags="0x4"/>
    </TTGlyph>
    <TTGlyph name="Idotaccent.smcp" xMin="60" yMin="0" xMax="559" yMax="1482">
      <component glyphName="I.smcp" x="0" y="0" flags="0x204"/>
      <component glyphName="dotaccent" x="-13" y="26" flags="0x4"/>
    </TTGlyph>
    <TTGlyph name="Igrave" xMin="93" yMin="0" xMax="585" yMax="1826">
      <component glyphName="I" x="0" y="0" flags="0x204"/>
      <component glyphName="grave" x="-5" y="349" flags="0x4"/>
    </TTGlyph>
    <TTGlyph name="Igrave.smcp" xMin="60" yMin="0" xMax="486" yMax="1503">
      <component glyphName="I.smcp" x="0" y="0" flags="0x204"/>
      <component glyphName="grave" x="-104" y="26" flags="0x4"/>
    </TTGlyph>
    <TTGlyph name="Imacron" xMin="93" yMin="0" xMax="887" yMax="1786">
      <component glyphName="I" x="0" y="0" flags="0x204"/>
      <component glyphName="macron" x="-75" y="330" flags="0x4"/>
    </TTGlyph>
    <TTGlyph name="Imacron.smcp" xMin="60" yMin="0" xMax="788" yMax="1463">
      <component glyphName="I.smcp" x="0" y="0" flags="0x204"/>
      <component glyphName="macron" x="-174" y="7" flags="0x4"/>
    </TTGlyph>
    <TTGlyph name="Iogonek" xMin="-104" yMin="-432" xMax="578" yMax="1456">
      <component glyphName="I" x="0" y="0" flags="0x204"/>
      <component glyphName="ogonek" x="-20" y="0" flags="0x4"/>
    </TTGlyph>
    <TTGlyph name="Iogonek.smcp" xMin="-139" yMin="-432" xMax="486" yMax="1165">
      <component glyphName="I.smcp" x="0" y="0" flags="0x204"/>
      <component glyphName="ogonek" x="-55" y="0" flags="0x4"/>
    </TTGlyph>
    <TTGlyph name="Iota" xMin="93" yMin="0" xMax="578" yMax="1456">
      <component glyphName="I" x="0" y="0" flags="0x204"/>
    </TTGlyph>
    <TTGlyph name="Iotadieresis" xMin="93" yMin="0" xMax="868" yMax="1805">
      <component glyphName="I" x="0" y="0" flags="0x204"/>
      <component glyphName="dieresis" x="-106" y="349" flags="0x4"/>
    </TTGlyph>
    <TTGlyph name="Iotatonos" xMin="193" yMin="0" xMax="678" yMax="1661">
      <component glyphName="I" x="100" y="0" flags="0x4"/>
      <component glyphName="tonos" x="-154" y="1" flags="0x4"/>
    </TTGlyph>
    <TTGlyph name="Itilde" xMin="93" yMin="0" xMax="878" yMax="1876">
      <component glyphName="I" x="0" y="0" flags="0x204"/>
      <component glyphName="tilde" x="-75" y="353" flags="0x4"/>
    </TTGlyph>
    <TTGlyph name="Itilde.smcp" xMin="60" yMin="0" xMax="779" yMax="1553">
      <component glyphName="I.smcp" x="0" y="0" flags="0x204"/>
      <component glyphName="tilde" x="-174" y="30" flags="0x4"/>
    </TTGlyph>
    <TTGlyph name="J" xMin="14" yMin="-21" xMax="1109" yMax="1456">
      <contour>
        <pt x="916" y="1456" on="1"/>
        <pt x="1109" y="1456" on="1"/>
        <pt x="899" y="403" on="1"/>
        <pt x="857" y="195" on="0"/>
        <pt x="587" y="-21" on="0"/>
        <pt x="399" y="-21" on="1"/>
        <pt x="215" y="-21" on="0"/>
        <pt x="14" y="195" on="0"/>
        <pt x="58" y="396" on="1"/>
        <pt x="61" y="401" on="1"/>
        <pt x="247" y="401" on="1"/>
        <pt x="218" y="257" on="0"/>
        <pt x="314" y="133" on="0"/>
        <pt x="430" y="133" on="1"/>
        <pt x="522" y="133" on="0"/>
        <pt x="681" y="282" on="0"/>
        <pt x="706" y="403" on="1"/>
      </contour>
    </TTGlyph>
    <TTGlyph name="J.smcp" xMin="11" yMin="-17" xMax="983" yMax="1165">
      <contour>
        <pt x="791" y="1165" on="1"/>
        <pt x="983" y="1165" on="1"/>
        <pt x="821" y="354" on="1"/>
        <pt x="784" y="173" on="0"/>
        <pt x="538" y="-17" on="0"/>
        <pt x="370" y="-17" on="1"/>
        <pt x="198" y="-17" on="0"/>
        <pt x="11" y="164" on="0"/>
        <pt x="49" y="332" on="1"/>
        <pt x="51" y="337" on="1"/>
        <pt x="237" y="337" on="1"/>
        <pt x="215" y="229" on="0"/>
        <pt x="301" y="135" on="0"/>
        <pt x="400" y="135" on="1"/>
        <pt x="474" y="135" on="0"/>
        <pt x="610" y="258" on="0"/>
        <pt x="629" y="354" on="1"/>
      </contour>
    </TTGlyph>
    <TTGlyph name="Jcircumflex" xMin="14" yMin="-21" xMax="1325" yMax="1852">
      <component glyphName="J" x="0" y="0" flags="0x204"/>
      <component glyphName="circumflex" x="411" y="337" flags="0x4"/>
    </TTGlyph>
    <TTGlyph name="Jcircumflex.smcp" xMin="11" yMin="-17" xMax="1195" yMax="1532">
      <component glyphName="J.smcp" x="0" y="0" flags="0x204"/>
      <component glyphName="circumflex" x="281" y="17" flags="0x4"/>
    </TTGlyph>
    <TTGlyph name="K" xMin="60" yMin="0" xMax="1334" yMax="1456">
      <contour>
        <pt x="513" y="658" on="1"/>
        <pt x="385" y="658" on="1"/>
        <pt x="254" y="0" on="1"/>
        <pt x="60" y="0" on="1"/>
        <pt x="351" y="1456" on="1"/>
        <pt x="545" y="1456" on="1"/>
        <pt x="418" y="823" on="1"/>
        <pt x="560" y="823" on="1"/>
        <pt x="1095" y="1456" on="1"/>
        <pt x="1332" y="1456" on="1"/>
        <pt x="1334" y="1451" on="1"/>
        <pt x="680" y="725" on="1"/>
        <pt x="1065" y="0" on="1"/>
        <pt x="845" y="0" on="1"/>
      </contour>
    </TTGlyph>
    <TTGlyph name="K.smcp" xMin="60" yMin="0" xMax="1140" yMax="1165">
      <contour>
        <pt x="439" y="500" on="1"/>
        <pt x="354" y="500" on="1"/>
        <pt x="254" y="0" on="1"/>
        <pt x="60" y="0" on="1"/>
        <pt x="293" y="1165" on="1"/>
        <pt x="487" y="1165" on="1"/>
        <pt x="385" y="657" on="1"/>
        <pt x="456" y="657" on="1"/>
        <pt x="912" y="1165" on="1"/>
        <pt x="1137" y="1165" on="1"/>
        <pt x="1140" y="1159" on="1"/>
        <pt x="607" y="607" on="1"/>
        <pt x="941" y="0" on="1"/>
        <pt x="698" y="0" on="1"/>
      </contour>
    </TTGlyph>
    <TTGlyph name="Kappa" xMin="60" yMin="0" xMax="1334" yMax="1456">
      <component glyphName="K" x="0" y="0" flags="0x4"/>
    </TTGlyph>
    <TTGlyph name="Kcommaaccent" xMin="60" yMin="-477" xMax="1334" yMax="1456">
      <component glyphName="K" x="0" y="0" flags="0x4"/>
      <component glyphName="commaaccent" x="290" y="-343" flags="0x4"/>
    </TTGlyph>
    <TTGlyph name="Kcommaaccent.smcp" xMin="60" yMin="-479" xMax="1140" yMax="1165">
      <component glyphName="K.smcp" x="0" y="0" flags="0x204"/>
      <component glyphName="commaaccent" x="173" y="-345" flags="0x4"/>
    </TTGlyph>
    <TTGlyph name="L" xMin="86" yMin="0" xMax="947" yMax="1456">
      <contour>
        <pt x="310" y="154" on="1"/>
        <pt x="947" y="154" on="1"/>
        <pt x="916" y="0" on="1"/>
        <pt x="86" y="0" on="1"/>
        <pt x="377" y="1456" on="1"/>
        <pt x="570" y="1456" on="1"/>
      </contour>
    </TTGlyph>
    <TTGlyph name="L.smcp" xMin="60" yMin="0" xMax="765" yMax="1165">
      <contour>
        <pt x="284" y="152" on="1"/>
        <pt x="765" y="152" on="1"/>
        <pt x="735" y="0" on="1"/>
        <pt x="60" y="0" on="1"/>
        <pt x="293" y="1165" on="1"/>
        <pt x="487" y="1165" on="1"/>
      </contour>
    </TTGlyph>
    <TTGlyph name="Lacute" xMin="86" yMin="0" xMax="947" yMax="1760">
      <component glyphName="L" x="0" y="0" flags="0x204"/>
      <component glyphName="acute" x="143" y="282" flags="0x4"/>
    </TTGlyph>
    <TTGlyph name="Lacute.smcp" xMin="60" yMin="0" xMax="765" yMax="1474">
      <component glyphName="L.smcp" x="0" y="0" flags="0x204"/>
      <component glyphName="acute" x="67" y="-4" flags="0x4"/>
    </TTGlyph>
    <TTGlyph name="Lambda" xMin="-37" yMin="0" xMax="1122" yMax="1456">
      <contour>
        <pt x="775" y="1152" on="1"/>
        <pt x="769" y="1153" on="1"/>
        <pt x="160" y="0" on="1"/>
        <pt x="-37" y="0" on="1"/>
        <pt x="751" y="1456" on="1"/>
        <pt x="916" y="1456" on="1"/>
        <pt x="1122" y="0" on="1"/>
        <pt x="925" y="0" on="1"/>
      </contour>
    </TTGlyph>
    <TTGlyph name="Lcaron" xMin="86" yMin="0" xMax="968" yMax="1457">
      <component glyphName="L" x="0" y="0" flags="0x204"/>
      <component glyphName="commaaccent" x="698" y="1214" flags="0x4"/>
    </TTGlyph>
    <TTGlyph name="Lcaron.smcp" xMin="60" yMin="0" xMax="768" yMax="1166">
      <component glyphName="L.smcp" x="0" y="0" flags="0x204"/>
      <component glyphName="commaaccent" x="498" y="923" flags="0x4"/>
    </TTGlyph>
    <TTGlyph name="Lcommaaccent" xMin="86" yMin="-475" xMax="947" yMax="1456">
      <component glyphName="L" x="0" y="0" flags="0x204"/>
      <component glyphName="commaaccent" x="283" y="-341" flags="0x4"/>
    </TTGlyph>
    <TTGlyph name="Lcommaaccent.smcp" xMin="60" yMin="-477" xMax="765" yMax="1165">
      <component glyphName="L.smcp" x="0" y="0" flags="0x204"/>
      <component glyphName="commaaccent" x="141" y="-343" flags="0x4"/>
    </TTGlyph>
    <TTGlyph name="Ldot" xMin="86" yMin="0" xMax="947" yMax="1456">
      <component glyphName="L" x="0" y="0" flags="0x204"/>
      <component glyphName="dotaccent" x="308" y="-567" flags="0x4"/>
    </TTGlyph>
    <TTGlyph name="Ldot.smcp" xMin="60" yMin="0" xMax="765" yMax="1165">
      <component glyphName="L.smcp" x="0" y="0" flags="0x204"/>
      <component glyphName="dotaccent" x="138" y="-726" flags="0x4"/>
    </TTGlyph>
    <TTGlyph name="Lslash" xMin="70" yMin="0" xMax="931" yMax="1456">
      <contour>
        <pt x="432" y="846" on="1"/>
        <pt x="693" y="929" on="1"/>
        <pt x="660" y="763" on="1"/>
        <pt x="399" y="680" on="1"/>
        <pt x="294" y="154" on="1"/>
        <pt x="931" y="154" on="1"/>
        <pt x="900" y="0" on="1"/>
        <pt x="70" y="0" on="1"/>
        <pt x="192" y="614" on="1"/>
        <pt x="74" y="576" on="1"/>
        <pt x="107" y="742" on="1"/>
        <pt x="225" y="780" on="1"/>
        <pt x="361" y="1456" on="1"/>
        <pt x="554" y="1456" on="1"/>
      </contour>
    </TTGlyph>
    <TTGlyph name="M" xMin="86" yMin="0" xMax="1720" yMax="1456">
      <contour>
        <pt x="624" y="1456" on="1"/>
        <pt x="810" y="274" on="1"/>
        <pt x="815" y="273" on="1"/>
        <pt x="1474" y="1456" on="1"/>
        <pt x="1720" y="1456" on="1"/>
        <pt x="1429" y="0" on="1"/>
        <pt x="1236" y="0" on="1"/>
        <pt x="1351" y="576" on="1"/>
        <pt x="1485" y="1149" on="1"/>
        <pt x="1480" y="1151" on="1"/>
        <pt x="821" y="0" on="1"/>
        <pt x="693" y="0" on="1"/>
        <pt x="495" y="1148" on="1"/>
        <pt x="489" y="1148" on="1"/>
        <pt x="394" y="576" on="1"/>
        <pt x="279" y="0" on="1"/>
        <pt x="86" y="0" on="1"/>
        <pt x="377" y="1456" on="1"/>
      </contour>
    </TTGlyph>
    <TTGlyph name="M.smcp" xMin="60" yMin="0" xMax="1427" yMax="1165">
      <contour>
        <pt x="679" y="260" on="1"/>
        <pt x="685" y="259" on="1"/>
        <pt x="1185" y="1165" on="1"/>
        <pt x="1427" y="1165" on="1"/>
        <pt x="1194" y="0" on="1"/>
        <pt x="1001" y="0" on="1"/>
        <pt x="1158" y="789" on="1"/>
        <pt x="1153" y="791" on="1"/>
        <pt x="696" y="0" on="1"/>
        <pt x="563" y="0" on="1"/>
        <pt x="421" y="806" on="1"/>
        <pt x="415" y="806" on="1"/>
        <pt x="254" y="0" on="1"/>
        <pt x="60" y="0" on="1"/>
        <pt x="293" y="1165" on="1"/>
        <pt x="542" y="1165" on="1"/>
      </contour>
    </TTGlyph>
    <TTGlyph name="Mu" xMin="86" yMin="0" xMax="1720" yMax="1456">
      <component glyphName="M" x="0" y="0" flags="0x204"/>
    </TTGlyph>
    <TTGlyph name="N" xMin="86" yMin="0" xMax="1405" yMax="1456">
      <contour>
        <pt x="1114" y="0" on="1"/>
        <pt x="920" y="0" on="1"/>
        <pt x="507" y="1112" on="1"/>
        <pt x="501" y="1111" on="1"/>
        <pt x="279" y="0" on="1"/>
        <pt x="86" y="0" on="1"/>
        <pt x="377" y="1456" on="1"/>
        <pt x="570" y="1456" on="1"/>
        <pt x="983" y="346" on="1"/>
        <pt x="989" y="347" on="1"/>
        <pt x="1211" y="1456" on="1"/>
        <pt x="1405" y="1456" on="1"/>
      </contour>
    </TTGlyph>
    <TTGlyph name="N.smcp" xMin="60" yMin="0" xMax="1218" yMax="1165">
      <contour>
        <pt x="985" y="0" on="1"/>
        <pt x="793" y="0" on="1"/>
        <pt x="428" y="843" on="1"/>
        <pt x="422" y="842" on="1"/>
        <pt x="254" y="0" on="1"/>
        <pt x="60" y="0" on="1"/>
        <pt x="293" y="1165" on="1"/>
        <pt x="487" y="1165" on="1"/>
        <pt x="851" y="321" on="1"/>
        <pt x="857" y="322" on="1"/>
        <pt x="1026" y="1165" on="1"/>
        <pt x="1218" y="1165" on="1"/>
      </contour>
    </TTGlyph>
    <TTGlyph name="Nacute" xMin="86" yMin="0" xMax="1405" yMax="1823">
      <component glyphName="N" x="0" y="0" flags="0x204"/>
      <component glyphName="acute" x="572" y="345" flags="0x4"/>
    </TTGlyph>
    <TTGlyph name="Nacute.smcp" xMin="60" yMin="0" xMax="1218" yMax="1500">
      <component glyphName="N.smcp" x="0" y="0" flags="0x204"/>
      <component glyphName="acute" x="416" y="22" flags="0x4"/>
    </TTGlyph>
    <TTGlyph name="Ncaron" xMin="86" yMin="0" xMax="1405" yMax="1865">
      <component glyphName="N" x="0" y="0" flags="0x204"/>
      <component glyphName="caron" x="320" y="350" flags="0x4"/>
    </TTGlyph>
    <TTGlyph name="Ncaron.smcp" xMin="60" yMin="0" xMax="1218" yMax="1542">
      <component glyphName="N.smcp" x="0" y="0" flags="0x204"/>
      <component glyphName="caron" x="164" y="27" flags="0x4"/>
    </TTGlyph>
    <TTGlyph name="Ncommaaccent" xMin="86" yMin="-475" xMax="1405" yMax="1456">
      <component glyphName="N" x="0" y="0" flags="0x204"/>
      <component glyphName="commaaccent" x="376" y="-341" flags="0x4"/>
    </TTGlyph>
    <TTGlyph name="Ncommaaccent.smcp" xMin="60" yMin="-477" xMax="1218" yMax="1165">
      <component glyphName="N.smcp" x="0" y="0" flags="0x204"/>
      <component glyphName="commaaccent" x="284" y="-343" flags="0x4"/>
    </TTGlyph>
    <TTGlyph name="Ntilde" xMin="86" yMin="0" xMax="1405" yMax="1876">
      <component glyphName="N" x="0" y="0" flags="0x204"/>
      <component glyphName="tilde" x="330" y="353" flags="0x4"/>
    </TTGlyph>
    <TTGlyph name="Ntilde.smcp" xMin="60" yMin="0" xMax="1218" yMax="1553">
      <component glyphName="N.smcp" x="0" y="0" flags="0x204"/>
      <component glyphName="tilde" x="174" y="30" flags="0x4"/>
    </TTGlyph>
    <TTGlyph name="Nu" xMin="86" yMin="0" xMax="1405" yMax="1456">
      <component glyphName="N" x="0" y="0" flags="0x204"/>
    </TTGlyph>
    <TTGlyph name="O" xMin="93" yMin="-21" xMax="1337" yMax="1477">
      <contour>
        <pt x="1234" y="588" on="1"/>
        <pt x="1176" y="301" on="0"/>
        <pt x="831" y="-21" on="0"/>
        <pt x="583" y="-21" on="1"/>
        <pt x="359" y="-21" on="0"/>
        <pt x="93" y="347" on="0"/>
        <pt x="145" y="607" on="1"/>
        <pt x="197" y="867" on="1"/>
        <pt x="254" y="1153" on="0"/>
        <pt x="587" y="1477" on="0"/>
        <pt x="827" y="1477" on="1"/>
        <pt x="1059" y="1477" on="0"/>
        <pt x="1337" y="1107" on="0"/>
        <pt x="1286" y="848" on="1"/>
      </contour>
      <contour>
        <pt x="1093" y="850" on="1"/>
        <pt x="1135" y="1060" on="0"/>
        <pt x="966" y="1315" on="0"/>
        <pt x="795" y="1315" on="1"/>
        <pt x="651" y="1315" on="0"/>
        <pt x="430" y="1067" on="0"/>
        <pt x="391" y="869" on="1"/>
        <pt x="338" y="607" on="1"/>
        <pt x="295" y="395" on="0"/>
        <pt x="453" y="140" on="0"/>
        <pt x="615" y="140" on="1"/>
        <pt x="769" y="140" on="0"/>
        <pt x="1000" y="387" on="0"/>
        <pt x="1041" y="588" on="1"/>
      </contour>
    </TTGlyph>
    <TTGlyph name="O.smcp" xMin="72" yMin="-17" xMax="1142" yMax="1181">
      <contour>
        <pt x="1052" y="461" on="1"/>
        <pt x="1007" y="233" on="0"/>
        <pt x="703" y="-17" on="0"/>
        <pt x="489" y="-17" on="1"/>
        <pt x="294" y="-17" on="0"/>
        <pt x="72" y="252" on="0"/>
        <pt x="114" y="461" on="1"/>
        <pt x="163" y="704" on="1"/>
        <pt x="207" y="929" on="0"/>
        <pt x="513" y="1181" on="0"/>
        <pt x="726" y="1181" on="1"/>
        <pt x="921" y="1181" on="0"/>
        <pt x="1142" y="912" on="0"/>
        <pt x="1101" y="704" on="1"/>
      </contour>
      <contour>
        <pt x="908" y="705" on="1"/>
        <pt x="940" y="866" on="0"/>
        <pt x="828" y="1028" on="0"/>
        <pt x="696" y="1028" on="1"/>
        <pt x="575" y="1028" on="0"/>
        <pt x="386" y="853" on="0"/>
        <pt x="356" y="705" on="1"/>
        <pt x="307" y="461" on="1"/>
        <pt x="274" y="298" on="0"/>
        <pt x="387" y="135" on="0"/>
        <pt x="519" y="135" on="1"/>
        <pt x="639" y="135" on="0"/>
        <pt x="828" y="310" on="0"/>
        <pt x="859" y="461" on="1"/>
      </contour>
    </TTGlyph>
    <TTGlyph name="OE" xMin="79" yMin="-21" xMax="1926" yMax="1477">
      <contour>
        <pt x="1646" y="0" on="1"/>
        <pt x="806" y="0" on="1"/>
        <pt x="719" y="-10" on="0"/>
        <pt x="598" y="-21" on="0"/>
        <pt x="536" y="-21" on="1"/>
        <pt x="317" y="-21" on="0"/>
        <pt x="79" y="316" on="0"/>
        <pt x="131" y="576" on="1"/>
        <pt x="192" y="880" on="1"/>
        <pt x="248" y="1162" on="0"/>
        <pt x="595" y="1477" on="0"/>
        <pt x="833" y="1477" on="1"/>
        <pt x="892" y="1477" on="0"/>
        <pt x="1029" y="1465" on="0"/>
        <pt x="1097" y="1456" on="1"/>
        <pt x="1926" y="1456" on="1"/>
        <pt x="1895" y="1301" on="1"/>
        <pt x="1195" y="1301" on="1"/>
        <pt x="1101" y="830" on="1"/>
        <pt x="1717" y="830" on="1"/>
        <pt x="1686" y="675" on="1"/>
        <pt x="1070" y="675" on="1"/>
        <pt x="966" y="154" on="1"/>
        <pt x="1677" y="154" on="1"/>
      </contour>
      <contour>
        <pt x="567" y="134" on="1"/>
        <pt x="615" y="134" on="0"/>
        <pt x="720" y="142" on="0"/>
        <pt x="772" y="150" on="1"/>
        <pt x="1003" y="1306" on="1"/>
        <pt x="954" y="1313" on="0"/>
        <pt x="854" y="1322" on="0"/>
        <pt x="802" y="1322" on="1"/>
        <pt x="658" y="1322" on="0"/>
        <pt x="427" y="1091" on="0"/>
        <pt x="385" y="882" on="1"/>
        <pt x="324" y="576" on="1"/>
        <pt x="278" y="348" on="0"/>
        <pt x="409" y="134" on="0"/>
      </contour>
    </TTGlyph>
    <TTGlyph name="Oacute" xMin="93" yMin="-21" xMax="1337" yMax="1844">
      <component glyphName="O" x="0" y="0" flags="0x204"/>
      <component glyphName="acute" x="551" y="366" flags="0x4"/>
    </TTGlyph>
    <TTGlyph name="Oacute.smcp" xMin="72" yMin="-17" xMax="1142" yMax="1516">
      <component glyphName="O.smcp" x="0" y="0" flags="0x204"/>
      <component glyphName="acute" x="391" y="38" flags="0x4"/>
    </TTGlyph>
    <TTGlyph name="Obreve" xMin="93" yMin="-21" xMax="1337" yMax="1891">
      <component glyphName="O" x="0" y="0" flags="0x204"/>
      <component glyphName="breve" x="373" y="435" flags="0x4"/>
    </TTGlyph>
    <TTGlyph name="Obreve.smcp" xMin="72" yMin="-17" xMax="1142" yMax="1563">
      <component glyphName="O.smcp" x="0" y="0" flags="0x204"/>
      <component glyphName="breve" x="213" y="107" flags="0x4"/>
    </TTGlyph>
    <TTGlyph name="Ocircumflex" xMin="93" yMin="-21" xMax="1337" yMax="1885">
      <component glyphName="O" x="0" y="0" flags="0x204"/>
      <component glyphName="circumflex" x="276" y="370" flags="0x4"/>
    </TTGlyph>
    <TTGlyph name="Ocircumflex.smcp" xMin="72" yMin="-17" xMax="1142" yMax="1557">
      <component glyphName="O.smcp" x="0" y="0" flags="0x204"/>
      <component glyphName="circumflex" x="116" y="42" flags="0x4"/>
    </TTGlyph>
    <TTGlyph name="Odieresis" xMin="93" yMin="-21" xMax="1337" yMax="1826">
      <component glyphName="O" x="0" y="0" flags="0x204"/>
      <component glyphName="dieresis" x="278" y="370" flags="0x4"/>
    </TTGlyph>
    <TTGlyph name="Odieresis.smcp" xMin="72" yMin="-17" xMax="1142" yMax="1498">
      <component glyphName="O.smcp" x="0" y="0" flags="0x204"/>
      <component glyphName="dieresis" x="118" y="42" flags="0x4"/>
    </TTGlyph>
    <TTGlyph name="Ograve" xMin="93" yMin="-21" xMax="1337" yMax="1847">
      <component glyphName="O" x="0" y="0" flags="0x204"/>
      <component glyphName="grave" x="379" y="370" flags="0x4"/>
    </TTGlyph>
    <TTGlyph name="Ograve.smcp" xMin="72" yMin="-17" xMax="1142" yMax="1519">
      <component glyphName="O.smcp" x="0" y="0" flags="0x204"/>
      <component glyphName="grave" x="219" y="42" flags="0x4"/>
    </TTGlyph>
    <TTGlyph name="Ohorn" xMin="85" yMin="-21" xMax="1674" yMax="1653">
      <contour>
        <pt x="1230" y="598" on="1"/>
        <pt x="1172" y="314" on="0"/>
        <pt x="800" y="-21" on="0"/>
        <pt x="549" y="-21" on="1"/>
        <pt x="327" y="-21" on="0"/>
        <pt x="85" y="336" on="0"/>
        <pt x="138" y="598" on="1"/>
        <pt x="189" y="857" on="1"/>
        <pt x="246" y="1141" on="0"/>
        <pt x="606" y="1477" on="0"/>
        <pt x="848" y="1477" on="1"/>
        <pt x="951" y="1477" on="0"/>
        <pt x="1124" y="1397" on="0"/>
        <pt x="1185" y="1324" on="1"/>
        <pt x="1295" y="1335" on="0"/>
        <pt x="1457" y="1509" on="0"/>
        <pt x="1486" y="1653" on="1"/>
        <pt x="1672" y="1653" on="1"/>
        <pt x="1674" y="1648" on="1"/>
        <pt x="1636" y="1446" on="0"/>
        <pt x="1427" y="1214" on="0"/>
        <pt x="1265" y="1181" on="1"/>
        <pt x="1290" y="1109" on="0"/>
        <pt x="1298" y="945" on="0"/>
        <pt x="1281" y="857" on="1"/>
      </contour>
      <contour>
        <pt x="1089" y="859" on="1"/>
        <pt x="1131" y="1071" on="0"/>
        <pt x="985" y="1315" on="0"/>
        <pt x="816" y="1315" on="1"/>
        <pt x="671" y="1315" on="0"/>
        <pt x="421" y="1054" on="0"/>
        <pt x="383" y="859" on="1"/>
        <pt x="331" y="598" on="1"/>
        <pt x="287" y="384" on="0"/>
        <pt x="422" y="140" on="0"/>
        <pt x="581" y="140" on="1"/>
        <pt x="737" y="140" on="0"/>
        <pt x="997" y="400" on="0"/>
        <pt x="1037" y="598" on="1"/>
      </contour>
    </TTGlyph>
    <TTGlyph name="Ohungarumlaut" xMin="93" yMin="-21" xMax="1425" yMax="1888">
      <component glyphName="O" x="0" y="0" flags="0x204"/>
      <component glyphName="hungarumlaut" x="413" y="370" flags="0x4"/>
    </TTGlyph>
    <TTGlyph name="Ohungarumlaut.smcp" xMin="72" yMin="-17" xMax="1265" yMax="1560">
      <component glyphName="O.smcp" x="0" y="0" flags="0x204"/>
      <component glyphName="hungarumlaut" x="253" y="42" flags="0x4"/>
    </TTGlyph>
    <TTGlyph name="Omacron" xMin="93" yMin="-21" xMax="1337" yMax="1807">
      <component glyphName="O" x="0" y="0" flags="0x204"/>
      <component glyphName="macron" x="309" y="351" flags="0x4"/>
    </TTGlyph>
    <TTGlyph name="Omacron.smcp" xMin="72" yMin="-17" xMax="1142" yMax="1479">
      <component glyphName="O.smcp" x="0" y="0" flags="0x204"/>
      <component glyphName="macron" x="149" y="23" flags="0x4"/>
    </TTGlyph>
    <TTGlyph name="Omega" xMin="29" yMin="0" xMax="1291" yMax="1477">
      <contour>
        <pt x="609" y="35" on="1"/>
        <pt x="633" y="154" on="1"/>
        <pt x="634" y="159" on="1"/>
        <pt x="770" y="184" on="0"/>
        <pt x="969" y="470" on="0"/>
        <pt x="1019" y="722" on="1"/>
        <pt x="1043" y="840" on="1"/>
        <pt x="1093" y="1088" on="0"/>
        <pt x="966" y="1322" on="0"/>
        <pt x="808" y="1322" on="1"/>
        <pt x="664" y="1322" on="0"/>
        <pt x="429" y="1069" on="0"/>
        <pt x="384" y="840" on="1"/>
        <pt x="360" y="722" on="1"/>
        <pt x="306" y="453" on="0"/>
        <pt x="394" y="183" on="0"/>
        <pt x="526" y="159" on="1"/>
        <pt x="525" y="154" on="1"/>
        <pt x="501" y="35" on="1"/>
        <pt x="494" y="0" on="1"/>
        <pt x="29" y="0" on="1"/>
        <pt x="60" y="154" on="1"/>
        <pt x="277" y="154" on="1"/>
        <pt x="191" y="251" on="0"/>
        <pt x="133" y="557" on="0"/>
        <pt x="166" y="722" on="1"/>
        <pt x="190" y="838" on="1"/>
        <pt x="250" y="1140" on="0"/>
        <pt x="602" y="1477" on="0"/>
        <pt x="839" y="1477" on="1"/>
        <pt x="1057" y="1477" on="0"/>
        <pt x="1291" y="1116" on="0"/>
        <pt x="1236" y="838" on="1"/>
        <pt x="1212" y="722" on="1"/>
        <pt x="1176" y="547" on="0"/>
        <pt x="1003" y="248" on="0"/>
        <pt x="883" y="154" on="1"/>
        <pt x="1099" y="154" on="1"/>
        <pt x="1068" y="0" on="1"/>
        <pt x="602" y="0" on="1"/>
      </contour>
    </TTGlyph>
    <TTGlyph name="Omegatonos" xMin="49" yMin="0" xMax="1311" yMax="1660">
      <component glyphName="Omega" x="20" y="0" flags="0x4"/>
      <component glyphName="tonos" x="-127" y="0" flags="0x4"/>
    </TTGlyph>
    <TTGlyph name="Omicron" xMin="93" yMin="-21" xMax="1337" yMax="1477">
      <component glyphName="O" x="0" y="0" flags="0x204"/>
    </TTGlyph>
    <TTGlyph name="Omicrontonos" xMin="113" yMin="-21" xMax="1357" yMax="1660">
      <component glyphName="O" x="20" y="0" flags="0x4"/>
      <component glyphName="tonos" x="-116" y="0" flags="0x4"/>
    </TTGlyph>
    <TTGlyph name="Oslash" xMin="35" yMin="-94" xMax="1387" yMax="1517">
      <contour>
        <pt x="1236" y="598" on="1"/>
        <pt x="1178" y="314" on="0"/>
        <pt x="806" y="-21" on="0"/>
        <pt x="555" y="-21" on="1"/>
        <pt x="480" y="-21" on="0"/>
        <pt x="350" y="23" on="0"/>
        <pt x="298" y="65" on="1"/>
        <pt x="179" y="-94" on="1"/>
        <pt x="35" y="-94" on="1"/>
        <pt x="218" y="150" on="1"/>
        <pt x="157" y="235" on="0"/>
        <pt x="116" y="465" on="0"/>
        <pt x="144" y="598" on="1"/>
        <pt x="195" y="857" on="1"/>
        <pt x="252" y="1141" on="0"/>
        <pt x="612" y="1477" on="0"/>
        <pt x="854" y="1477" on="1"/>
        <pt x="936" y="1477" on="0"/>
        <pt x="1081" y="1425" on="0"/>
        <pt x="1138" y="1378" on="1"/>
        <pt x="1243" y="1517" on="1"/>
        <pt x="1387" y="1517" on="1"/>
        <pt x="1217" y="1290" on="1"/>
        <pt x="1274" y="1205" on="0"/>
        <pt x="1312" y="982" on="0"/>
        <pt x="1287" y="857" on="1"/>
      </contour>
      <contour>
        <pt x="337" y="598" on="1"/>
        <pt x="319" y="512" on="0"/>
        <pt x="320" y="370" on="0"/>
        <pt x="339" y="321" on="1"/>
        <pt x="345" y="320" on="1"/>
        <pt x="1032" y="1236" on="1"/>
        <pt x="994" y="1274" on="0"/>
        <pt x="888" y="1315" on="0"/>
        <pt x="822" y="1315" on="1"/>
        <pt x="677" y="1315" on="0"/>
        <pt x="427" y="1054" on="0"/>
        <pt x="389" y="859" on="1"/>
      </contour>
      <contour>
        <pt x="1095" y="859" on="1"/>
        <pt x="1110" y="937" on="0"/>
        <pt x="1109" y="1069" on="0"/>
        <pt x="1094" y="1117" on="1"/>
        <pt x="1088" y="1118" on="1"/>
        <pt x="404" y="206" on="1"/>
        <pt x="437" y="173" on="0"/>
        <pt x="529" y="140" on="0"/>
        <pt x="587" y="140" on="1"/>
        <pt x="743" y="140" on="0"/>
        <pt x="1003" y="400" on="0"/>
        <pt x="1043" y="598" on="1"/>
      </contour>
    </TTGlyph>
    <TTGlyph name="Oslashacute" xMin="35" yMin="-94" xMax="1387" yMax="1885">
      <component glyphName="Oslash" x="0" y="0" flags="0x204"/>
      <component glyphName="acute" x="556" y="407" flags="0x4"/>
    </TTGlyph>
    <TTGlyph name="Otilde" xMin="93" yMin="-21" xMax="1337" yMax="1897">
      <component glyphName="O" x="0" y="0" flags="0x204"/>
      <component glyphName="tilde" x="309" y="374" flags="0x4"/>
    </TTGlyph>
    <TTGlyph name="Otilde.smcp" xMin="72" yMin="-17" xMax="1142" yMax="1569">
      <component glyphName="O.smcp" x="0" y="0" flags="0x204"/>
      <component glyphName="tilde" x="149" y="46" flags="0x4"/>
    </TTGlyph>
    <TTGlyph name="P" xMin="86" yMin="0" xMax="1311" yMax="1456">
      <contour>
        <pt x="395" y="584" on="1"/>
        <pt x="279" y="0" on="1"/>
        <pt x="86" y="0" on="1"/>
        <pt x="377" y="1456" on="1"/>
        <pt x="902" y="1456" on="1"/>
        <pt x="1104" y="1456" on="0"/>
        <pt x="1311" y="1212" on="0"/>
        <pt x="1273" y="1020" on="1"/>
        <pt x="1230" y="809" on="0"/>
        <pt x="949" y="584" on="0"/>
        <pt x="728" y="584" on="1"/>
      </contour>
      <contour>
        <pt x="426" y="738" on="1"/>
        <pt x="759" y="738" on="1"/>
        <pt x="883" y="738" on="0"/>
        <pt x="1056" y="900" on="0"/>
        <pt x="1080" y="1018" on="1"/>
        <pt x="1105" y="1146" on="0"/>
        <pt x="1006" y="1301" on="0"/>
        <pt x="871" y="1301" on="1"/>
        <pt x="539" y="1301" on="1"/>
      </contour>
    </TTGlyph>
    <TTGlyph name="P.smcp" xMin="60" yMin="0" xMax="1096" yMax="1165">
      <contour>
        <pt x="338" y="420" on="1"/>
        <pt x="254" y="0" on="1"/>
        <pt x="60" y="0" on="1"/>
        <pt x="293" y="1165" on="1"/>
        <pt x="730" y="1165" on="1"/>
        <pt x="907" y="1165" on="0"/>
        <pt x="1096" y="953" on="0"/>
        <pt x="1064" y="792" on="1"/>
        <pt x="1029" y="616" on="0"/>
        <pt x="774" y="420" on="0"/>
        <pt x="581" y="420" on="1"/>
      </contour>
      <contour>
        <pt x="368" y="574" on="1"/>
        <pt x="612" y="574" on="1"/>
        <pt x="709" y="574" on="0"/>
        <pt x="852" y="703" on="0"/>
        <pt x="870" y="790" on="1"/>
        <pt x="889" y="887" on="0"/>
        <pt x="805" y="1012" on="0"/>
        <pt x="699" y="1012" on="1"/>
        <pt x="456" y="1012" on="1"/>
      </contour>
    </TTGlyph>
    <TTGlyph name="Phi" xMin="86" yMin="0" xMax="1407" yMax="1456">
      <contour>
        <pt x="953" y="1270" on="1"/>
        <pt x="959" y="1270" on="1"/>
        <pt x="1161" y="1270" on="0"/>
        <pt x="1407" y="959" on="0"/>
        <pt x="1360" y="724" on="1"/>
        <pt x="1308" y="467" on="0"/>
        <pt x="960" y="175" on="0"/>
        <pt x="740" y="175" on="1"/>
        <pt x="734" y="175" on="1"/>
        <pt x="699" y="0" on="1"/>
        <pt x="506" y="0" on="1"/>
        <pt x="541" y="175" on="1"/>
        <pt x="532" y="175" on="1"/>
        <pt x="329" y="175" on="0"/>
        <pt x="86" y="486" on="0"/>
        <pt x="133" y="722" on="1"/>
        <pt x="184" y="978" on="0"/>
        <pt x="530" y="1270" on="0"/>
        <pt x="751" y="1270" on="1"/>
        <pt x="760" y="1270" on="1"/>
        <pt x="797" y="1456" on="1"/>
        <pt x="990" y="1456" on="1"/>
      </contour>
      <contour>
        <pt x="720" y="1116" on="1"/>
        <pt x="578" y="1116" on="0"/>
        <pt x="359" y="899" on="0"/>
        <pt x="324" y="722" on="1"/>
        <pt x="285" y="529" on="0"/>
        <pt x="408" y="330" on="0"/>
        <pt x="563" y="330" on="1"/>
        <pt x="572" y="330" on="1"/>
        <pt x="729" y="1116" on="1"/>
      </contour>
      <contour>
        <pt x="922" y="1116" on="1"/>
        <pt x="765" y="330" on="1"/>
        <pt x="773" y="330" on="1"/>
        <pt x="913" y="330" on="0"/>
        <pt x="1132" y="546" on="0"/>
        <pt x="1168" y="724" on="1"/>
        <pt x="1206" y="915" on="0"/>
        <pt x="1083" y="1116" on="0"/>
        <pt x="930" y="1116" on="1"/>
      </contour>
    </TTGlyph>
    <TTGlyph name="Pi" xMin="86" yMin="0" xMax="1407" yMax="1456">
      <contour>
        <pt x="1116" y="0" on="1"/>
        <pt x="922" y="0" on="1"/>
        <pt x="1182" y="1301" on="1"/>
        <pt x="539" y="1301" on="1"/>
        <pt x="279" y="0" on="1"/>
        <pt x="86" y="0" on="1"/>
        <pt x="377" y="1456" on="1"/>
        <pt x="1407" y="1456" on="1"/>
      </contour>
    </TTGlyph>
    <TTGlyph name="Psi" xMin="125" yMin="0" xMax="1429" yMax="1456">
      <contour>
        <pt x="753" y="489" on="1"/>
        <pt x="759" y="486" on="1"/>
        <pt x="886" y="508" on="0"/>
        <pt x="1089" y="720" on="0"/>
        <pt x="1122" y="885" on="1"/>
        <pt x="1236" y="1456" on="1"/>
        <pt x="1429" y="1456" on="1"/>
        <pt x="1315" y="885" on="1"/>
        <pt x="1263" y="624" on="0"/>
        <pt x="945" y="341" on="0"/>
        <pt x="719" y="319" on="1"/>
        <pt x="655" y="0" on="1"/>
        <pt x="461" y="0" on="1"/>
        <pt x="525" y="321" on="1"/>
        <pt x="330" y="349" on="0"/>
        <pt x="125" y="648" on="0"/>
        <pt x="173" y="885" on="1"/>
        <pt x="287" y="1456" on="1"/>
        <pt x="479" y="1456" on="1"/>
        <pt x="365" y="885" on="1"/>
        <pt x="328" y="705" on="0"/>
        <pt x="432" y="504" on="0"/>
        <pt x="552" y="486" on="1"/>
        <pt x="558" y="486" on="1"/>
        <pt x="752" y="1456" on="1"/>
        <pt x="946" y="1456" on="1"/>
      </contour>
    </TTGlyph>
    <TTGlyph name="Q" xMin="93" yMin="-223" xMax="1337" yMax="1477">
      <contour>
        <pt x="1234" y="588" on="1"/>
        <pt x="1202" y="431" on="0"/>
        <pt x="1065" y="187" on="0"/>
        <pt x="966" y="108" on="1"/>
        <pt x="1141" y="-103" on="1"/>
        <pt x="984" y="-223" on="1"/>
        <pt x="794" y="13" on="1"/>
        <pt x="744" y="-3" on="0"/>
        <pt x="638" y="-21" on="0"/>
        <pt x="583" y="-21" on="1"/>
        <pt x="359" y="-21" on="0"/>
        <pt x="93" y="347" on="0"/>
        <pt x="145" y="607" on="1"/>
        <pt x="197" y="867" on="1"/>
        <pt x="254" y="1153" on="0"/>
        <pt x="587" y="1477" on="0"/>
        <pt x="827" y="1477" on="1"/>
        <pt x="1059" y="1477" on="0"/>
        <pt x="1337" y="1107" on="0"/>
        <pt x="1286" y="848" on="1"/>
      </contour>
      <contour>
        <pt x="1093" y="850" on="1"/>
        <pt x="1135" y="1060" on="0"/>
        <pt x="966" y="1315" on="0"/>
        <pt x="795" y="1315" on="1"/>
        <pt x="651" y="1315" on="0"/>
        <pt x="430" y="1067" on="0"/>
        <pt x="391" y="869" on="1"/>
        <pt x="338" y="607" on="1"/>
        <pt x="295" y="395" on="0"/>
        <pt x="453" y="140" on="0"/>
        <pt x="615" y="140" on="1"/>
        <pt x="769" y="140" on="0"/>
        <pt x="1000" y="387" on="0"/>
        <pt x="1041" y="588" on="1"/>
      </contour>
    </TTGlyph>
    <TTGlyph name="Q.smcp" xMin="72" yMin="-118" xMax="1142" yMax="1181">
      <contour>
        <pt x="1052" y="461" on="1"/>
        <pt x="1032" y="366" on="0"/>
        <pt x="955" y="210" on="0"/>
        <pt x="900" y="151" on="1"/>
        <pt x="1016" y="-2" on="1"/>
        <pt x="860" y="-118" on="1"/>
        <pt x="741" y="36" on="1"/>
        <pt x="684" y="9" on="0"/>
        <pt x="557" y="-17" on="0"/>
        <pt x="489" y="-17" on="1"/>
        <pt x="294" y="-17" on="0"/>
        <pt x="72" y="252" on="0"/>
        <pt x="114" y="461" on="1"/>
        <pt x="163" y="704" on="1"/>
        <pt x="207" y="929" on="0"/>
        <pt x="513" y="1181" on="0"/>
        <pt x="726" y="1181" on="1"/>
        <pt x="921" y="1181" on="0"/>
        <pt x="1142" y="912" on="0"/>
        <pt x="1101" y="704" on="1"/>
      </contour>
      <contour>
        <pt x="908" y="705" on="1"/>
        <pt x="940" y="866" on="0"/>
        <pt x="828" y="1028" on="0"/>
        <pt x="696" y="1028" on="1"/>
        <pt x="575" y="1028" on="0"/>
        <pt x="386" y="853" on="0"/>
        <pt x="356" y="705" on="1"/>
        <pt x="307" y="461" on="1"/>
        <pt x="274" y="298" on="0"/>
        <pt x="387" y="135" on="0"/>
        <pt x="519" y="135" on="1"/>
        <pt x="639" y="135" on="0"/>
        <pt x="828" y="310" on="0"/>
        <pt x="859" y="461" on="1"/>
      </contour>
    </TTGlyph>
    <TTGlyph name="R" xMin="86" yMin="0" xMax="1285" yMax="1455">
      <contour>
        <pt x="406" y="631" on="1"/>
        <pt x="280" y="0" on="1"/>
        <pt x="86" y="0" on="1"/>
        <pt x="377" y="1455" on="1"/>
        <pt x="872" y="1455" on="1"/>
        <pt x="1080" y="1455" on="0"/>
        <pt x="1285" y="1239" on="0"/>
        <pt x="1246" y="1041" on="1"/>
        <pt x="1221" y="920" on="0"/>
        <pt x="1080" y="758" on="0"/>
        <pt x="964" y="711" on="1"/>
        <pt x="1062" y="670" on="0"/>
        <pt x="1132" y="494" on="0"/>
        <pt x="1108" y="371" on="1"/>
        <pt x="1081" y="234" on="1"/>
        <pt x="1066" y="162" on="0"/>
        <pt x="1074" y="59" on="0"/>
        <pt x="1101" y="24" on="1"/>
        <pt x="1096" y="0" on="1"/>
        <pt x="897" y="0" on="1"/>
        <pt x="867" y="34" on="0"/>
        <pt x="873" y="164" on="0"/>
        <pt x="888" y="236" on="1"/>
        <pt x="915" y="369" on="1"/>
        <pt x="940" y="494" on="0"/>
        <pt x="846" y="631" on="0"/>
        <pt x="741" y="631" on="1"/>
      </contour>
      <contour>
        <pt x="437" y="786" on="1"/>
        <pt x="719" y="786" on="1"/>
        <pt x="859" y="786" on="0"/>
        <pt x="1028" y="917" on="0"/>
        <pt x="1054" y="1043" on="1"/>
        <pt x="1080" y="1173" on="0"/>
        <pt x="980" y="1301" on="0"/>
        <pt x="841" y="1301" on="1"/>
        <pt x="540" y="1301" on="1"/>
      </contour>
    </TTGlyph>
    <TTGlyph name="R.smcp" xMin="60" yMin="0" xMax="1090" yMax="1165">
      <contour>
        <pt x="349" y="479" on="1"/>
        <pt x="254" y="0" on="1"/>
        <pt x="60" y="0" on="1"/>
        <pt x="293" y="1165" on="1"/>
        <pt x="724" y="1165" on="1"/>
        <pt x="904" y="1165" on="0"/>
        <pt x="1090" y="982" on="0"/>
        <pt x="1059" y="823" on="1"/>
        <pt x="1039" y="727" on="0"/>
        <pt x="922" y="605" on="0"/>
        <pt x="823" y="568" on="1"/>
        <pt x="910" y="536" on="0"/>
        <pt x="973" y="391" on="0"/>
        <pt x="953" y="290" on="1"/>
        <pt x="929" y="172" on="1"/>
        <pt x="919" y="122" on="0"/>
        <pt x="912" y="41" on="0"/>
        <pt x="921" y="19" on="1"/>
        <pt x="917" y="0" on="1"/>
        <pt x="718" y="0" on="1"/>
        <pt x="711" y="23" on="0"/>
        <pt x="725" y="122" on="0"/>
        <pt x="736" y="173" on="1"/>
        <pt x="759" y="289" on="1"/>
        <pt x="778" y="385" on="0"/>
        <pt x="706" y="479" on="0"/>
        <pt x="616" y="479" on="1"/>
      </contour>
      <contour>
        <pt x="380" y="633" on="1"/>
        <pt x="618" y="633" on="1"/>
        <pt x="719" y="633" on="0"/>
        <pt x="846" y="730" on="0"/>
        <pt x="863" y="815" on="1"/>
        <pt x="882" y="912" on="0"/>
        <pt x="802" y="1012" on="0"/>
        <pt x="693" y="1012" on="1"/>
        <pt x="456" y="1012" on="1"/>
      </contour>
    </TTGlyph>
    <TTGlyph name="Racute" xMin="86" yMin="0" xMax="1285" yMax="1823">
      <component glyphName="R" x="0" y="0" flags="0x204"/>
      <component glyphName="acute" x="473" y="345" flags="0x4"/>
    </TTGlyph>
    <TTGlyph name="Racute.smcp" xMin="60" yMin="0" xMax="1090" yMax="1500">
      <component glyphName="R.smcp" x="0" y="0" flags="0x204"/>
      <component glyphName="acute" x="312" y="22" flags="0x4"/>
    </TTGlyph>
    <TTGlyph name="Rcaron" xMin="86" yMin="0" xMax="1285" yMax="1865">
      <component glyphName="R" x="0" y="0" flags="0x204"/>
      <component glyphName="caron" x="221" y="350" flags="0x4"/>
    </TTGlyph>
    <TTGlyph name="Rcaron.smcp" xMin="60" yMin="0" xMax="1090" yMax="1542">
      <component glyphName="R.smcp" x="0" y="0" flags="0x204"/>
      <component glyphName="caron" x="60" y="27" flags="0x4"/>
    </TTGlyph>
    <TTGlyph name="Rcommaaccent" xMin="86" yMin="-475" xMax="1285" yMax="1455">
      <component glyphName="R" x="0" y="0" flags="0x204"/>
      <component glyphName="commaaccent" x="277" y="-341" flags="0x4"/>
    </TTGlyph>
    <TTGlyph name="Rcommaaccent.smcp" xMin="60" yMin="-477" xMax="1090" yMax="1165">
      <component glyphName="R.smcp" x="0" y="0" flags="0x204"/>
      <component glyphName="commaaccent" x="180" y="-343" flags="0x4"/>
    </TTGlyph>
    <TTGlyph name="Rho" xMin="86" yMin="0" xMax="1311" yMax="1456">
      <component glyphName="P" x="0" y="0" flags="0x204"/>
    </TTGlyph>
    <TTGlyph name="S" xMin="66" yMin="-21" xMax="1219" yMax="1477">
      <contour>
        <pt x="886" y="334" on="1"/>
        <pt x="909" y="449" on="0"/>
        <pt x="796" y="583" on="0"/>
        <pt x="625" y="646" on="1"/>
        <pt x="415" y="716" on="0"/>
        <pt x="236" y="925" on="0"/>
        <pt x="275" y="1120" on="1"/>
        <pt x="309" y="1294" on="0"/>
        <pt x="576" y="1477" on="0"/>
        <pt x="768" y="1477" on="1"/>
        <pt x="982" y="1477" on="0"/>
        <pt x="1219" y="1238" on="0"/>
        <pt x="1174" y="1031" on="1"/>
        <pt x="1172" y="1026" on="1"/>
        <pt x="986" y="1026" on="1"/>
        <pt x="1013" y="1160" on="0"/>
        <pt x="877" y="1322" on="0"/>
        <pt x="737" y="1322" on="1"/>
        <pt x="638" y="1322" on="0"/>
        <pt x="485" y="1207" on="0"/>
        <pt x="468" y="1122" on="1"/>
        <pt x="443" y="999" on="0"/>
        <pt x="545" y="879" on="0"/>
        <pt x="726" y="810" on="1"/>
        <pt x="940" y="733" on="0"/>
        <pt x="1117" y="528" on="0"/>
        <pt x="1079" y="336" on="1"/>
        <pt x="1043" y="154" on="0"/>
        <pt x="771" y="-21" on="0"/>
        <pt x="570" y="-21" on="1"/>
        <pt x="355" y="-21" on="0"/>
        <pt x="66" y="196" on="0"/>
        <pt x="117" y="423" on="1"/>
        <pt x="119" y="429" on="1"/>
        <pt x="304" y="429" on="1"/>
        <pt x="270" y="264" on="0"/>
        <pt x="453" y="133" on="0"/>
        <pt x="601" y="133" on="1"/>
        <pt x="702" y="133" on="0"/>
        <pt x="868" y="247" on="0"/>
      </contour>
    </TTGlyph>
    <TTGlyph name="S.smcp" xMin="36" yMin="-17" xMax="1076" yMax="1181">
      <contour>
        <pt x="760" y="304" on="1"/>
        <pt x="774" y="379" on="0"/>
        <pt x="682" y="462" on="0"/>
        <pt x="540" y="503" on="1"/>
        <pt x="343" y="561" on="0"/>
        <pt x="183" y="710" on="0"/>
        <pt x="213" y="860" on="1"/>
        <pt x="244" y="1017" on="0"/>
        <pt x="501" y="1181" on="0"/>
        <pt x="698" y="1181" on="1"/>
        <pt x="882" y="1181" on="0"/>
        <pt x="1076" y="992" on="0"/>
        <pt x="1039" y="827" on="1"/>
        <pt x="1036" y="821" on="1"/>
        <pt x="852" y="821" on="1"/>
        <pt x="871" y="919" on="0"/>
        <pt x="777" y="1028" on="0"/>
        <pt x="668" y="1028" on="1"/>
        <pt x="562" y="1028" on="0"/>
        <pt x="420" y="933" on="0"/>
        <pt x="406" y="861" on="1"/>
        <pt x="390" y="784" on="0"/>
        <pt x="478" y="708" on="0"/>
        <pt x="635" y="664" on="1"/>
        <pt x="824" y="606" on="0"/>
        <pt x="981" y="450" on="0"/>
        <pt x="953" y="305" on="1"/>
        <pt x="920" y="141" on="0"/>
        <pt x="656" y="-17" on="0"/>
        <pt x="448" y="-17" on="1"/>
        <pt x="268" y="-17" on="0"/>
        <pt x="36" y="155" on="0"/>
        <pt x="78" y="337" on="1"/>
        <pt x="80" y="343" on="1"/>
        <pt x="265" y="343" on="1"/>
        <pt x="241" y="227" on="0"/>
        <pt x="367" y="135" on="0"/>
        <pt x="478" y="135" on="1"/>
        <pt x="588" y="135" on="0"/>
        <pt x="745" y="231" on="0"/>
      </contour>
    </TTGlyph>
    <TTGlyph name="Sacute" xMin="66" yMin="-21" xMax="1219" yMax="1844">
      <component glyphName="S" x="0" y="0" flags="0x4"/>
      <component glyphName="acute" x="464" y="366" flags="0x4"/>
    </TTGlyph>
    <TTGlyph name="Sacute.smcp" xMin="36" yMin="-17" xMax="1076" yMax="1516">
      <component glyphName="S.smcp" x="0" y="0" flags="0x204"/>
      <component glyphName="acute" x="352" y="38" flags="0x4"/>
    </TTGlyph>
    <TTGlyph name="Scaron" xMin="66" yMin="-21" xMax="1219" yMax="1886">
      <component glyphName="S" x="0" y="0" flags="0x4"/>
      <component glyphName="caron" x="212" y="371" flags="0x4"/>
    </TTGlyph>
    <TTGlyph name="Scaron.smcp" xMin="36" yMin="-17" xMax="1076" yMax="1558">
      <component glyphName="S.smcp" x="0" y="0" flags="0x204"/>
      <component glyphName="caron" x="100" y="43" flags="0x4"/>
    </TTGlyph>
    <TTGlyph name="Scedilla" xMin="66" yMin="-441" xMax="1219" yMax="1477">
      <component glyphName="S" x="0" y="0" flags="0x4"/>
      <component glyphName="cedilla" x="359" y="-8" flags="0x4"/>
    </TTGlyph>
    <TTGlyph name="Scedilla.smcp" xMin="36" yMin="-438" xMax="1076" yMax="1181">
      <component glyphName="S.smcp" x="0" y="0" flags="0x204"/>
      <component glyphName="cedilla" x="314" y="-5" flags="0x4"/>
    </TTGlyph>
    <TTGlyph name="Scircumflex" xMin="66" yMin="-21" xMax="1219" yMax="1885">
      <component glyphName="S" x="0" y="0" flags="0x4"/>
      <component glyphName="circumflex" x="189" y="370" flags="0x4"/>
    </TTGlyph>
    <TTGlyph name="Scircumflex.smcp" xMin="36" yMin="-17" xMax="1076" yMax="1557">
      <component glyphName="S.smcp" x="0" y="0" flags="0x204"/>
      <component glyphName="circumflex" x="77" y="42" flags="0x4"/>
    </TTGlyph>
    <TTGlyph name="Sigma" xMin="-14" yMin="0" xMax="1188" yMax="1456">
      <contour>
        <pt x="775" y="715" on="1"/>
        <pt x="250" y="161" on="1"/>
        <pt x="253" y="155" on="1"/>
        <pt x="974" y="155" on="1"/>
        <pt x="943" y="0" on="1"/>
        <pt x="-14" y="0" on="1"/>
        <pt x="15" y="147" on="1"/>
        <pt x="574" y="728" on="1"/>
        <pt x="248" y="1309" on="1"/>
        <pt x="277" y="1456" on="1"/>
        <pt x="1188" y="1456" on="1"/>
        <pt x="1157" y="1301" on="1"/>
        <pt x="473" y="1301" on="1"/>
        <pt x="780" y="739" on="1"/>
      </contour>
    </TTGlyph>
    <TTGlyph name="T" xMin="210" yMin="0" xMax="1295" yMax="1456">
      <contour>
        <pt x="1264" y="1301" on="1"/>
        <pt x="833" y="1301" on="1"/>
        <pt x="573" y="0" on="1"/>
        <pt x="380" y="0" on="1"/>
        <pt x="640" y="1301" on="1"/>
        <pt x="210" y="1301" on="1"/>
        <pt x="241" y="1456" on="1"/>
        <pt x="1295" y="1456" on="1"/>
      </contour>
    </TTGlyph>
    <TTGlyph name="T.smcp" xMin="188" yMin="0" xMax="1063" yMax="1165">
      <contour>
        <pt x="1032" y="1012" on="1"/>
        <pt x="705" y="1012" on="1"/>
        <pt x="503" y="0" on="1"/>
        <pt x="310" y="0" on="1"/>
        <pt x="512" y="1012" on="1"/>
        <pt x="188" y="1012" on="1"/>
        <pt x="219" y="1165" on="1"/>
        <pt x="1063" y="1165" on="1"/>
      </contour>
    </TTGlyph>
    <TTGlyph name="Tau" xMin="210" yMin="0" xMax="1295" yMax="1456">
      <component glyphName="T" x="0" y="0" flags="0x204"/>
    </TTGlyph>
    <TTGlyph name="Tbar" xMin="210" yMin="0" xMax="1295" yMax="1456">
      <contour>
        <pt x="939" y="820" on="1"/>
        <pt x="737" y="820" on="1"/>
        <pt x="573" y="0" on="1"/>
        <pt x="380" y="0" on="1"/>
        <pt x="544" y="820" on="1"/>
        <pt x="339" y="820" on="1"/>
        <pt x="370" y="975" on="1"/>
        <pt x="575" y="975" on="1"/>
        <pt x="640" y="1301" on="1"/>
        <pt x="210" y="1301" on="1"/>
        <pt x="241" y="1456" on="1"/>
        <pt x="1295" y="1456" on="1"/>
        <pt x="1264" y="1301" on="1"/>
        <pt x="833" y="1301" on="1"/>
        <pt x="768" y="975" on="1"/>
        <pt x="970" y="975" on="1"/>
      </contour>
    </TTGlyph>
    <TTGlyph name="Tbar.smcp" xMin="188" yMin="0" xMax="1063" yMax="1165">
      <component glyphName="T.smcp" x="0" y="0" flags="0x204"/>
      <component glyphName="crossbar" x="36" y="-6" flags="0x4"/>
    </TTGlyph>
    <TTGlyph name="Tcaron" xMin="210" yMin="0" xMax="1295" yMax="1864">
      <component glyphName="T" x="0" y="0" flags="0x204"/>
      <component glyphName="caron" x="203" y="349" flags="0x4"/>
    </TTGlyph>
    <TTGlyph name="Tcaron.smcp" xMin="188" yMin="0" xMax="1063" yMax="1541">
      <component glyphName="T.smcp" x="0" y="0" flags="0x204"/>
      <component glyphName="caron" x="58" y="26" flags="0x4"/>
    </TTGlyph>
    <TTGlyph name="Tcommaaccent.smcp" xMin="160" yMin="-477" xMax="1063" yMax="1165">
      <component glyphName="T.smcp" x="0" y="0" flags="0x204"/>
      <component glyphName="commaaccent" x="178" y="-343" flags="0x4"/>
    </TTGlyph>
    <TTGlyph name="Theta" xMin="93" yMin="-21" xMax="1337" yMax="1477">
      <contour>
        <pt x="943" y="659" on="1"/>
        <pt x="475" y="659" on="1"/>
        <pt x="506" y="813" on="1"/>
        <pt x="974" y="813" on="1"/>
      </contour>
      <contour>
        <pt x="1234" y="588" on="1"/>
        <pt x="1176" y="301" on="0"/>
        <pt x="831" y="-21" on="0"/>
        <pt x="583" y="-21" on="1"/>
        <pt x="359" y="-21" on="0"/>
        <pt x="93" y="347" on="0"/>
        <pt x="145" y="607" on="1"/>
        <pt x="197" y="867" on="1"/>
        <pt x="254" y="1153" on="0"/>
        <pt x="587" y="1477" on="0"/>
        <pt x="827" y="1477" on="1"/>
        <pt x="1059" y="1477" on="0"/>
        <pt x="1337" y="1107" on="0"/>
        <pt x="1286" y="848" on="1"/>
      </contour>
      <contour>
        <pt x="1093" y="850" on="1"/>
        <pt x="1135" y="1060" on="0"/>
        <pt x="966" y="1315" on="0"/>
        <pt x="795" y="1315" on="1"/>
        <pt x="651" y="1315" on="0"/>
        <pt x="430" y="1067" on="0"/>
        <pt x="391" y="869" on="1"/>
        <pt x="338" y="607" on="1"/>
        <pt x="295" y="395" on="0"/>
        <pt x="453" y="140" on="0"/>
        <pt x="615" y="140" on="1"/>
        <pt x="769" y="140" on="0"/>
        <pt x="1000" y="387" on="0"/>
        <pt x="1041" y="588" on="1"/>
      </contour>
    </TTGlyph>
    <TTGlyph name="Thorn" xMin="69" yMin="0" xMax="1150" yMax="1456">
      <contour>
        <pt x="553" y="1456" on="1"/>
        <pt x="494" y="1163" on="1"/>
        <pt x="738" y="1163" on="1"/>
        <pt x="941" y="1163" on="0"/>
        <pt x="1150" y="922" on="0"/>
        <pt x="1114" y="738" on="1"/>
        <pt x="1073" y="536" on="0"/>
        <pt x="789" y="313" on="0"/>
        <pt x="568" y="313" on="1"/>
        <pt x="324" y="313" on="1"/>
        <pt x="262" y="0" on="1"/>
        <pt x="69" y="0" on="1"/>
        <pt x="360" y="1456" on="1"/>
      </contour>
      <contour>
        <pt x="464" y="1012" on="1"/>
        <pt x="355" y="467" on="1"/>
        <pt x="598" y="467" on="1"/>
        <pt x="722" y="467" on="0"/>
        <pt x="897" y="627" on="0"/>
        <pt x="919" y="736" on="1"/>
        <pt x="943" y="857" on="0"/>
        <pt x="842" y="1009" on="0"/>
        <pt x="707" y="1009" on="1"/>
        <pt x="466" y="1009" on="1"/>
      </contour>
    </TTGlyph>
    <TTGlyph name="U" xMin="100" yMin="-21" xMax="1372" yMax="1456">
      <contour>
        <pt x="1372" y="1456" on="1"/>
        <pt x="1175" y="469" on="1"/>
        <pt x="1124" y="215" on="0"/>
        <pt x="793" y="-21" on="0"/>
        <pt x="554" y="-21" on="1"/>
        <pt x="343" y="-21" on="0"/>
        <pt x="100" y="236" on="0"/>
        <pt x="148" y="469" on="1"/>
        <pt x="345" y="1456" on="1"/>
        <pt x="538" y="1456" on="1"/>
        <pt x="341" y="469" on="1"/>
        <pt x="305" y="293" on="0"/>
        <pt x="441" y="133" on="0"/>
        <pt x="585" y="133" on="1"/>
        <pt x="725" y="133" on="0"/>
        <pt x="949" y="306" on="0"/>
        <pt x="982" y="469" on="1"/>
        <pt x="1179" y="1456" on="1"/>
      </contour>
    </TTGlyph>
    <TTGlyph name="U.smcp" xMin="86" yMin="-17" xMax="1216" yMax="1165">
      <contour>
        <pt x="1216" y="1165" on="1"/>
        <pt x="1063" y="398" on="1"/>
        <pt x="1021" y="189" on="0"/>
        <pt x="724" y="-17" on="0"/>
        <pt x="510" y="-17" on="1"/>
        <pt x="316" y="-17" on="0"/>
        <pt x="86" y="206" on="0"/>
        <pt x="125" y="398" on="1"/>
        <pt x="278" y="1165" on="1"/>
        <pt x="470" y="1165" on="1"/>
        <pt x="317" y="398" on="1"/>
        <pt x="290" y="267" on="0"/>
        <pt x="414" y="135" on="0"/>
        <pt x="540" y="135" on="1"/>
        <pt x="657" y="135" on="0"/>
        <pt x="846" y="277" on="0"/>
        <pt x="871" y="398" on="1"/>
        <pt x="1024" y="1165" on="1"/>
      </contour>
    </TTGlyph>
    <TTGlyph name="Uacute" xMin="100" yMin="-21" xMax="1372" yMax="1823">
      <component glyphName="U" x="0" y="0" flags="0x204"/>
      <component glyphName="acute" x="543" y="345" flags="0x4"/>
    </TTGlyph>
    <TTGlyph name="Uacute.smcp" xMin="86" yMin="-17" xMax="1216" yMax="1501">
      <component glyphName="U.smcp" x="0" y="0" flags="0x204"/>
      <component glyphName="acute" x="412" y="23" flags="0x4"/>
    </TTGlyph>
    <TTGlyph name="Ubreve" xMin="100" yMin="-21" xMax="1372" yMax="1870">
      <component glyphName="U" x="0" y="0" flags="0x204"/>
      <component glyphName="breve" x="365" y="414" flags="0x4"/>
    </TTGlyph>
    <TTGlyph name="Ubreve.smcp" xMin="86" yMin="-17" xMax="1216" yMax="1548">
      <component glyphName="U.smcp" x="0" y="0" flags="0x204"/>
      <component glyphName="breve" x="234" y="92" flags="0x4"/>
    </TTGlyph>
    <TTGlyph name="Ucircumflex" xMin="100" yMin="-21" xMax="1372" yMax="1864">
      <component glyphName="U" x="0" y="0" flags="0x204"/>
      <component glyphName="circumflex" x="268" y="349" flags="0x4"/>
    </TTGlyph>
    <TTGlyph name="Ucircumflex.smcp" xMin="86" yMin="-17" xMax="1216" yMax="1542">
      <component glyphName="U.smcp" x="0" y="0" flags="0x204"/>
      <component glyphName="circumflex" x="137" y="27" flags="0x4"/>
    </TTGlyph>
    <TTGlyph name="Udieresis" xMin="100" yMin="-21" xMax="1372" yMax="1805">
      <component glyphName="U" x="0" y="0" flags="0x204"/>
      <component glyphName="dieresis" x="270" y="349" flags="0x4"/>
    </TTGlyph>
    <TTGlyph name="Udieresis.smcp" xMin="86" yMin="-17" xMax="1216" yMax="1483">
      <component glyphName="U.smcp" x="0" y="0" flags="0x204"/>
      <component glyphName="dieresis" x="139" y="27" flags="0x4"/>
    </TTGlyph>
    <TTGlyph name="Ugrave" xMin="100" yMin="-21" xMax="1372" yMax="1826">
      <component glyphName="U" x="0" y="0" flags="0x204"/>
      <component glyphName="grave" x="371" y="349" flags="0x4"/>
    </TTGlyph>
    <TTGlyph name="Ugrave.smcp" xMin="86" yMin="-17" xMax="1216" yMax="1504">
      <component glyphName="U.smcp" x="0" y="0" flags="0x204"/>
      <component glyphName="grave" x="240" y="27" flags="0x4"/>
    </TTGlyph>
    <TTGlyph name="Uhorn" xMin="100" yMin="-21" xMax="1749" yMax="1589">
      <contour>
        <pt x="1372" y="1456" on="1"/>
        <pt x="1338" y="1286" on="1"/>
        <pt x="1343" y="1284" on="1"/>
        <pt x="1421" y="1313" on="0"/>
        <pt x="1538" y="1473" on="0"/>
        <pt x="1561" y="1589" on="1"/>
        <pt x="1746" y="1589" on="1"/>
        <pt x="1749" y="1583" on="1"/>
        <pt x="1710" y="1379" on="0"/>
        <pt x="1484" y="1146" on="0"/>
        <pt x="1304" y="1115" on="1"/>
        <pt x="1175" y="469" on="1"/>
        <pt x="1124" y="215" on="0"/>
        <pt x="793" y="-21" on="0"/>
        <pt x="554" y="-21" on="1"/>
        <pt x="343" y="-21" on="0"/>
        <pt x="100" y="236" on="0"/>
        <pt x="148" y="469" on="1"/>
        <pt x="345" y="1456" on="1"/>
        <pt x="538" y="1456" on="1"/>
        <pt x="341" y="469" on="1"/>
        <pt x="305" y="293" on="0"/>
        <pt x="441" y="133" on="0"/>
        <pt x="585" y="133" on="1"/>
        <pt x="725" y="133" on="0"/>
        <pt x="949" y="306" on="0"/>
        <pt x="982" y="469" on="1"/>
        <pt x="1179" y="1456" on="1"/>
      </contour>
    </TTGlyph>
    <TTGlyph name="Uhungarumlaut" xMin="100" yMin="-21" xMax="1417" yMax="1867">
      <component glyphName="U" x="0" y="0" flags="0x204"/>
      <component glyphName="hungarumlaut" x="405" y="349" flags="0x4"/>
    </TTGlyph>
    <TTGlyph name="Uhungarumlaut.smcp" xMin="86" yMin="-17" xMax="1286" yMax="1545">
      <component glyphName="U.smcp" x="0" y="0" flags="0x204"/>
      <component glyphName="hungarumlaut" x="274" y="27" flags="0x4"/>
    </TTGlyph>
    <TTGlyph name="Umacron" xMin="100" yMin="-21" xMax="1372" yMax="1786">
      <component glyphName="U" x="0" y="0" flags="0x204"/>
      <component glyphName="macron" x="301" y="330" flags="0x4"/>
    </TTGlyph>
    <TTGlyph name="Umacron.smcp" xMin="86" yMin="-17" xMax="1216" yMax="1464">
      <component glyphName="U.smcp" x="0" y="0" flags="0x204"/>
      <component glyphName="macron" x="170" y="8" flags="0x4"/>
    </TTGlyph>
    <TTGlyph name="Uogonek" xMin="100" yMin="-432" xMax="1372" yMax="1456">
      <component glyphName="U" x="0" y="0" flags="0x204"/>
      <component glyphName="ogonek" x="553" y="0" flags="0x4"/>
    </TTGlyph>
    <TTGlyph name="Uogonek.smcp" xMin="86" yMin="-432" xMax="1216" yMax="1165">
      <component glyphName="U.smcp" x="0" y="0" flags="0x204"/>
      <component glyphName="ogonek" x="505" y="0" flags="0x4"/>
    </TTGlyph>
    <TTGlyph name="Upsilon" xMin="238" yMin="0" xMax="1367" yMax="1456">
      <component glyphName="Y" x="0" y="0" flags="0x204"/>
    </TTGlyph>
    <TTGlyph name="Upsilondieresis" xMin="238" yMin="0" xMax="1367" yMax="1804">
      <component glyphName="Y" x="0" y="0" flags="0x204"/>
      <component glyphName="dieresis" x="214" y="348" flags="0x4"/>
    </TTGlyph>
    <TTGlyph name="Upsilontonos" xMin="71" yMin="0" xMax="1467" yMax="1660">
      <component glyphName="Y" x="100" y="0" flags="0x4"/>
      <component glyphName="tonos" x="-285" y="0" flags="0x4"/>
    </TTGlyph>
    <TTGlyph name="Uring" xMin="100" yMin="-21" xMax="1372" yMax="1932">
      <component glyphName="U" x="0" y="0" flags="0x204"/>
      <component glyphName="ring" x="415" y="426" flags="0x4"/>
    </TTGlyph>
    <TTGlyph name="Uring.smcp" xMin="86" yMin="-17" xMax="1216" yMax="1610">
      <component glyphName="U.smcp" x="0" y="0" flags="0x204"/>
      <component glyphName="ring" x="284" y="104" flags="0x4"/>
    </TTGlyph>
    <TTGlyph name="Utilde" xMin="100" yMin="-21" xMax="1372" yMax="1876">
      <component glyphName="U" x="0" y="0" flags="0x204"/>
      <component glyphName="tilde" x="301" y="353" flags="0x4"/>
    </TTGlyph>
    <TTGlyph name="Utilde.smcp" xMin="86" yMin="-17" xMax="1216" yMax="1554">
      <component glyphName="U.smcp" x="0" y="0" flags="0x204"/>
      <component glyphName="tilde" x="170" y="31" flags="0x4"/>
    </TTGlyph>
    <TTGlyph name="V" xMin="196" yMin="0" xMax="1366" yMax="1456">
      <contour>
        <pt x="572" y="362" on="1"/>
        <pt x="585" y="253" on="1"/>
        <pt x="591" y="252" on="1"/>
        <pt x="639" y="362" on="1"/>
        <pt x="1157" y="1456" on="1"/>
        <pt x="1366" y="1456" on="1"/>
        <pt x="630" y="0" on="1"/>
        <pt x="465" y="0" on="1"/>
        <pt x="196" y="1456" on="1"/>
        <pt x="404" y="1456" on="1"/>
      </contour>
    </TTGlyph>
    <TTGlyph name="V.smcp" xMin="187" yMin="0" xMax="1232" yMax="1165">
      <contour>
        <pt x="511" y="297" on="1"/>
        <pt x="516" y="217" on="1"/>
        <pt x="522" y="216" on="1"/>
        <pt x="560" y="295" on="1"/>
        <pt x="1025" y="1165" on="1"/>
        <pt x="1232" y="1165" on="1"/>
        <pt x="566" y="0" on="1"/>
        <pt x="386" y="0" on="1"/>
        <pt x="187" y="1165" on="1"/>
        <pt x="394" y="1165" on="1"/>
      </contour>
    </TTGlyph>
    <TTGlyph name="W" xMin="218" yMin="0" xMax="1785" yMax="1456">
      <contour>
        <pt x="458" y="504" on="1"/>
        <pt x="454" y="336" on="1"/>
        <pt x="459" y="335" on="1"/>
        <pt x="521" y="504" on="1"/>
        <pt x="916" y="1456" on="1"/>
        <pt x="1086" y="1456" on="1"/>
        <pt x="1179" y="504" on="1"/>
        <pt x="1185" y="331" on="1"/>
        <pt x="1191" y="330" on="1"/>
        <pt x="1245" y="504" on="1"/>
        <pt x="1593" y="1456" on="1"/>
        <pt x="1785" y="1456" on="1"/>
        <pt x="1229" y="0" on="1"/>
        <pt x="1057" y="0" on="1"/>
        <pt x="957" y="1010" on="1"/>
        <pt x="953" y="1130" on="1"/>
        <pt x="948" y="1131" on="1"/>
        <pt x="907" y="1010" on="1"/>
        <pt x="479" y="0" on="1"/>
        <pt x="307" y="0" on="1"/>
        <pt x="218" y="1456" on="1"/>
        <pt x="410" y="1456" on="1"/>
      </contour>
    </TTGlyph>
    <TTGlyph name="W.smcp" xMin="210" yMin="0" xMax="1522" yMax="1165">
      <contour>
        <pt x="978" y="296" on="1"/>
        <pt x="984" y="295" on="1"/>
        <pt x="1315" y="1165" on="1"/>
        <pt x="1522" y="1165" on="1"/>
        <pt x="1018" y="0" on="1"/>
        <pt x="840" y="0" on="1"/>
        <pt x="804" y="837" on="1"/>
        <pt x="798" y="838" on="1"/>
        <pt x="424" y="0" on="1"/>
        <pt x="248" y="0" on="1"/>
        <pt x="210" y="1165" on="1"/>
        <pt x="417" y="1165" on="1"/>
        <pt x="400" y="297" on="1"/>
        <pt x="406" y="295" on="1"/>
        <pt x="777" y="1165" on="1"/>
        <pt x="956" y="1165" on="1"/>
      </contour>
    </TTGlyph>
    <TTGlyph name="Wacute" xMin="218" yMin="0" xMax="1785" yMax="1823">
      <component glyphName="W" x="0" y="0" flags="0x204"/>
      <component glyphName="acute" x="679" y="345" flags="0x4"/>
    </TTGlyph>
    <TTGlyph name="Wcircumflex" xMin="218" yMin="0" xMax="1785" yMax="1864">
      <component glyphName="W" x="0" y="0" flags="0x204"/>
      <component glyphName="circumflex" x="404" y="349" flags="0x4"/>
    </TTGlyph>
    <TTGlyph name="Wcircumflex.smcp" xMin="210" yMin="0" xMax="1522" yMax="1541">
      <component glyphName="W.smcp" x="0" y="0" flags="0x204"/>
      <component glyphName="circumflex" x="262" y="26" flags="0x4"/>
    </TTGlyph>
    <TTGlyph name="Wdieresis" xMin="218" yMin="0" xMax="1785" yMax="1805">
      <component glyphName="W" x="0" y="0" flags="0x204"/>
      <component glyphName="dieresis" x="406" y="349" flags="0x4"/>
    </TTGlyph>
    <TTGlyph name="Wgrave" xMin="218" yMin="0" xMax="1785" yMax="1826">
      <component glyphName="W" x="0" y="0" flags="0x204"/>
      <component glyphName="grave" x="507" y="349" flags="0x4"/>
    </TTGlyph>
    <TTGlyph name="X" xMin="-3" yMin="0" xMax="1316" yMax="1456">
      <contour>
        <pt x="684" y="888" on="1"/>
        <pt x="1082" y="1456" on="1"/>
        <pt x="1316" y="1456" on="1"/>
        <pt x="773" y="734" on="1"/>
        <pt x="1091" y="0" on="1"/>
        <pt x="861" y="0" on="1"/>
        <pt x="638" y="578" on="1"/>
        <pt x="231" y="0" on="1"/>
        <pt x="-3" y="0" on="1"/>
        <pt x="550" y="734" on="1"/>
        <pt x="239" y="1456" on="1"/>
        <pt x="470" y="1456" on="1"/>
      </contour>
    </TTGlyph>
    <TTGlyph name="X.smcp" xMin="-25" yMin="0" xMax="1158" yMax="1165">
      <contour>
        <pt x="597" y="732" on="1"/>
        <pt x="934" y="1165" on="1"/>
        <pt x="1155" y="1165" on="1"/>
        <pt x="1158" y="1160" on="1"/>
        <pt x="686" y="588" on="1"/>
        <pt x="937" y="0" on="1"/>
        <pt x="712" y="0" on="1"/>
        <pt x="542" y="442" on="1"/>
        <pt x="199" y="0" on="1"/>
        <pt x="-23" y="0" on="1"/>
        <pt x="-25" y="5" on="1"/>
        <pt x="459" y="588" on="1"/>
        <pt x="211" y="1165" on="1"/>
        <pt x="439" y="1165" on="1"/>
      </contour>
    </TTGlyph>
    <TTGlyph name="Xi" xMin="35" yMin="0" xMax="1191" yMax="1456">
      <contour>
        <pt x="66" y="154" on="1"/>
        <pt x="940" y="154" on="1"/>
        <pt x="909" y="0" on="1"/>
        <pt x="35" y="0" on="1"/>
      </contour>
      <contour>
        <pt x="278" y="833" on="1"/>
        <pt x="991" y="833" on="1"/>
        <pt x="960" y="678" on="1"/>
        <pt x="247" y="678" on="1"/>
      </contour>
      <contour>
        <pt x="326" y="1456" on="1"/>
        <pt x="1191" y="1456" on="1"/>
        <pt x="1160" y="1301" on="1"/>
        <pt x="295" y="1301" on="1"/>
      </contour>
    </TTGlyph>
    <TTGlyph name="Y" xMin="238" yMin="0" xMax="1367" yMax="1456">
      <contour>
        <pt x="656" y="739" on="1"/>
        <pt x="662" y="738" on="1"/>
        <pt x="1148" y="1456" on="1"/>
        <pt x="1367" y="1456" on="1"/>
        <pt x="707" y="513" on="1"/>
        <pt x="604" y="0" on="1"/>
        <pt x="412" y="0" on="1"/>
        <pt x="517" y="526" on="1"/>
        <pt x="238" y="1456" on="1"/>
        <pt x="458" y="1456" on="1"/>
      </contour>
    </TTGlyph>
    <TTGlyph name="Y.smcp" xMin="179" yMin="0" xMax="1158" yMax="1165">
      <contour>
        <pt x="554" y="607" on="1"/>
        <pt x="560" y="606" on="1"/>
        <pt x="942" y="1165" on="1"/>
        <pt x="1158" y="1165" on="1"/>
        <pt x="611" y="411" on="1"/>
        <pt x="529" y="0" on="1"/>
        <pt x="336" y="0" on="1"/>
        <pt x="420" y="421" on="1"/>
        <pt x="179" y="1165" on="1"/>
        <pt x="395" y="1165" on="1"/>
      </contour>
    </TTGlyph>
    <TTGlyph name="Yacute" xMin="238" yMin="0" xMax="1367" yMax="1822">
      <component glyphName="Y" x="0" y="0" flags="0x204"/>
      <component glyphName="acute" x="487" y="344" flags="0x4"/>
    </TTGlyph>
    <TTGlyph name="Yacute.smcp" xMin="179" yMin="0" xMax="1158" yMax="1499">
      <component glyphName="Y.smcp" x="0" y="0" flags="0x204"/>
      <component glyphName="acute" x="341" y="21" flags="0x4"/>
    </TTGlyph>
    <TTGlyph name="Ycircumflex" xMin="238" yMin="0" xMax="1367" yMax="1863">
      <component glyphName="Y" x="0" y="0" flags="0x204"/>
      <component glyphName="circumflex" x="212" y="348" flags="0x4"/>
    </TTGlyph>
    <TTGlyph name="Ycircumflex.smcp" xMin="179" yMin="0" xMax="1158" yMax="1540">
      <component glyphName="Y.smcp" x="0" y="0" flags="0x204"/>
      <component glyphName="circumflex" x="66" y="25" flags="0x4"/>
    </TTGlyph>
    <TTGlyph name="Ydieresis" xMin="238" yMin="0" xMax="1367" yMax="1804">
      <component glyphName="Y" x="0" y="0" flags="0x204"/>
      <component glyphName="dieresis" x="214" y="348" flags="0x4"/>
    </TTGlyph>
    <TTGlyph name="Ydieresis.smcp" xMin="179" yMin="0" xMax="1158" yMax="1481">
      <component glyphName="Y.smcp" x="0" y="0" flags="0x204"/>
      <component glyphName="dieresis" x="68" y="25" flags="0x4"/>
    </TTGlyph>
    <TTGlyph name="Ygrave" xMin="238" yMin="0" xMax="1367" yMax="1825">
      <component glyphName="Y" x="0" y="0" flags="0x204"/>
      <component glyphName="grave" x="315" y="348" flags="0x4"/>
    </TTGlyph>
    <TTGlyph name="Z" xMin="35" yMin="0" xMax="1116" yMax="1456">
      <contour>
        <pt x="260" y="154" on="1"/>
        <pt x="943" y="154" on="1"/>
        <pt x="912" y="0" on="1"/>
        <pt x="35" y="0" on="1"/>
        <pt x="44" y="146" on="1"/>
        <pt x="867" y="1301" on="1"/>
        <pt x="253" y="1301" on="1"/>
        <pt x="284" y="1456" on="1"/>
        <pt x="1116" y="1456" on="1"/>
        <pt x="1088" y="1315" on="1"/>
      </contour>
    </TTGlyph>
    <TTGlyph name="Z.smcp" xMin="-7" yMin="0" xMax="1046" yMax="1165">
      <contour>
        <pt x="255" y="157" on="1"/>
        <pt x="257" y="152" on="1"/>
        <pt x="865" y="152" on="1"/>
        <pt x="835" y="0" on="1"/>
        <pt x="-7" y="0" on="1"/>
        <pt x="17" y="118" on="1"/>
        <pt x="781" y="1007" on="1"/>
        <pt x="779" y="1012" on="1"/>
        <pt x="227" y="1012" on="1"/>
        <pt x="258" y="1165" on="1"/>
        <pt x="1046" y="1165" on="1"/>
        <pt x="1023" y="1051" on="1"/>
      </contour>
    </TTGlyph>
    <TTGlyph name="Zacute" xMin="35" yMin="0" xMax="1151" yMax="1823">
      <component glyphName="Z" x="0" y="0" flags="0x4"/>
      <component glyphName="acute" x="461" y="345" flags="0x4"/>
    </TTGlyph>
    <TTGlyph name="Zacute.smcp" xMin="-7" yMin="0" xMax="1046" yMax="1500">
      <component glyphName="Z.smcp" x="0" y="0" flags="0x204"/>
      <component glyphName="acute" x="307" y="22" flags="0x4"/>
    </TTGlyph>
    <TTGlyph name="Zcaron" xMin="35" yMin="0" xMax="1157" yMax="1865">
      <component glyphName="Z" x="0" y="0" flags="0x4"/>
      <component glyphName="caron" x="209" y="350" flags="0x4"/>
    </TTGlyph>
    <TTGlyph name="Zcaron.smcp" xMin="-7" yMin="0" xMax="1046" yMax="1542">
      <component glyphName="Z.smcp" x="0" y="0" flags="0x204"/>
      <component glyphName="caron" x="55" y="27" flags="0x4"/>
    </TTGlyph>
    <TTGlyph name="Zdotaccent" xMin="35" yMin="0" xMax="1116" yMax="1805">
      <component glyphName="Z" x="0" y="0" flags="0x4"/>
      <component glyphName="dotaccent" x="380" y="349" flags="0x4"/>
    </TTGlyph>
    <TTGlyph name="Zdotaccent.smcp" xMin="-7" yMin="0" xMax="1046" yMax="1482">
      <component glyphName="Z.smcp" x="0" y="0" flags="0x204"/>
      <component glyphName="dotaccent" x="226" y="26" flags="0x4"/>
    </TTGlyph>
    <TTGlyph name="Zeta" xMin="35" yMin="0" xMax="1116" yMax="1456">
      <component glyphName="Z" x="0" y="0" flags="0x4"/>
    </TTGlyph>
    <TTGlyph name="a" xMin="60" yMin="-21" xMax="1022" yMax="1102">
      <contour>
        <pt x="667" y="0" on="1"/>
        <pt x="667" y="49" on="0"/>
        <pt x="671" y="112" on="0"/>
        <pt x="676" y="145" on="1"/>
        <pt x="609" y="74" on="0"/>
        <pt x="436" y="-21" on="0"/>
        <pt x="349" y="-21" on="1"/>
        <pt x="201" y="-21" on="0"/>
        <pt x="60" y="156" on="0"/>
        <pt x="91" y="304" on="1"/>
        <pt x="123" y="469" on="0"/>
        <pt x="384" y="634" on="0"/>
        <pt x="588" y="634" on="1"/>
        <pt x="773" y="634" on="1"/>
        <pt x="794" y="741" on="1"/>
        <pt x="814" y="842" on="0"/>
        <pt x="730" y="947" on="0"/>
        <pt x="632" y="947" on="1"/>
        <pt x="548" y="947" on="0"/>
        <pt x="412" y="848" on="0"/>
        <pt x="399" y="782" on="1"/>
        <pt x="216" y="782" on="1"/>
        <pt x="214" y="788" on="1"/>
        <pt x="234" y="913" on="0"/>
        <pt x="494" y="1102" on="0"/>
        <pt x="674" y="1102" on="1"/>
        <pt x="835" y="1102" on="0"/>
        <pt x="1022" y="911" on="0"/>
        <pt x="988" y="739" on="1"/>
        <pt x="884" y="218" on="1"/>
        <pt x="871" y="157" on="0"/>
        <pt x="861" y="53" on="0"/>
        <pt x="866" y="0" on="1"/>
      </contour>
      <contour>
        <pt x="411" y="144" on="1"/>
        <pt x="492" y="144" on="0"/>
        <pt x="660" y="238" on="0"/>
        <pt x="706" y="302" on="1"/>
        <pt x="746" y="501" on="1"/>
        <pt x="555" y="501" on="1"/>
        <pt x="456" y="501" on="0"/>
        <pt x="298" y="379" on="0"/>
        <pt x="283" y="300" on="1"/>
        <pt x="267" y="223" on="0"/>
        <pt x="329" y="144" on="0"/>
      </contour>
    </TTGlyph>
    <TTGlyph name="aacute" xMin="60" yMin="-21" xMax="1039" yMax="1501">
      <component glyphName="a" x="0" y="0" flags="0x204"/>
      <component glyphName="acute" x="349" y="23" flags="0x4"/>
    </TTGlyph>
    <TTGlyph name="abreve" xMin="60" yMin="-21" xMax="1022" yMax="1548">
      <component glyphName="a" x="0" y="0" flags="0x204"/>
      <component glyphName="breve" x="171" y="92" flags="0x4"/>
    </TTGlyph>
    <TTGlyph name="acircumflex" xMin="60" yMin="-21" xMax="1022" yMax="1542">
      <component glyphName="a" x="0" y="0" flags="0x204"/>
      <component glyphName="circumflex" x="74" y="27" flags="0x4"/>
    </TTGlyph>
    <TTGlyph name="acute" xMin="253" yMin="1212" xMax="690" yMax="1478">
      <contour>
        <pt x="464" y="1478" on="1"/>
        <pt x="688" y="1478" on="1"/>
        <pt x="690" y="1472" on="1"/>
        <pt x="395" y="1212" on="1"/>
        <pt x="253" y="1212" on="1"/>
      </contour>
    </TTGlyph>
    <TTGlyph name="acutecomb" xMin="-455" yMin="1210" xMax="-92" yMax="1559">
      <contour>
        <pt x="-269" y="1559" on="1"/>
        <pt x="-92" y="1559" on="1"/>
        <pt x="-339" y="1210" on="1"/>
        <pt x="-455" y="1210" on="1"/>
      </contour>
    </TTGlyph>
    <TTGlyph name="adieresis" xMin="60" yMin="-21" xMax="1050" yMax="1483">
      <component glyphName="a" x="0" y="0" flags="0x204"/>
      <component glyphName="dieresis" x="76" y="27" flags="0x4"/>
    </TTGlyph>
    <TTGlyph name="ae" xMin="2" yMin="-21" xMax="1631" yMax="1102">
      <contour>
        <pt x="1089" y="-21" on="1"/>
        <pt x="971" y="-21" on="0"/>
        <pt x="796" y="78" on="0"/>
        <pt x="749" y="169" on="1"/>
        <pt x="681" y="89" on="0"/>
        <pt x="449" y="-21" on="0"/>
        <pt x="298" y="-21" on="1"/>
        <pt x="150" y="-21" on="0"/>
        <pt x="2" y="157" on="0"/>
        <pt x="32" y="304" on="1"/>
        <pt x="65" y="472" on="0"/>
        <pt x="308" y="635" on="0"/>
        <pt x="518" y="635" on="1"/>
        <pt x="727" y="635" on="1"/>
        <pt x="744" y="720" on="1"/>
        <pt x="766" y="833" on="0"/>
        <pt x="698" y="947" on="0"/>
        <pt x="609" y="947" on="1"/>
        <pt x="523" y="947" on="0"/>
        <pt x="386" y="836" on="0"/>
        <pt x="371" y="759" on="1"/>
        <pt x="192" y="777" on="1"/>
        <pt x="190" y="783" on="1"/>
        <pt x="214" y="930" on="0"/>
        <pt x="458" y="1102" on="0"/>
        <pt x="640" y="1102" on="1"/>
        <pt x="736" y="1102" on="0"/>
        <pt x="882" y="1025" on="0"/>
        <pt x="918" y="952" on="1"/>
        <pt x="991" y="1025" on="0"/>
        <pt x="1171" y="1102" on="0"/>
        <pt x="1267" y="1102" on="1"/>
        <pt x="1455" y="1102" on="0"/>
        <pt x="1631" y="837" on="0"/>
        <pt x="1587" y="614" on="1"/>
        <pt x="1563" y="495" on="1"/>
        <pt x="902" y="495" on="1"/>
        <pt x="872" y="324" on="0"/>
        <pt x="976" y="133" on="0"/>
        <pt x="1120" y="133" on="1"/>
        <pt x="1209" y="133" on="0"/>
        <pt x="1355" y="192" on="0"/>
        <pt x="1432" y="239" on="1"/>
        <pt x="1469" y="101" on="1"/>
        <pt x="1414" y="58" on="0"/>
        <pt x="1220" y="-21" on="0"/>
      </contour>
      <contour>
        <pt x="368" y="133" on="1"/>
        <pt x="432" y="133" on="0"/>
        <pt x="604" y="221" on="0"/>
        <pt x="656" y="277" on="1"/>
        <pt x="699" y="493" on="1"/>
        <pt x="492" y="493" on="1"/>
        <pt x="392" y="493" on="0"/>
        <pt x="240" y="378" on="0"/>
        <pt x="225" y="300" on="1"/>
        <pt x="209" y="221" on="0"/>
        <pt x="279" y="133" on="0"/>
      </contour>
      <contour>
        <pt x="1236" y="947" on="1"/>
        <pt x="1141" y="947" on="0"/>
        <pt x="978" y="776" on="0"/>
        <pt x="940" y="646" on="1"/>
        <pt x="943" y="640" on="1"/>
        <pt x="1399" y="640" on="1"/>
        <pt x="1405" y="671" on="1"/>
        <pt x="1431" y="800" on="0"/>
        <pt x="1355" y="947" on="0"/>
      </contour>
    </TTGlyph>
    <TTGlyph name="aeacute" xMin="2" yMin="-21" xMax="1631" yMax="1502">
      <component glyphName="ae" x="0" y="0" flags="0x204"/>
      <component glyphName="acute" x="630" y="24" flags="0x4"/>
    </TTGlyph>
    <TTGlyph name="agrave" xMin="60" yMin="-21" xMax="1022" yMax="1504">
      <component glyphName="a" x="0" y="0" flags="0x204"/>
      <component glyphName="grave" x="177" y="27" flags="0x4"/>
    </TTGlyph>
    <TTGlyph name="alpha" xMin="63" yMin="-21" xMax="1081" yMax="1102">
      <contour>
        <pt x="1081" y="1082" on="1"/>
        <pt x="924" y="296" on="1"/>
        <pt x="906" y="207" on="0"/>
        <pt x="930" y="148" on="0"/>
        <pt x="962" y="148" on="1"/>
        <pt x="968" y="148" on="0"/>
        <pt x="985" y="151" on="0"/>
        <pt x="990" y="154" on="1"/>
        <pt x="986" y="13" on="1"/>
        <pt x="952" y="-7" on="0"/>
        <pt x="892" y="-21" on="0"/>
        <pt x="857" y="-21" on="1"/>
        <pt x="796" y="-21" on="0"/>
        <pt x="722" y="53" on="0"/>
        <pt x="716" y="131" on="1"/>
        <pt x="652" y="56" on="0"/>
        <pt x="494" y="-21" on="0"/>
        <pt x="399" y="-21" on="1"/>
        <pt x="226" y="-21" on="0"/>
        <pt x="63" y="271" on="0"/>
        <pt x="109" y="500" on="1"/>
        <pt x="113" y="521" on="1"/>
        <pt x="168" y="799" on="0"/>
        <pt x="434" y="1102" on="0"/>
        <pt x="625" y="1102" on="1"/>
        <pt x="712" y="1102" on="0"/>
        <pt x="837" y="1022" on="0"/>
        <pt x="873" y="947" on="1"/>
        <pt x="918" y="1082" on="1"/>
      </contour>
      <contour>
        <pt x="303" y="500" on="1"/>
        <pt x="268" y="326" on="0"/>
        <pt x="350" y="133" on="0"/>
        <pt x="480" y="133" on="1"/>
        <pt x="552" y="133" on="0"/>
        <pt x="678" y="224" on="0"/>
        <pt x="732" y="306" on="1"/>
        <pt x="827" y="780" on="1"/>
        <pt x="806" y="858" on="0"/>
        <pt x="718" y="947" on="0"/>
        <pt x="644" y="947" on="1"/>
        <pt x="523" y="947" on="0"/>
        <pt x="343" y="703" on="0"/>
        <pt x="307" y="521" on="1"/>
      </contour>
    </TTGlyph>
    <TTGlyph name="alpha.alt" xMin="63" yMin="-21" xMax="1176" yMax="1102">
      <contour>
        <pt x="793" y="217" on="1"/>
        <pt x="720" y="100" on="0"/>
        <pt x="524" y="-21" on="0"/>
        <pt x="399" y="-21" on="1"/>
        <pt x="226" y="-21" on="0"/>
        <pt x="63" y="271" on="0"/>
        <pt x="109" y="500" on="1"/>
        <pt x="113" y="521" on="1"/>
        <pt x="168" y="799" on="0"/>
        <pt x="434" y="1102" on="0"/>
        <pt x="625" y="1102" on="1"/>
        <pt x="740" y="1102" on="0"/>
        <pt x="889" y="978" on="0"/>
        <pt x="919" y="863" on="1"/>
        <pt x="992" y="1082" on="1"/>
        <pt x="1176" y="1082" on="1"/>
        <pt x="966" y="540" on="1"/>
        <pt x="966" y="0" on="1"/>
        <pt x="782" y="0" on="1"/>
      </contour>
      <contour>
        <pt x="303" y="500" on="1"/>
        <pt x="268" y="326" on="0"/>
        <pt x="350" y="133" on="0"/>
        <pt x="480" y="133" on="1"/>
        <pt x="577" y="133" on="0"/>
        <pt x="742" y="349" on="0"/>
        <pt x="808" y="523" on="1"/>
        <pt x="811" y="539" on="1"/>
        <pt x="811" y="540" on="1"/>
        <pt x="814" y="556" on="1"/>
        <pt x="825" y="724" on="0"/>
        <pt x="747" y="947" on="0"/>
        <pt x="644" y="947" on="1"/>
        <pt x="523" y="947" on="0"/>
        <pt x="343" y="703" on="0"/>
        <pt x="307" y="521" on="1"/>
      </contour>
    </TTGlyph>
    <TTGlyph name="alphatonos" xMin="63" yMin="-21" xMax="1081" yMax="1667">
      <component glyphName="alpha" x="0" y="0" flags="0x204"/>
      <component glyphName="tonos" x="348" y="7" flags="0x4"/>
    </TTGlyph>
    <TTGlyph name="amacron" xMin="60" yMin="-21" xMax="1069" yMax="1464">
      <component glyphName="a" x="0" y="0" flags="0x204"/>
      <component glyphName="macron" x="107" y="8" flags="0x4"/>
    </TTGlyph>
    <TTGlyph name="ampersand" xMin="24" yMin="-21" xMax="1162" yMax="1477">
      <contour>
        <pt x="54" y="392" on="1"/>
        <pt x="74" y="518" on="0"/>
        <pt x="232" y="695" on="0"/>
        <pt x="380" y="788" on="1"/>
        <pt x="321" y="887" on="0"/>
        <pt x="274" y="1043" on="0"/>
        <pt x="288" y="1125" on="1"/>
        <pt x="315" y="1300" on="0"/>
        <pt x="525" y="1477" on="0"/>
        <pt x="688" y="1477" on="1"/>
        <pt x="831" y="1477" on="0"/>
        <pt x="995" y="1293" on="0"/>
        <pt x="976" y="1167" on="1"/>
        <pt x="959" y="1065" on="0"/>
        <pt x="839" y="928" on="0"/>
        <pt x="727" y="851" on="1"/>
        <pt x="617" y="773" on="1"/>
        <pt x="862" y="370" on="1"/>
        <pt x="910" y="435" on="0"/>
        <pt x="976" y="588" on="0"/>
        <pt x="990" y="673" on="1"/>
        <pt x="1162" y="673" on="1"/>
        <pt x="1139" y="536" on="0"/>
        <pt x="1033" y="318" on="0"/>
        <pt x="948" y="230" on="1"/>
        <pt x="1088" y="0" on="1"/>
        <pt x="857" y="0" on="1"/>
        <pt x="798" y="98" on="1"/>
        <pt x="714" y="40" on="0"/>
        <pt x="527" y="-21" on="0"/>
        <pt x="432" y="-21" on="1"/>
        <pt x="236" y="-21" on="0"/>
        <pt x="24" y="211" on="0"/>
      </contour>
      <contour>
        <pt x="456" y="133" on="1"/>
        <pt x="519" y="133" on="0"/>
        <pt x="655" y="182" on="0"/>
        <pt x="719" y="228" on="1"/>
        <pt x="458" y="661" on="1"/>
        <pt x="419" y="634" on="1"/>
        <pt x="326" y="566" on="0"/>
        <pt x="255" y="442" on="0"/>
        <pt x="247" y="392" on="1"/>
        <pt x="228" y="275" on="0"/>
        <pt x="333" y="133" on="0"/>
      </contour>
      <contour>
        <pt x="481" y="1127" on="1"/>
        <pt x="472" y="1073" on="0"/>
        <pt x="504" y="961" on="0"/>
        <pt x="543" y="894" on="1"/>
        <pt x="680" y="986" on="1"/>
        <pt x="739" y="1024" on="0"/>
        <pt x="789" y="1112" on="0"/>
        <pt x="799" y="1167" on="1"/>
        <pt x="809" y="1231" on="0"/>
        <pt x="735" y="1322" on="0"/>
        <pt x="664" y="1322" on="1"/>
        <pt x="594" y="1322" on="0"/>
        <pt x="494" y="1208" on="0"/>
      </contour>
    </TTGlyph>
    <TTGlyph name="anoteleia" xMin="194" yMin="624" xMax="426" yMax="836">
      <component glyphName="periodcentered" x="0" y="0" flags="0x4"/>
    </TTGlyph>
    <TTGlyph name="aogonek" xMin="60" yMin="-432" xMax="1022" yMax="1102">
      <component glyphName="a" x="0" y="0" flags="0x204"/>
      <component glyphName="ogonek" x="557" y="0" flags="0x4"/>
    </TTGlyph>
    <TTGlyph name="approxequal" xMin="78" yMin="276" xMax="1087" yMax="1021">
      <contour>
        <pt x="198" y="874" on="1"/>
        <pt x="256" y="942" on="0"/>
        <pt x="386" y="1020" on="0"/>
        <pt x="447" y="1020" on="1"/>
        <pt x="511" y="1021" on="0"/>
        <pt x="567" y="996" on="0"/>
        <pt x="649" y="947" on="1"/>
        <pt x="721" y="903" on="0"/>
        <pt x="778" y="878" on="0"/>
        <pt x="839" y="878" on="1"/>
        <pt x="895" y="878" on="0"/>
        <pt x="1029" y="955" on="0"/>
        <pt x="1082" y="1020" on="1"/>
        <pt x="1087" y="1017" on="1"/>
        <pt x="1061" y="850" on="1"/>
        <pt x="1002" y="781" on="0"/>
        <pt x="872" y="704" on="0"/>
        <pt x="813" y="704" on="1"/>
        <pt x="756" y="704" on="0"/>
        <pt x="688" y="733" on="0"/>
        <pt x="624" y="773" on="1"/>
        <pt x="540" y="823" on="0"/>
        <pt x="485" y="847" on="0"/>
        <pt x="421" y="846" on="1"/>
        <pt x="364" y="846" on="0"/>
        <pt x="229" y="768" on="0"/>
        <pt x="178" y="704" on="1"/>
        <pt x="173" y="707" on="1"/>
      </contour>
      <contour>
        <pt x="103" y="447" on="1"/>
        <pt x="162" y="515" on="0"/>
        <pt x="292" y="593" on="0"/>
        <pt x="352" y="593" on="1"/>
        <pt x="416" y="594" on="0"/>
        <pt x="471" y="570" on="0"/>
        <pt x="555" y="520" on="1"/>
        <pt x="632" y="473" on="0"/>
        <pt x="682" y="450" on="0"/>
        <pt x="743" y="450" on="1"/>
        <pt x="799" y="450" on="0"/>
        <pt x="934" y="528" on="0"/>
        <pt x="986" y="593" on="1"/>
        <pt x="991" y="590" on="1"/>
        <pt x="966" y="422" on="1"/>
        <pt x="907" y="353" on="0"/>
        <pt x="777" y="276" on="0"/>
        <pt x="717" y="276" on="1"/>
        <pt x="661" y="276" on="0"/>
        <pt x="594" y="304" on="0"/>
        <pt x="529" y="345" on="1"/>
        <pt x="437" y="399" on="0"/>
        <pt x="390" y="420" on="0"/>
        <pt x="326" y="419" on="1"/>
        <pt x="269" y="419" on="0"/>
        <pt x="135" y="340" on="0"/>
        <pt x="83" y="276" on="1"/>
        <pt x="78" y="279" on="1"/>
      </contour>
    </TTGlyph>
    <TTGlyph name="aring" xMin="60" yMin="-21" xMax="1022" yMax="1610">
      <component glyphName="a" x="0" y="0" flags="0x204"/>
      <component glyphName="ring" x="221" y="104" flags="0x4"/>
    </TTGlyph>
    <TTGlyph name="aringacute" xMin="60" yMin="-21" xMax="1075" yMax="1763">
      <component glyphName="a" x="0" y="0" flags="0x204"/>
      <component glyphName="ringacute" x="237" y="113" flags="0x4"/>
    </TTGlyph>
    <TTGlyph name="asciicircum" xMin="121" yMin="729" xMax="806" yMax="1456">
      <contour>
        <pt x="300" y="729" on="1"/>
        <pt x="121" y="729" on="1"/>
        <pt x="544" y="1456" on="1"/>
        <pt x="674" y="1456" on="1"/>
        <pt x="806" y="729" on="1"/>
        <pt x="629" y="729" on="1"/>
        <pt x="563" y="1148" on="1"/>
        <pt x="562" y="1208" on="1"/>
        <pt x="556" y="1209" on="1"/>
        <pt x="531" y="1148" on="1"/>
      </contour>
    </TTGlyph>
    <TTGlyph name="asciitilde" xMin="128" yMin="401" xMax="1229" yMax="803">
      <contour>
        <pt x="1229" y="740" on="1"/>
        <pt x="1206" y="598" on="0"/>
        <pt x="1014" y="401" on="0"/>
        <pt x="890" y="401" on="1"/>
        <pt x="810" y="401" on="0"/>
        <pt x="680" y="468" on="0"/>
        <pt x="613" y="541" on="1"/>
        <pt x="566" y="589" on="0"/>
        <pt x="485" y="637" on="0"/>
        <pt x="439" y="637" on="1"/>
        <pt x="380" y="637" on="0"/>
        <pt x="273" y="530" on="0"/>
        <pt x="262" y="456" on="1"/>
        <pt x="128" y="474" on="1"/>
        <pt x="150" y="615" on="0"/>
        <pt x="340" y="803" on="0"/>
        <pt x="465" y="803" on="1"/>
        <pt x="543" y="803" on="0"/>
        <pt x="677" y="732" on="0"/>
        <pt x="743" y="664" on="1"/>
        <pt x="789" y="613" on="0"/>
        <pt x="870" y="567" on="0"/>
        <pt x="917" y="567" on="1"/>
        <pt x="975" y="567" on="0"/>
        <pt x="1084" y="682" on="0"/>
        <pt x="1096" y="758" on="1"/>
      </contour>
    </TTGlyph>
    <TTGlyph name="asterisk" xMin="160" yMin="607" xMax="929" yMax="1456">
      <contour>
        <pt x="412" y="982" on="1"/>
        <pt x="160" y="1071" on="1"/>
        <pt x="239" y="1225" on="1"/>
        <pt x="487" y="1114" on="1"/>
        <pt x="545" y="1456" on="1"/>
        <pt x="702" y="1456" on="1"/>
        <pt x="624" y="1108" on="1"/>
        <pt x="914" y="1218" on="1"/>
        <pt x="929" y="1062" on="1"/>
        <pt x="635" y="973" on="1"/>
        <pt x="757" y="703" on="1"/>
        <pt x="609" y="607" on="1"/>
        <pt x="503" y="894" on="1"/>
        <pt x="287" y="615" on="1"/>
        <pt x="177" y="708" on="1"/>
      </contour>
    </TTGlyph>
    <TTGlyph name="at" xMin="20" yMin="-453" xMax="1728" yMax="1431">
      <contour>
        <pt x="1628" y="502" on="1"/>
        <pt x="1577" y="288" on="0"/>
        <pt x="1309" y="-21" on="0"/>
        <pt x="1101" y="-21" on="1"/>
        <pt x="1038" y="-21" on="0"/>
        <pt x="953" y="63" on="0"/>
        <pt x="945" y="138" on="1"/>
        <pt x="882" y="58" on="0"/>
        <pt x="735" y="-21" on="0"/>
        <pt x="646" y="-21" on="1"/>
        <pt x="538" y="-21" on="0"/>
        <pt x="452" y="224" on="0"/>
        <pt x="506" y="416" on="1"/>
        <pt x="579" y="675" on="0"/>
        <pt x="854" y="988" on="0"/>
        <pt x="1007" y="988" on="1"/>
        <pt x="1099" y="988" on="0"/>
        <pt x="1219" y="933" on="0"/>
        <pt x="1275" y="882" on="1"/>
        <pt x="1271" y="878" on="1"/>
        <pt x="1277" y="878" on="1"/>
        <pt x="1113" y="293" on="1"/>
        <pt x="1082" y="183" on="0"/>
        <pt x="1120" y="100" on="0"/>
        <pt x="1167" y="100" on="1"/>
        <pt x="1271" y="100" on="0"/>
        <pt x="1460" y="332" on="0"/>
        <pt x="1501" y="502" on="1"/>
        <pt x="1593" y="884" on="0"/>
        <pt x="1382" y="1311" on="0"/>
        <pt x="1073" y="1311" on="1"/>
        <pt x="807" y="1311" on="0"/>
        <pt x="352" y="841" on="0"/>
        <pt x="266" y="478" on="1"/>
        <pt x="174" y="102" on="0"/>
        <pt x="395" y="-335" on="0"/>
        <pt x="684" y="-335" on="1"/>
        <pt x="761" y="-335" on="0"/>
        <pt x="944" y="-292" on="0"/>
        <pt x="1008" y="-257" on="1"/>
        <pt x="1023" y="-364" on="1"/>
        <pt x="951" y="-406" on="0"/>
        <pt x="748" y="-453" on="0"/>
        <pt x="657" y="-453" on="1"/>
        <pt x="326" y="-453" on="0"/>
        <pt x="20" y="54" on="0"/>
        <pt x="121" y="478" on="1"/>
        <pt x="223" y="901" on="0"/>
        <pt x="755" y="1431" on="0"/>
        <pt x="1101" y="1431" on="1"/>
        <pt x="1429" y="1431" on="0"/>
        <pt x="1728" y="922" on="0"/>
      </contour>
      <contour>
        <pt x="679" y="416" on="1"/>
        <pt x="641" y="274" on="0"/>
        <pt x="669" y="126" on="0"/>
        <pt x="735" y="126" on="1"/>
        <pt x="812" y="126" on="0"/>
        <pt x="887" y="177" on="1"/>
        <pt x="918" y="199" on="0"/>
        <pt x="948" y="234" on="1"/>
        <pt x="953" y="262" on="0"/>
        <pt x="962" y="293" on="1"/>
        <pt x="1113" y="833" on="1"/>
        <pt x="1092" y="844" on="0"/>
        <pt x="1044" y="857" on="0"/>
        <pt x="1017" y="857" on="1"/>
        <pt x="909" y="857" on="0"/>
        <pt x="740" y="634" on="0"/>
      </contour>
    </TTGlyph>
    <TTGlyph name="atilde" xMin="60" yMin="-21" xMax="1060" yMax="1554">
      <component glyphName="a" x="0" y="0" flags="0x204"/>
      <component glyphName="tilde" x="107" y="31" flags="0x4"/>
    </TTGlyph>
    <TTGlyph name="b" xMin="51" yMin="-21" xMax="1067" yMax="1560">
      <contour>
        <pt x="1013" y="480" on="1"/>
        <pt x="963" y="231" on="0"/>
        <pt x="725" y="-21" on="0"/>
        <pt x="538" y="-21" on="1"/>
        <pt x="453" y="-21" on="0"/>
        <pt x="311" y="75" on="0"/>
        <pt x="269" y="158" on="1"/>
        <pt x="218" y="0" on="1"/>
        <pt x="51" y="0" on="1"/>
        <pt x="363" y="1560" on="1"/>
        <pt x="556" y="1560" on="1"/>
        <pt x="441" y="984" on="1"/>
        <pt x="498" y="1041" on="0"/>
        <pt x="640" y="1102" on="0"/>
        <pt x="723" y="1102" on="1"/>
        <pt x="898" y="1102" on="0"/>
        <pt x="1067" y="756" on="0"/>
        <pt x="1017" y="501" on="1"/>
      </contour>
      <contour>
        <pt x="824" y="501" on="1"/>
        <pt x="863" y="697" on="0"/>
        <pt x="772" y="942" on="0"/>
        <pt x="641" y="942" on="1"/>
        <pt x="569" y="942" on="0"/>
        <pt x="446" y="850" on="0"/>
        <pt x="398" y="773" on="1"/>
        <pt x="303" y="295" on="1"/>
        <pt x="327" y="224" on="0"/>
        <pt x="435" y="139" on="0"/>
        <pt x="520" y="139" on="1"/>
        <pt x="638" y="139" on="0"/>
        <pt x="788" y="320" on="0"/>
        <pt x="820" y="480" on="1"/>
      </contour>
    </TTGlyph>
    <TTGlyph name="backslash" xMin="246" yMin="-125" xMax="677" yMax="1456">
      <contour>
        <pt x="246" y="1456" on="1"/>
        <pt x="428" y="1456" on="1"/>
        <pt x="677" y="-125" on="1"/>
        <pt x="495" y="-125" on="1"/>
      </contour>
    </TTGlyph>
    <TTGlyph name="bar" xMin="54" yMin="-270" xMax="485" yMax="1456">
      <contour>
        <pt x="209" y="-270" on="1"/>
        <pt x="54" y="-270" on="1"/>
        <pt x="330" y="1456" on="1"/>
        <pt x="485" y="1456" on="1"/>
      </contour>
    </TTGlyph>
    <TTGlyph name="beta" xMin="-14" yMin="-383" xMax="1141" yMax="1477">
      <contour>
        <pt x="781" y="1477" on="1"/>
        <pt x="952" y="1477" on="0"/>
        <pt x="1141" y="1254" on="0"/>
        <pt x="1107" y="1083" on="1"/>
        <pt x="1086" y="985" on="0"/>
        <pt x="964" y="833" on="0"/>
        <pt x="873" y="790" on="1"/>
        <pt x="969" y="743" on="0"/>
        <pt x="1056" y="548" on="0"/>
        <pt x="1032" y="425" on="1"/>
        <pt x="987" y="202" on="0"/>
        <pt x="712" y="-21" on="0"/>
        <pt x="520" y="-21" on="1"/>
        <pt x="449" y="-21" on="0"/>
        <pt x="317" y="24" on="0"/>
        <pt x="271" y="69" on="1"/>
        <pt x="180" y="-383" on="1"/>
        <pt x="-14" y="-383" on="1"/>
        <pt x="278" y="1073" on="1"/>
        <pt x="313" y="1249" on="0"/>
        <pt x="605" y="1477" on="0"/>
      </contour>
      <contour>
        <pt x="654" y="860" on="1"/>
        <pt x="757" y="860" on="0"/>
        <pt x="893" y="984" on="0"/>
        <pt x="914" y="1087" on="1"/>
        <pt x="934" y="1187" on="0"/>
        <pt x="850" y="1322" on="0"/>
        <pt x="750" y="1322" on="1"/>
        <pt x="659" y="1322" on="0"/>
        <pt x="492" y="1177" on="0"/>
        <pt x="472" y="1073" on="1"/>
        <pt x="303" y="232" on="1"/>
        <pt x="334" y="184" on="0"/>
        <pt x="451" y="133" on="0"/>
        <pt x="531" y="133" on="1"/>
        <pt x="639" y="133" on="0"/>
        <pt x="813" y="296" on="0"/>
        <pt x="838" y="421" on="1"/>
        <pt x="861" y="539" on="0"/>
        <pt x="781" y="705" on="0"/>
        <pt x="682" y="705" on="1"/>
        <pt x="549" y="705" on="1"/>
        <pt x="580" y="860" on="1"/>
      </contour>
    </TTGlyph>
    <TTGlyph name="braceleft" xMin="80" yMin="-364" xMax="797" yMax="1592">
      <contour>
        <pt x="463" y="-364" on="1"/>
        <pt x="289" y="-309" on="0"/>
        <pt x="172" y="-70" on="0"/>
        <pt x="200" y="101" on="1"/>
        <pt x="233" y="306" on="1"/>
        <pt x="251" y="422" on="0"/>
        <pt x="178" y="543" on="0"/>
        <pt x="80" y="543" on="1"/>
        <pt x="89" y="602" on="1"/>
        <pt x="103" y="690" on="1"/>
        <pt x="196" y="690" on="0"/>
        <pt x="314" y="815" on="0"/>
        <pt x="332" y="926" on="1"/>
        <pt x="365" y="1132" on="1"/>
        <pt x="393" y="1309" on="0"/>
        <pt x="582" y="1540" on="0"/>
        <pt x="772" y="1592" on="1"/>
        <pt x="778" y="1590" on="1"/>
        <pt x="797" y="1480" on="1"/>
        <pt x="692" y="1445" on="0"/>
        <pt x="580" y="1265" on="0"/>
        <pt x="559" y="1132" on="1"/>
        <pt x="526" y="926" on="1"/>
        <pt x="508" y="816" on="0"/>
        <pt x="403" y="656" on="0"/>
        <pt x="314" y="613" on="1"/>
        <pt x="386" y="566" on="0"/>
        <pt x="443" y="406" on="0"/>
        <pt x="427" y="306" on="1"/>
        <pt x="394" y="101" on="1"/>
        <pt x="372" y="-36" on="0"/>
        <pt x="425" y="-210" on="0"/>
        <pt x="521" y="-246" on="1"/>
      </contour>
    </TTGlyph>
    <TTGlyph name="braceright" xMin="-83" yMin="-359" xMax="634" yMax="1597">
      <contour>
        <pt x="-83" y="-246" on="1"/>
        <pt x="22" y="-210" on="0"/>
        <pt x="133" y="-31" on="0"/>
        <pt x="155" y="101" on="1"/>
        <pt x="188" y="306" on="1"/>
        <pt x="205" y="418" on="0"/>
        <pt x="317" y="577" on="0"/>
        <pt x="413" y="618" on="1"/>
        <pt x="333" y="661" on="0"/>
        <pt x="270" y="821" on="0"/>
        <pt x="287" y="926" on="1"/>
        <pt x="320" y="1132" on="1"/>
        <pt x="341" y="1269" on="0"/>
        <pt x="287" y="1445" on="0"/>
        <pt x="193" y="1480" on="1"/>
        <pt x="252" y="1597" on="1"/>
        <pt x="425" y="1542" on="0"/>
        <pt x="540" y="1303" on="0"/>
        <pt x="513" y="1132" on="1"/>
        <pt x="480" y="926" on="1"/>
        <pt x="461" y="809" on="0"/>
        <pt x="534" y="690" on="0"/>
        <pt x="634" y="690" on="1"/>
        <pt x="629" y="657" on="1"/>
        <pt x="616" y="575" on="1"/>
        <pt x="611" y="543" on="1"/>
        <pt x="516" y="543" on="0"/>
        <pt x="398" y="416" on="0"/>
        <pt x="381" y="306" on="1"/>
        <pt x="348" y="101" on="1"/>
        <pt x="319" y="-75" on="0"/>
        <pt x="131" y="-307" on="0"/>
        <pt x="-57" y="-359" on="1"/>
        <pt x="-63" y="-357" on="1"/>
      </contour>
    </TTGlyph>
    <TTGlyph name="bracketleft" xMin="15" yMin="-312" xMax="697" yMax="1664">
      <contour>
        <pt x="672" y="1509" on="1"/>
        <pt x="500" y="1509" on="1"/>
        <pt x="234" y="-157" on="1"/>
        <pt x="406" y="-157" on="1"/>
        <pt x="381" y="-312" on="1"/>
        <pt x="15" y="-312" on="1"/>
        <pt x="331" y="1664" on="1"/>
        <pt x="697" y="1664" on="1"/>
      </contour>
    </TTGlyph>
    <TTGlyph name="bracketright" xMin="-103" yMin="-312" xMax="579" yMax="1664">
      <contour>
        <pt x="213" y="1664" on="1"/>
        <pt x="579" y="1664" on="1"/>
        <pt x="263" y="-312" on="1"/>
        <pt x="-103" y="-312" on="1"/>
        <pt x="-78" y="-157" on="1"/>
        <pt x="95" y="-157" on="1"/>
        <pt x="361" y="1509" on="1"/>
        <pt x="188" y="1509" on="1"/>
      </contour>
    </TTGlyph>
    <TTGlyph name="breve" xMin="268" yMin="1188" xMax="842" yMax="1456">
      <contour>
        <pt x="840" y="1456" on="1"/>
        <pt x="842" y="1450" on="1"/>
        <pt x="827" y="1330" on="0"/>
        <pt x="654" y="1188" on="0"/>
        <pt x="524" y="1188" on="1"/>
        <pt x="400" y="1188" on="0"/>
        <pt x="268" y="1336" on="0"/>
        <pt x="291" y="1451" on="1"/>
        <pt x="293" y="1456" on="1"/>
        <pt x="441" y="1456" on="1"/>
        <pt x="430" y="1388" on="0"/>
        <pt x="477" y="1308" on="0"/>
        <pt x="543" y="1308" on="1"/>
        <pt x="604" y="1308" on="0"/>
        <pt x="683" y="1392" on="0"/>
        <pt x="694" y="1456" on="1"/>
      </contour>
    </TTGlyph>
    <TTGlyph name="breveacutecomb" xMin="312" yMin="1247" xMax="890" yMax="1675">
      <contour>
        <pt x="888" y="1456" on="1"/>
        <pt x="890" y="1450" on="1"/>
        <pt x="877" y="1355" on="0"/>
        <pt x="705" y="1247" on="0"/>
        <pt x="572" y="1247" on="1"/>
        <pt x="450" y="1247" on="0"/>
        <pt x="312" y="1362" on="0"/>
        <pt x="336" y="1450" on="1"/>
        <pt x="338" y="1456" on="1"/>
        <pt x="486" y="1456" on="1"/>
        <pt x="475" y="1402" on="0"/>
        <pt x="524" y="1342" on="0"/>
        <pt x="591" y="1342" on="1"/>
        <pt x="651" y="1342" on="0"/>
        <pt x="731" y="1407" on="0"/>
        <pt x="741" y="1456" on="1"/>
      </contour>
      <contour>
        <pt x="701" y="1675" on="1"/>
        <pt x="850" y="1675" on="1"/>
        <pt x="853" y="1669" on="1"/>
        <pt x="668" y="1478" on="1"/>
        <pt x="565" y="1478" on="1"/>
      </contour>
    </TTGlyph>
    <TTGlyph name="brevegravecomb" xMin="288" yMin="1189" xMax="903" yMax="1704">
      <contour>
        <pt x="902" y="1456" on="1"/>
        <pt x="903" y="1450" on="1"/>
        <pt x="883" y="1327" on="0"/>
        <pt x="696" y="1189" on="0"/>
        <pt x="557" y="1189" on="1"/>
        <pt x="428" y="1189" on="0"/>
        <pt x="288" y="1338" on="0"/>
        <pt x="315" y="1451" on="1"/>
        <pt x="317" y="1456" on="1"/>
        <pt x="464" y="1456" on="1"/>
        <pt x="450" y="1388" on="0"/>
        <pt x="505" y="1309" on="0"/>
        <pt x="581" y="1309" on="1"/>
        <pt x="650" y="1309" on="0"/>
        <pt x="743" y="1393" on="0"/>
        <pt x="755" y="1456" on="1"/>
      </contour>
      <contour>
        <pt x="700" y="1499" on="1"/>
        <pt x="549" y="1499" on="1"/>
        <pt x="389" y="1704" on="1"/>
        <pt x="610" y="1704" on="1"/>
      </contour>
    </TTGlyph>
    <TTGlyph name="brevehookcomb" xMin="312" yMin="1248" xMax="882" yMax="1834">
      <contour>
        <pt x="727" y="1456" on="1"/>
        <pt x="717" y="1407" on="0"/>
        <pt x="639" y="1342" on="0"/>
        <pt x="581" y="1342" on="1"/>
        <pt x="516" y="1342" on="0"/>
        <pt x="468" y="1403" on="0"/>
        <pt x="479" y="1456" on="1"/>
        <pt x="337" y="1456" on="1"/>
        <pt x="335" y="1450" on="1"/>
        <pt x="312" y="1363" on="0"/>
        <pt x="445" y="1248" on="0"/>
        <pt x="563" y="1248" on="1"/>
        <pt x="691" y="1248" on="0"/>
        <pt x="856" y="1356" on="0"/>
        <pt x="869" y="1450" on="1"/>
        <pt x="868" y="1456" on="1"/>
      </contour>
      <contour>
        <pt x="567" y="1512" on="1"/>
        <pt x="592" y="1638" on="1"/>
        <pt x="659" y="1641" on="0"/>
        <pt x="717" y="1662" on="0"/>
        <pt x="719" y="1690" on="1"/>
        <pt x="719" y="1696" on="1"/>
        <pt x="729" y="1724" on="0"/>
        <pt x="659" y="1751" on="0"/>
        <pt x="599" y="1751" on="1"/>
        <pt x="623" y="1834" on="1"/>
        <pt x="758" y="1834" on="0"/>
        <pt x="882" y="1760" on="0"/>
        <pt x="868" y="1690" on="1"/>
        <pt x="857" y="1637" on="0"/>
        <pt x="771" y="1582" on="0"/>
        <pt x="713" y="1575" on="1"/>
        <pt x="699" y="1512" on="1"/>
      </contour>
    </TTGlyph>
    <TTGlyph name="brevetildecomb" xMin="311" yMin="1243" xMax="930" yMax="1748">
      <contour>
        <pt x="876" y="1456" on="1"/>
        <pt x="877" y="1450" on="1"/>
        <pt x="863" y="1353" on="0"/>
        <pt x="695" y="1243" on="0"/>
        <pt x="566" y="1243" on="1"/>
        <pt x="447" y="1243" on="0"/>
        <pt x="311" y="1361" on="0"/>
        <pt x="335" y="1450" on="1"/>
        <pt x="337" y="1456" on="1"/>
        <pt x="483" y="1456" on="1"/>
        <pt x="472" y="1401" on="0"/>
        <pt x="519" y="1339" on="0"/>
        <pt x="585" y="1339" on="1"/>
        <pt x="644" y="1339" on="0"/>
        <pt x="722" y="1406" on="0"/>
        <pt x="732" y="1456" on="1"/>
      </contour>
      <contour>
        <pt x="930" y="1724" on="1"/>
        <pt x="914" y="1644" on="0"/>
        <pt x="806" y="1542" on="0"/>
        <pt x="738" y="1542" on="1"/>
        <pt x="691" y="1542" on="0"/>
        <pt x="588" y="1618" on="0"/>
        <pt x="549" y="1618" on="1"/>
        <pt x="520" y="1618" on="0"/>
        <pt x="466" y="1565" on="0"/>
        <pt x="459" y="1529" on="1"/>
        <pt x="379" y="1550" on="1"/>
        <pt x="394" y="1629" on="0"/>
        <pt x="503" y="1735" on="0"/>
        <pt x="572" y="1735" on="1"/>
        <pt x="608" y="1735" on="0"/>
        <pt x="721" y="1659" on="0"/>
        <pt x="762" y="1659" on="1"/>
        <pt x="789" y="1659" on="0"/>
        <pt x="844" y="1710" on="0"/>
        <pt x="853" y="1748" on="1"/>
      </contour>
    </TTGlyph>
    <TTGlyph name="brokenbar" xMin="-1" yMin="-270" xMax="537" yMax="1456">
      <contour>
        <pt x="-1" y="-270" on="1"/>
        <pt x="157" y="522" on="1"/>
        <pt x="350" y="522" on="1"/>
        <pt x="192" y="-270" on="1"/>
      </contour>
      <contour>
        <pt x="386" y="698" on="1"/>
        <pt x="193" y="698" on="1"/>
        <pt x="344" y="1456" on="1"/>
        <pt x="537" y="1456" on="1"/>
      </contour>
    </TTGlyph>
    <TTGlyph name="bullet" xMin="175" yMin="535" xMax="613" yMax="993">
      <contour>
        <pt x="205" y="793" on="1"/>
        <pt x="223" y="886" on="0"/>
        <pt x="350" y="993" on="0"/>
        <pt x="440" y="993" on="1"/>
        <pt x="524" y="993" on="0"/>
        <pt x="613" y="879" on="0"/>
        <pt x="596" y="793" on="1"/>
        <pt x="584" y="733" on="1"/>
        <pt x="564" y="638" on="0"/>
        <pt x="439" y="535" on="0"/>
        <pt x="348" y="535" on="1"/>
        <pt x="265" y="535" on="0"/>
        <pt x="175" y="647" on="0"/>
        <pt x="193" y="733" on="1"/>
      </contour>
    </TTGlyph>
    <TTGlyph name="c" xMin="71" yMin="-21" xMax="1023" yMax="1102">
      <contour>
        <pt x="501" y="133" on="1"/>
        <pt x="587" y="133" on="0"/>
        <pt x="744" y="255" on="0"/>
        <pt x="758" y="342" on="1"/>
        <pt x="931" y="342" on="1"/>
        <pt x="933" y="336" on="1"/>
        <pt x="913" y="190" on="0"/>
        <pt x="641" y="-21" on="0"/>
        <pt x="477" y="-21" on="1"/>
        <pt x="265" y="-21" on="0"/>
        <pt x="71" y="291" on="0"/>
        <pt x="108" y="520" on="1"/>
        <pt x="115" y="562" on="1"/>
        <pt x="152" y="801" on="0"/>
        <pt x="433" y="1102" on="0"/>
        <pt x="656" y="1102" on="1"/>
        <pt x="828" y="1102" on="0"/>
        <pt x="1023" y="877" on="0"/>
        <pt x="993" y="714" on="1"/>
        <pt x="991" y="709" on="1"/>
        <pt x="816" y="709" on="1"/>
        <pt x="833" y="813" on="0"/>
        <pt x="731" y="947" on="0"/>
        <pt x="632" y="947" on="1"/>
        <pt x="496" y="947" on="0"/>
        <pt x="334" y="721" on="0"/>
        <pt x="309" y="562" on="1"/>
        <pt x="302" y="520" on="1"/>
        <pt x="275" y="348" on="0"/>
        <pt x="357" y="133" on="0"/>
      </contour>
    </TTGlyph>
    <TTGlyph name="cacute" xMin="71" yMin="-21" xMax="1023" yMax="1501">
      <component glyphName="c" x="0" y="0" flags="0x204"/>
      <component glyphName="acute" x="293" y="23" flags="0x4"/>
    </TTGlyph>
    <TTGlyph name="caron" xMin="350" yMin="1252" xMax="948" yMax="1515">
      <contour>
        <pt x="619" y="1367" on="1"/>
        <pt x="783" y="1515" on="1"/>
        <pt x="948" y="1515" on="1"/>
        <pt x="944" y="1497" on="1"/>
        <pt x="653" y="1252" on="1"/>
        <pt x="540" y="1252" on="1"/>
        <pt x="350" y="1495" on="1"/>
        <pt x="354" y="1515" on="1"/>
        <pt x="515" y="1515" on="1"/>
      </contour>
    </TTGlyph>
    <TTGlyph name="ccaron" xMin="71" yMin="-21" xMax="1023" yMax="1543">
      <component glyphName="c" x="0" y="0" flags="0x204"/>
      <component glyphName="caron" x="41" y="28" flags="0x4"/>
    </TTGlyph>
    <TTGlyph name="ccedilla" xMin="71" yMin="-441" xMax="1023" yMax="1102">
      <component glyphName="c" x="0" y="0" flags="0x204"/>
      <component glyphName="cedilla" x="309" y="-8" flags="0x4"/>
    </TTGlyph>
    <TTGlyph name="ccircumflex" xMin="71" yMin="-21" xMax="1023" yMax="1542">
      <component glyphName="c" x="0" y="0" flags="0x204"/>
      <component glyphName="circumflex" x="18" y="27" flags="0x4"/>
    </TTGlyph>
    <TTGlyph name="cedilla" xMin="-46" yMin="-433" xMax="293" yMax="0">
      <contour>
        <pt x="198" y="0" on="1"/>
        <pt x="176" y="-52" on="1"/>
        <pt x="232" y="-63" on="0"/>
        <pt x="293" y="-145" on="0"/>
        <pt x="278" y="-225" on="1"/>
        <pt x="257" y="-327" on="0"/>
        <pt x="94" y="-433" on="0"/>
        <pt x="-41" y="-431" on="1"/>
        <pt x="-46" y="-428" on="1"/>
        <pt x="-32" y="-326" on="1"/>
        <pt x="29" y="-326" on="0"/>
        <pt x="119" y="-277" on="0"/>
        <pt x="129" y="-228" on="1"/>
        <pt x="139" y="-177" on="0"/>
        <pt x="84" y="-142" on="0"/>
        <pt x="4" y="-135" on="1"/>
        <pt x="61" y="0" on="1"/>
      </contour>
    </TTGlyph>
    <TTGlyph name="cent" xMin="85" yMin="-245" xMax="1028" yMax="1318">
      <contour>
        <pt x="509" y="133" on="1"/>
        <pt x="595" y="133" on="0"/>
        <pt x="752" y="255" on="0"/>
        <pt x="766" y="342" on="1"/>
        <pt x="940" y="342" on="1"/>
        <pt x="942" y="336" on="1"/>
        <pt x="924" y="205" on="0"/>
        <pt x="697" y="5" on="0"/>
        <pt x="551" y="-16" on="1"/>
        <pt x="505" y="-245" on="1"/>
        <pt x="311" y="-245" on="1"/>
        <pt x="359" y="-3" on="1"/>
        <pt x="211" y="41" on="0"/>
        <pt x="85" y="330" on="0"/>
        <pt x="116" y="520" on="1"/>
        <pt x="123" y="562" on="1"/>
        <pt x="156" y="776" on="0"/>
        <pt x="392" y="1066" on="0"/>
        <pt x="579" y="1095" on="1"/>
        <pt x="624" y="1318" on="1"/>
        <pt x="818" y="1318" on="1"/>
        <pt x="772" y="1088" on="1"/>
        <pt x="898" y="1054" on="0"/>
        <pt x="1028" y="846" on="0"/>
        <pt x="1006" y="709" on="1"/>
        <pt x="824" y="709" on="1"/>
        <pt x="841" y="813" on="0"/>
        <pt x="739" y="947" on="0"/>
        <pt x="640" y="947" on="1"/>
        <pt x="504" y="947" on="0"/>
        <pt x="342" y="721" on="0"/>
        <pt x="317" y="562" on="1"/>
        <pt x="310" y="520" on="1"/>
        <pt x="283" y="348" on="0"/>
        <pt x="365" y="133" on="0"/>
      </contour>
    </TTGlyph>
    <TTGlyph name="chi" xMin="-48" yMin="-437" xMax="1120" yMax="1097">
      <contour>
        <pt x="333" y="1097" on="1"/>
        <pt x="446" y="1097" on="0"/>
        <pt x="569" y="930" on="0"/>
        <pt x="585" y="829" on="1"/>
        <pt x="622" y="624" on="1"/>
        <pt x="627" y="623" on="1"/>
        <pt x="927" y="1082" on="1"/>
        <pt x="1120" y="1082" on="1"/>
        <pt x="667" y="377" on="1"/>
        <pt x="757" y="-117" on="1"/>
        <pt x="770" y="-189" on="0"/>
        <pt x="812" y="-265" on="0"/>
        <pt x="851" y="-265" on="1"/>
        <pt x="863" y="-265" on="0"/>
        <pt x="871" y="-263" on="0"/>
        <pt x="893" y="-260" on="1"/>
        <pt x="858" y="-422" on="1"/>
        <pt x="848" y="-428" on="0"/>
        <pt x="812" y="-437" on="0"/>
        <pt x="800" y="-437" on="1"/>
        <pt x="697" y="-437" on="0"/>
        <pt x="581" y="-302" on="0"/>
        <pt x="563" y="-165" on="1"/>
        <pt x="509" y="122" on="1"/>
        <pt x="504" y="123" on="1"/>
        <pt x="157" y="-415" on="1"/>
        <pt x="-48" y="-415" on="1"/>
        <pt x="463" y="370" on="1"/>
        <pt x="392" y="753" on="1"/>
        <pt x="379" y="834" on="0"/>
        <pt x="317" y="936" on="0"/>
        <pt x="262" y="936" on="1"/>
        <pt x="253" y="936" on="0"/>
        <pt x="202" y="931" on="0"/>
        <pt x="198" y="931" on="1"/>
        <pt x="227" y="1082" on="1"/>
        <pt x="250" y="1087" on="0"/>
        <pt x="310" y="1097" on="0"/>
      </contour>
    </TTGlyph>
    <TTGlyph name="circumflex" xMin="330" yMin="1252" xMax="914" yMax="1515">
      <contour>
        <pt x="914" y="1277" on="1"/>
        <pt x="909" y="1252" on="1"/>
        <pt x="753" y="1252" on="1"/>
        <pt x="649" y="1400" on="1"/>
        <pt x="486" y="1252" on="1"/>
        <pt x="330" y="1252" on="1"/>
        <pt x="336" y="1278" on="1"/>
        <pt x="615" y="1515" on="1"/>
        <pt x="729" y="1515" on="1"/>
      </contour>
    </TTGlyph>
    <TTGlyph name="circumflexacutecomb" xMin="286" yMin="1252" xMax="1332" yMax="1688">
      <contour>
        <pt x="609" y="1515" on="1"/>
        <pt x="762" y="1515" on="1"/>
        <pt x="980" y="1257" on="1"/>
        <pt x="978" y="1252" on="1"/>
        <pt x="785" y="1252" on="1"/>
        <pt x="665" y="1409" on="1"/>
        <pt x="480" y="1252" on="1"/>
        <pt x="288" y="1252" on="1"/>
        <pt x="286" y="1258" on="1"/>
      </contour>
      <contour>
        <pt x="1131" y="1688" on="1"/>
        <pt x="1329" y="1688" on="1"/>
        <pt x="1332" y="1682" on="1"/>
        <pt x="1093" y="1428" on="1"/>
        <pt x="950" y="1428" on="1"/>
      </contour>
    </TTGlyph>
    <TTGlyph name="circumflexgravecomb" xMin="91" yMin="1252" xMax="968" yMax="1688">
      <contour>
        <pt x="968" y="1257" on="1"/>
        <pt x="966" y="1252" on="1"/>
        <pt x="772" y="1252" on="1"/>
        <pt x="651" y="1409" on="1"/>
        <pt x="466" y="1252" on="1"/>
        <pt x="275" y="1252" on="1"/>
        <pt x="273" y="1258" on="1"/>
        <pt x="596" y="1515" on="1"/>
        <pt x="748" y="1515" on="1"/>
      </contour>
      <contour>
        <pt x="373" y="1428" on="1"/>
        <pt x="231" y="1428" on="1"/>
        <pt x="91" y="1688" on="1"/>
        <pt x="296" y="1688" on="1"/>
      </contour>
    </TTGlyph>
    <TTGlyph name="circumflexhookcomb" xMin="273" yMin="1252" xMax="1262" yMax="1745">
      <contour>
        <pt x="768" y="1515" on="1"/>
        <pt x="576" y="1515" on="1"/>
        <pt x="273" y="1258" on="1"/>
        <pt x="275" y="1252" on="1"/>
        <pt x="437" y="1252" on="1"/>
        <pt x="657" y="1438" on="1"/>
        <pt x="801" y="1252" on="1"/>
        <pt x="973" y="1252" on="1"/>
      </contour>
      <contour>
        <pt x="970" y="1390" on="1"/>
        <pt x="996" y="1523" on="1"/>
        <pt x="1059" y="1527" on="0"/>
        <pt x="1111" y="1551" on="0"/>
        <pt x="1119" y="1585" on="1"/>
        <pt x="1126" y="1618" on="0"/>
        <pt x="1061" y="1651" on="0"/>
        <pt x="1008" y="1651" on="1"/>
        <pt x="1032" y="1745" on="1"/>
        <pt x="1154" y="1745" on="0"/>
        <pt x="1262" y="1662" on="0"/>
        <pt x="1247" y="1583" on="1"/>
        <pt x="1234" y="1522" on="0"/>
        <pt x="1153" y="1458" on="0"/>
        <pt x="1100" y="1451" on="1"/>
        <pt x="1087" y="1390" on="1"/>
      </contour>
    </TTGlyph>
    <TTGlyph name="circumflextildecomb" xMin="273" yMin="1252" xMax="968" yMax="1788">
      <contour>
        <pt x="968" y="1257" on="1"/>
        <pt x="966" y="1252" on="1"/>
        <pt x="801" y="1252" on="1"/>
        <pt x="655" y="1428" on="1"/>
        <pt x="437" y="1252" on="1"/>
        <pt x="275" y="1252" on="1"/>
        <pt x="273" y="1258" on="1"/>
        <pt x="596" y="1515" on="1"/>
        <pt x="749" y="1515" on="1"/>
      </contour>
      <contour>
        <pt x="965" y="1765" on="1"/>
        <pt x="950" y="1691" on="0"/>
        <pt x="839" y="1589" on="0"/>
        <pt x="776" y="1589" on="1"/>
        <pt x="732" y="1589" on="0"/>
        <pt x="637" y="1660" on="0"/>
        <pt x="601" y="1660" on="1"/>
        <pt x="574" y="1660" on="0"/>
        <pt x="512" y="1600" on="0"/>
        <pt x="505" y="1567" on="1"/>
        <pt x="433" y="1586" on="1"/>
        <pt x="448" y="1659" on="0"/>
        <pt x="558" y="1766" on="0"/>
        <pt x="622" y="1766" on="1"/>
        <pt x="656" y="1766" on="0"/>
        <pt x="760" y="1697" on="0"/>
        <pt x="797" y="1697" on="1"/>
        <pt x="822" y="1697" on="0"/>
        <pt x="886" y="1754" on="0"/>
        <pt x="894" y="1788" on="1"/>
      </contour>
    </TTGlyph>
    <TTGlyph name="colon" xMin="70" yMin="0" xMax="477" yMax="1082">
      <component glyphName="period" x="1" y="0" flags="0x4"/>
      <component glyphName="period" x="177" y="880" flags="0x4"/>
    </TTGlyph>
    <TTGlyph name="comma" xMin="-92" yMin="-258" xMax="263" yMax="221">
      <contour>
        <pt x="229" y="48" on="1"/>
        <pt x="21" y="-258" on="1"/>
        <pt x="-92" y="-258" on="1"/>
        <pt x="37" y="58" on="1"/>
        <pt x="69" y="221" on="1"/>
        <pt x="263" y="221" on="1"/>
      </contour>
    </TTGlyph>
    <TTGlyph name="commaaccent" xMin="-18" yMin="-134" xMax="270" yMax="243">
      <contour>
        <pt x="242" y="103" on="1"/>
        <pt x="75" y="-134" on="1"/>
        <pt x="-18" y="-134" on="1"/>
        <pt x="89" y="112" on="1"/>
        <pt x="116" y="243" on="1"/>
        <pt x="270" y="243" on="1"/>
      </contour>
    </TTGlyph>
    <TTGlyph name="commaaccentrotate" xMin="303" yMin="1164" xMax="592" yMax="1559">
      <contour>
        <pt x="332" y="1312" on="1"/>
        <pt x="499" y="1559" on="1"/>
        <pt x="592" y="1559" on="1"/>
        <pt x="523" y="1302" on="1"/>
        <pt x="496" y="1164" on="1"/>
        <pt x="303" y="1164" on="1"/>
      </contour>
    </TTGlyph>
    <TTGlyph name="copyright" xMin="80" yMin="-21" xMax="1500" yMax="1476">
      <contour>
        <pt x="1061" y="596" on="1"/>
        <pt x="1063" y="590" on="1"/>
        <pt x="1042" y="434" on="0"/>
        <pt x="856" y="282" on="0"/>
        <pt x="706" y="282" on="1"/>
        <pt x="562" y="282" on="0"/>
        <pt x="415" y="497" on="0"/>
        <pt x="443" y="669" on="1"/>
        <pt x="462" y="788" on="1"/>
        <pt x="490" y="967" on="0"/>
        <pt x="698" y="1175" on="0"/>
        <pt x="849" y="1175" on="1"/>
        <pt x="991" y="1175" on="0"/>
        <pt x="1136" y="1015" on="0"/>
        <pt x="1109" y="867" on="1"/>
        <pt x="1107" y="862" on="1"/>
        <pt x="964" y="862" on="1"/>
        <pt x="979" y="961" on="0"/>
        <pt x="912" y="1044" on="0"/>
        <pt x="828" y="1044" on="1"/>
        <pt x="746" y="1044" on="0"/>
        <pt x="628" y="901" on="0"/>
        <pt x="610" y="789" on="1"/>
        <pt x="591" y="669" on="1"/>
        <pt x="571" y="547" on="0"/>
        <pt x="641" y="412" on="0"/>
        <pt x="727" y="412" on="1"/>
        <pt x="807" y="412" on="0"/>
        <pt x="904" y="499" on="0"/>
        <pt x="920" y="596" on="1"/>
      </contour>
      <contour>
        <pt x="248" y="729" on="1"/>
        <pt x="203" y="453" on="0"/>
        <pt x="461" y="100" on="0"/>
        <pt x="691" y="100" on="1"/>
        <pt x="908" y="100" on="0"/>
        <pt x="1292" y="466" on="0"/>
        <pt x="1335" y="729" on="1"/>
        <pt x="1378" y="1003" on="0"/>
        <pt x="1121" y="1354" on="0"/>
        <pt x="892" y="1354" on="1"/>
        <pt x="674" y="1354" on="0"/>
        <pt x="289" y="989" on="0"/>
      </contour>
      <contour>
        <pt x="131" y="729" on="1"/>
        <pt x="183" y="1056" on="0"/>
        <pt x="632" y="1476" on="0"/>
        <pt x="911" y="1476" on="1"/>
        <pt x="1174" y="1476" on="0"/>
        <pt x="1500" y="1040" on="0"/>
        <pt x="1451" y="729" on="1"/>
        <pt x="1398" y="401" on="0"/>
        <pt x="949" y="-21" on="0"/>
        <pt x="672" y="-21" on="1"/>
        <pt x="407" y="-21" on="0"/>
        <pt x="80" y="416" on="0"/>
      </contour>
    </TTGlyph>
    <TTGlyph name="crossbar" xMin="188" yMin="648" xMax="819" yMax="803">
      <contour>
        <pt x="788" y="648" on="1"/>
        <pt x="188" y="648" on="1"/>
        <pt x="219" y="803" on="1"/>
        <pt x="819" y="803" on="1"/>
      </contour>
    </TTGlyph>
    <TTGlyph name="currency" xMin="38" yMin="-27" xMax="1418" yMax="1265">
      <contour>
        <pt x="960" y="100" on="1"/>
        <pt x="878" y="41" on="0"/>
        <pt x="693" y="-20" on="0"/>
        <pt x="598" y="-20" on="1"/>
        <pt x="511" y="-20" on="0"/>
        <pt x="356" y="46" on="0"/>
        <pt x="297" y="109" on="1"/>
        <pt x="147" y="-26" on="1"/>
        <pt x="38" y="112" on="1"/>
        <pt x="200" y="257" on="1"/>
        <pt x="167" y="333" on="0"/>
        <pt x="151" y="512" on="0"/>
        <pt x="171" y="608" on="1"/>
        <pt x="192" y="715" on="0"/>
        <pt x="280" y="903" on="0"/>
        <pt x="343" y="981" on="1"/>
        <pt x="241" y="1125" on="1"/>
        <pt x="405" y="1264" on="1"/>
        <pt x="503" y="1126" on="1"/>
        <pt x="582" y="1178" on="0"/>
        <pt x="758" y="1234" on="0"/>
        <pt x="849" y="1234" on="1"/>
        <pt x="932" y="1234" on="0"/>
        <pt x="1082" y="1171" on="0"/>
        <pt x="1142" y="1115" on="1"/>
        <pt x="1309" y="1265" on="1"/>
        <pt x="1418" y="1125" on="1"/>
        <pt x="1244" y="967" on="1"/>
        <pt x="1278" y="890" on="0"/>
        <pt x="1296" y="707" on="0"/>
        <pt x="1277" y="608" on="1"/>
        <pt x="1256" y="504" on="0"/>
        <pt x="1174" y="324" on="0"/>
        <pt x="1116" y="250" on="1"/>
        <pt x="1215" y="112" on="1"/>
        <pt x="1051" y="-27" on="1"/>
      </contour>
      <contour>
        <pt x="349" y="608" on="1"/>
        <pt x="308" y="408" on="0"/>
        <pt x="473" y="155" on="0"/>
        <pt x="633" y="155" on="1"/>
        <pt x="777" y="155" on="0"/>
        <pt x="1060" y="423" on="0"/>
        <pt x="1097" y="608" on="1"/>
        <pt x="1136" y="806" on="0"/>
        <pt x="972" y="1058" on="0"/>
        <pt x="814" y="1058" on="1"/>
        <pt x="668" y="1058" on="0"/>
        <pt x="385" y="791" on="0"/>
      </contour>
    </TTGlyph>
    <TTGlyph name="cyrillicbreve" xMin="268" yMin="1188" xMax="842" yMax="1456">
      <component glyphName="breve" x="0" y="0" flags="0x204"/>
    </TTGlyph>
    <TTGlyph name="cyrillichook" xMin="-219" yMin="-437" xMax="304" yMax="154">
      <contour>
        <pt x="304" y="154" on="1"/>
        <pt x="255" y="-89" on="1"/>
        <pt x="219" y="-267" on="0"/>
        <pt x="28" y="-437" on="0"/>
        <pt x="-119" y="-437" on="1"/>
        <pt x="-146" y="-437" on="0"/>
        <pt x="-194" y="-428" on="0"/>
        <pt x="-219" y="-419" on="1"/>
        <pt x="-174" y="-259" on="1"/>
        <pt x="-162" y="-264" on="0"/>
        <pt x="-102" y="-271" on="0"/>
        <pt x="-86" y="-271" on="1"/>
        <pt x="-36" y="-271" on="0"/>
        <pt x="44" y="-176" on="0"/>
        <pt x="62" y="-89" on="1"/>
        <pt x="111" y="154" on="1"/>
      </contour>
    </TTGlyph>
    <TTGlyph name="cyrillichookleft" xMin="-143" yMin="-413" xMax="325" yMax="67">
      <contour>
        <pt x="164" y="67" on="1"/>
        <pt x="255" y="15" on="0"/>
        <pt x="325" y="-128" on="0"/>
        <pt x="310" y="-204" on="1"/>
        <pt x="288" y="-310" on="0"/>
        <pt x="143" y="-413" on="0"/>
        <pt x="42" y="-413" on="1"/>
        <pt x="-17" y="-413" on="0"/>
        <pt x="-111" y="-387" on="0"/>
        <pt x="-143" y="-369" on="1"/>
        <pt x="-86" y="-246" on="1"/>
        <pt x="-61" y="-256" on="0"/>
        <pt x="-11" y="-272" on="0"/>
        <pt x="20" y="-272" on="1"/>
        <pt x="73" y="-272" on="0"/>
        <pt x="139" y="-223" on="0"/>
        <pt x="148" y="-182" on="1"/>
        <pt x="158" y="-130" on="0"/>
        <pt x="111" y="-48" on="0"/>
        <pt x="63" y="0" on="1"/>
      </contour>
    </TTGlyph>
    <TTGlyph name="cyrillictic" xMin="-69" yMin="-359" xMax="227" yMax="157">
      <contour>
        <pt x="124" y="-359" on="1"/>
        <pt x="-69" y="-359" on="1"/>
        <pt x="34" y="157" on="1"/>
        <pt x="227" y="157" on="1"/>
      </contour>
    </TTGlyph>
    <TTGlyph name="d" xMin="67" yMin="-21" xMax="1178" yMax="1560">
      <contour>
        <pt x="117" y="541" on="1"/>
        <pt x="172" y="820" on="0"/>
        <pt x="415" y="1102" on="0"/>
        <pt x="606" y="1102" on="1"/>
        <pt x="689" y="1102" on="0"/>
        <pt x="824" y="1033" on="0"/>
        <pt x="867" y="970" on="1"/>
        <pt x="985" y="1560" on="1"/>
        <pt x="1178" y="1560" on="1"/>
        <pt x="866" y="0" on="1"/>
        <pt x="700" y="0" on="1"/>
        <pt x="707" y="104" on="1"/>
        <pt x="647" y="42" on="0"/>
        <pt x="502" y="-21" on="0"/>
        <pt x="418" y="-21" on="1"/>
        <pt x="244" y="-21" on="0"/>
        <pt x="67" y="291" on="0"/>
        <pt x="113" y="520" on="1"/>
      </contour>
      <contour>
        <pt x="307" y="520" on="1"/>
        <pt x="272" y="348" on="0"/>
        <pt x="368" y="139" on="0"/>
        <pt x="500" y="139" on="1"/>
        <pt x="571" y="139" on="0"/>
        <pt x="684" y="218" on="0"/>
        <pt x="731" y="291" on="1"/>
        <pt x="833" y="802" on="1"/>
        <pt x="807" y="866" on="0"/>
        <pt x="702" y="942" on="0"/>
        <pt x="624" y="942" on="1"/>
        <pt x="504" y="942" on="0"/>
        <pt x="347" y="725" on="0"/>
        <pt x="311" y="541" on="1"/>
      </contour>
    </TTGlyph>
    <TTGlyph name="dagger" xMin="148" yMin="0" xMax="1094" yMax="1456">
      <contour>
        <pt x="1069" y="926" on="1"/>
        <pt x="702" y="926" on="1"/>
        <pt x="554" y="0" on="1"/>
        <pt x="361" y="0" on="1"/>
        <pt x="509" y="926" on="1"/>
        <pt x="148" y="926" on="1"/>
        <pt x="173" y="1082" on="1"/>
        <pt x="534" y="1082" on="1"/>
        <pt x="594" y="1456" on="1"/>
        <pt x="787" y="1456" on="1"/>
        <pt x="727" y="1082" on="1"/>
        <pt x="1094" y="1082" on="1"/>
      </contour>
    </TTGlyph>
    <TTGlyph name="daggerdbl" xMin="16" yMin="-416" xMax="1109" yMax="1456">
      <contour>
        <pt x="936" y="0" on="1"/>
        <pt x="570" y="0" on="1"/>
        <pt x="504" y="-416" on="1"/>
        <pt x="311" y="-416" on="1"/>
        <pt x="377" y="0" on="1"/>
        <pt x="16" y="0" on="1"/>
        <pt x="41" y="154" on="1"/>
        <pt x="402" y="154" on="1"/>
        <pt x="526" y="926" on="1"/>
        <pt x="164" y="926" on="1"/>
        <pt x="189" y="1082" on="1"/>
        <pt x="551" y="1082" on="1"/>
        <pt x="611" y="1456" on="1"/>
        <pt x="804" y="1456" on="1"/>
        <pt x="744" y="1082" on="1"/>
        <pt x="1109" y="1082" on="1"/>
        <pt x="1084" y="926" on="1"/>
        <pt x="719" y="926" on="1"/>
        <pt x="595" y="154" on="1"/>
        <pt x="961" y="154" on="1"/>
      </contour>
    </TTGlyph>
    <TTGlyph name="dasiaoxia" xMin="241" yMin="1135" xMax="890" yMax="1477">
      <contour>
        <pt x="533" y="1164" on="1"/>
        <pt x="690" y="1477" on="1"/>
        <pt x="890" y="1477" on="1"/>
        <pt x="886" y="1456" on="1"/>
        <pt x="606" y="1137" on="1"/>
        <pt x="527" y="1137" on="1"/>
      </contour>
      <contour>
        <pt x="241" y="1135" on="1"/>
        <pt x="422" y="1135" on="1"/>
        <pt x="449" y="1272" on="1"/>
        <pt x="566" y="1476" on="1"/>
        <pt x="464" y="1476" on="1"/>
        <pt x="270" y="1278" on="1"/>
      </contour>
    </TTGlyph>
    <TTGlyph name="dcaron" xMin="67" yMin="-21" xMax="1457" yMax="1560">
      <component glyphName="d" x="0" y="0" flags="0x4"/>
      <component glyphName="commaaccent" x="1187" y="1317" flags="0x4"/>
    </TTGlyph>
    <TTGlyph name="dcroat" xMin="67" yMin="-21" xMax="1328" yMax="1560">
      <contour>
        <pt x="1297" y="1231" on="1"/>
        <pt x="1112" y="1231" on="1"/>
        <pt x="866" y="0" on="1"/>
        <pt x="700" y="0" on="1"/>
        <pt x="707" y="104" on="1"/>
        <pt x="647" y="42" on="0"/>
        <pt x="502" y="-21" on="0"/>
        <pt x="418" y="-21" on="1"/>
        <pt x="244" y="-21" on="0"/>
        <pt x="67" y="291" on="0"/>
        <pt x="113" y="520" on="1"/>
        <pt x="117" y="541" on="1"/>
        <pt x="172" y="820" on="0"/>
        <pt x="415" y="1102" on="0"/>
        <pt x="606" y="1102" on="1"/>
        <pt x="689" y="1102" on="0"/>
        <pt x="824" y="1033" on="0"/>
        <pt x="867" y="970" on="1"/>
        <pt x="919" y="1231" on="1"/>
        <pt x="697" y="1231" on="1"/>
        <pt x="728" y="1386" on="1"/>
        <pt x="950" y="1386" on="1"/>
        <pt x="985" y="1560" on="1"/>
        <pt x="1178" y="1560" on="1"/>
        <pt x="1143" y="1386" on="1"/>
        <pt x="1328" y="1386" on="1"/>
      </contour>
      <contour>
        <pt x="307" y="520" on="1"/>
        <pt x="272" y="348" on="0"/>
        <pt x="368" y="139" on="0"/>
        <pt x="500" y="139" on="1"/>
        <pt x="571" y="139" on="0"/>
        <pt x="684" y="218" on="0"/>
        <pt x="731" y="291" on="1"/>
        <pt x="833" y="802" on="1"/>
        <pt x="807" y="866" on="0"/>
        <pt x="702" y="942" on="0"/>
        <pt x="624" y="942" on="1"/>
        <pt x="504" y="942" on="0"/>
        <pt x="347" y="725" on="0"/>
        <pt x="311" y="541" on="1"/>
      </contour>
    </TTGlyph>
    <TTGlyph name="degree" xMin="258" yMin="959" xMax="777" yMax="1477">
      <contour>
        <pt x="280" y="1216" on="1"/>
        <pt x="302" y="1329" on="0"/>
        <pt x="472" y="1477" on="0"/>
        <pt x="573" y="1477" on="1"/>
        <pt x="663" y="1477" on="0"/>
        <pt x="777" y="1320" on="0"/>
        <pt x="756" y="1216" on="1"/>
        <pt x="733" y="1101" on="0"/>
        <pt x="569" y="959" on="0"/>
        <pt x="470" y="959" on="1"/>
        <pt x="377" y="959" on="0"/>
        <pt x="258" y="1110" on="0"/>
      </contour>
      <contour>
        <pt x="407" y="1216" on="1"/>
        <pt x="395" y="1158" on="0"/>
        <pt x="447" y="1089" on="0"/>
        <pt x="496" y="1089" on="1"/>
        <pt x="539" y="1089" on="0"/>
        <pt x="620" y="1162" on="0"/>
        <pt x="631" y="1216" on="1"/>
        <pt x="642" y="1274" on="0"/>
        <pt x="593" y="1346" on="0"/>
        <pt x="547" y="1346" on="1"/>
        <pt x="502" y="1346" on="0"/>
        <pt x="417" y="1270" on="0"/>
      </contour>
    </TTGlyph>
    <TTGlyph name="delta" xMin="69" yMin="-21" xMax="1093" yMax="1456">
      <contour>
        <pt x="1093" y="1456" on="1"/>
        <pt x="1063" y="1305" on="1"/>
        <pt x="643" y="1305" on="1"/>
        <pt x="837" y="1142" on="0"/>
        <pt x="1067" y="769" on="0"/>
        <pt x="1024" y="551" on="1"/>
        <pt x="1020" y="529" on="1"/>
        <pt x="968" y="272" on="0"/>
        <pt x="672" y="-21" on="0"/>
        <pt x="459" y="-21" on="1"/>
        <pt x="263" y="-21" on="0"/>
        <pt x="69" y="293" on="0"/>
        <pt x="117" y="529" on="1"/>
        <pt x="121" y="551" on="1"/>
        <pt x="163" y="766" on="0"/>
        <pt x="429" y="1040" on="0"/>
        <pt x="626" y="1067" on="1"/>
        <pt x="628" y="1067" on="0"/>
        <pt x="631" y="1067" on="0"/>
        <pt x="632" y="1067" on="1"/>
        <pt x="573" y="1135" on="0"/>
        <pt x="448" y="1264" on="0"/>
        <pt x="383" y="1320" on="1"/>
        <pt x="410" y="1456" on="1"/>
      </contour>
      <contour>
        <pt x="310" y="529" on="1"/>
        <pt x="273" y="346" on="0"/>
        <pt x="358" y="133" on="0"/>
        <pt x="490" y="133" on="1"/>
        <pt x="608" y="133" on="0"/>
        <pt x="792" y="361" on="0"/>
        <pt x="826" y="529" on="1"/>
        <pt x="830" y="551" on="1"/>
        <pt x="857" y="686" on="0"/>
        <pt x="784" y="878" on="0"/>
        <pt x="707" y="936" on="1"/>
        <pt x="694" y="941" on="0"/>
        <pt x="666" y="947" on="0"/>
        <pt x="650" y="947" on="1"/>
        <pt x="531" y="947" on="0"/>
        <pt x="347" y="717" on="0"/>
        <pt x="314" y="551" on="1"/>
      </contour>
    </TTGlyph>
    <TTGlyph name="dieresis" xMin="295" yMin="1256" xMax="974" yMax="1456">
      <contour>
        <pt x="942" y="1256" on="1"/>
        <pt x="732" y="1256" on="1"/>
        <pt x="764" y="1456" on="1"/>
        <pt x="974" y="1456" on="1"/>
      </contour>
      <contour>
        <pt x="505" y="1256" on="1"/>
        <pt x="295" y="1256" on="1"/>
        <pt x="327" y="1456" on="1"/>
        <pt x="537" y="1456" on="1"/>
      </contour>
    </TTGlyph>
    <TTGlyph name="dieresistonos" xMin="320" yMin="1256" xMax="1026" yMax="1730">
      <contour>
        <pt x="986" y="1256" on="1"/>
        <pt x="796" y="1256" on="1"/>
        <pt x="836" y="1456" on="1"/>
        <pt x="1026" y="1456" on="1"/>
      </contour>
      <contour>
        <pt x="510" y="1256" on="1"/>
        <pt x="320" y="1256" on="1"/>
        <pt x="360" y="1456" on="1"/>
        <pt x="550" y="1456" on="1"/>
      </contour>
      <contour>
        <pt x="730" y="1730" on="1"/>
        <pt x="939" y="1730" on="1"/>
        <pt x="768" y="1468" on="1"/>
        <pt x="629" y="1468" on="1"/>
      </contour>
    </TTGlyph>
    <TTGlyph name="divide" xMin="105" yMin="180" xMax="1071" yMax="1202">
      <contour>
        <pt x="1033" y="597" on="1"/>
        <pt x="105" y="597" on="1"/>
        <pt x="143" y="785" on="1"/>
        <pt x="1071" y="785" on="1"/>
      </contour>
      <contour>
        <pt x="746" y="999" on="1"/>
        <pt x="555" y="999" on="1"/>
        <pt x="595" y="1202" on="1"/>
        <pt x="786" y="1202" on="1"/>
      </contour>
      <contour>
        <pt x="582" y="180" on="1"/>
        <pt x="391" y="180" on="1"/>
        <pt x="432" y="383" on="1"/>
        <pt x="623" y="383" on="1"/>
      </contour>
    </TTGlyph>
    <TTGlyph name="dollar" xMin="71" yMin="-208" xMax="1089" yMax="1693">
      <contour>
        <pt x="777" y="376" on="1"/>
        <pt x="792" y="468" on="0"/>
        <pt x="697" y="593" on="0"/>
        <pt x="572" y="643" on="1"/>
        <pt x="394" y="704" on="0"/>
        <pt x="234" y="908" on="0"/>
        <pt x="261" y="1078" on="1"/>
        <pt x="288" y="1249" on="0"/>
        <pt x="495" y="1452" on="0"/>
        <pt x="653" y="1472" on="1"/>
        <pt x="688" y="1693" on="1"/>
        <pt x="842" y="1693" on="1"/>
        <pt x="806" y="1470" on="1"/>
        <pt x="953" y="1444" on="0"/>
        <pt x="1089" y="1204" on="0"/>
        <pt x="1058" y="1007" on="1"/>
        <pt x="866" y="1007" on="1"/>
        <pt x="888" y="1148" on="0"/>
        <pt x="804" y="1311" on="0"/>
        <pt x="702" y="1311" on="1"/>
        <pt x="601" y="1311" on="0"/>
        <pt x="471" y="1186" on="0"/>
        <pt x="455" y="1081" on="1"/>
        <pt x="439" y="981" on="0"/>
        <pt x="530" y="864" on="0"/>
        <pt x="665" y="810" on="1"/>
        <pt x="845" y="744" on="0"/>
        <pt x="997" y="547" on="0"/>
        <pt x="970" y="378" on="1"/>
        <pt x="941" y="200" on="0"/>
        <pt x="720" y="2" on="0"/>
        <pt x="548" y="-16" on="1"/>
        <pt x="518" y="-208" on="1"/>
        <pt x="364" y="-208" on="1"/>
        <pt x="394" y="-16" on="1"/>
        <pt x="243" y="4" on="0"/>
        <pt x="71" y="221" on="0"/>
        <pt x="105" y="429" on="1"/>
        <pt x="298" y="429" on="1"/>
        <pt x="272" y="269" on="0"/>
        <pt x="387" y="144" on="0"/>
        <pt x="491" y="144" on="1"/>
        <pt x="604" y="144" on="0"/>
        <pt x="759" y="269" on="0"/>
      </contour>
    </TTGlyph>
    <TTGlyph name="dotaccent" xMin="320" yMin="1255" xMax="572" yMax="1456">
      <contour>
        <pt x="532" y="1255" on="1"/>
        <pt x="320" y="1255" on="1"/>
        <pt x="360" y="1456" on="1"/>
        <pt x="572" y="1456" on="1"/>
      </contour>
    </TTGlyph>
    <TTGlyph name="dotbelow" xMin="-811" yMin="-337" xMax="-560" yMax="-137">
      <contour>
        <pt x="-600" y="-337" on="1"/>
        <pt x="-811" y="-337" on="1"/>
        <pt x="-771" y="-137" on="1"/>
        <pt x="-560" y="-137" on="1"/>
      </contour>
    </TTGlyph>
    <TTGlyph name="dotlessi" xMin="60" yMin="0" xMax="470" yMax="1082">
      <contour>
        <pt x="254" y="0" on="1"/>
        <pt x="60" y="0" on="1"/>
        <pt x="276" y="1082" on="1"/>
        <pt x="470" y="1082" on="1"/>
      </contour>
    </TTGlyph>
    <TTGlyph name="e" xMin="73" yMin="-21" xMax="1006" yMax="1102">
      <contour>
        <pt x="486" y="-21" on="1"/>
        <pt x="282" y="-21" on="0"/>
        <pt x="73" y="282" on="0"/>
        <pt x="111" y="520" on="1"/>
        <pt x="118" y="564" on="1"/>
        <pt x="156" y="804" on="0"/>
        <pt x="459" y="1102" on="0"/>
        <pt x="635" y="1102" on="1"/>
        <pt x="834" y="1102" on="0"/>
        <pt x="1006" y="836" on="0"/>
        <pt x="972" y="618" on="1"/>
        <pt x="952" y="495" on="1"/>
        <pt x="300" y="495" on="1"/>
        <pt x="278" y="329" on="0"/>
        <pt x="383" y="133" on="0"/>
        <pt x="510" y="133" on="1"/>
        <pt x="598" y="133" on="0"/>
        <pt x="752" y="192" on="0"/>
        <pt x="809" y="240" on="1"/>
        <pt x="864" y="112" on="1"/>
        <pt x="803" y="55" on="0"/>
        <pt x="613" y="-21" on="0"/>
      </contour>
      <contour>
        <pt x="611" y="947" on="1"/>
        <pt x="527" y="947" on="0"/>
        <pt x="370" y="779" on="0"/>
        <pt x="336" y="655" on="1"/>
        <pt x="339" y="649" on="1"/>
        <pt x="784" y="649" on="1"/>
        <pt x="788" y="675" on="1"/>
        <pt x="807" y="796" on="0"/>
        <pt x="723" y="947" on="0"/>
      </contour>
    </TTGlyph>
    <TTGlyph name="eacute" xMin="73" yMin="-21" xMax="1006" yMax="1502">
      <component glyphName="e" x="0" y="0" flags="0x204"/>
      <component glyphName="acute" x="313" y="24" flags="0x4"/>
    </TTGlyph>
    <TTGlyph name="ebreve" xMin="73" yMin="-21" xMax="1006" yMax="1549">
      <component glyphName="e" x="0" y="0" flags="0x204"/>
      <component glyphName="breve" x="135" y="93" flags="0x4"/>
    </TTGlyph>
    <TTGlyph name="ecaron" xMin="73" yMin="-21" xMax="1009" yMax="1544">
      <component glyphName="e" x="0" y="0" flags="0x204"/>
      <component glyphName="caron" x="61" y="29" flags="0x4"/>
    </TTGlyph>
    <TTGlyph name="ecircumflex" xMin="73" yMin="-21" xMax="1006" yMax="1543">
      <component glyphName="e" x="0" y="0" flags="0x204"/>
      <component glyphName="circumflex" x="38" y="28" flags="0x4"/>
    </TTGlyph>
    <TTGlyph name="edieresis" xMin="73" yMin="-21" xMax="1014" yMax="1484">
      <component glyphName="e" x="0" y="0" flags="0x204"/>
      <component glyphName="dieresis" x="40" y="28" flags="0x4"/>
    </TTGlyph>
    <TTGlyph name="edotaccent" xMin="73" yMin="-21" xMax="1006" yMax="1484">
      <component glyphName="e" x="0" y="0" flags="0x204"/>
      <component glyphName="dotaccent" x="232" y="28" flags="0x4"/>
    </TTGlyph>
    <TTGlyph name="egrave" xMin="73" yMin="-21" xMax="1006" yMax="1505">
      <component glyphName="e" x="0" y="0" flags="0x204"/>
      <component glyphName="grave" x="141" y="28" flags="0x4"/>
    </TTGlyph>
    <TTGlyph name="eight" xMin="54" yMin="-21" xMax="1113" yMax="1477">
      <contour>
        <pt x="1076" y="1076" on="1"/>
        <pt x="1051" y="953" on="0"/>
        <pt x="900" y="784" on="0"/>
        <pt x="790" y="745" on="1"/>
        <pt x="895" y="698" on="0"/>
        <pt x="1000" y="513" on="0"/>
        <pt x="977" y="394" on="1"/>
        <pt x="933" y="178" on="0"/>
        <pt x="655" y="-21" on="0"/>
        <pt x="454" y="-21" on="1"/>
        <pt x="266" y="-21" on="0"/>
        <pt x="54" y="195" on="0"/>
        <pt x="94" y="394" on="1"/>
        <pt x="120" y="527" on="0"/>
        <pt x="294" y="711" on="0"/>
        <pt x="422" y="752" on="1"/>
        <pt x="331" y="796" on="0"/>
        <pt x="246" y="966" on="0"/>
        <pt x="268" y="1076" on="1"/>
        <pt x="309" y="1282" on="0"/>
        <pt x="564" y="1477" on="0"/>
        <pt x="751" y="1477" on="1"/>
        <pt x="919" y="1477" on="0"/>
        <pt x="1113" y="1265" on="0"/>
      </contour>
      <contour>
        <pt x="786" y="398" on="1"/>
        <pt x="811" y="526" on="0"/>
        <pt x="701" y="672" on="0"/>
        <pt x="590" y="672" on="1"/>
        <pt x="486" y="672" on="0"/>
        <pt x="311" y="516" on="0"/>
        <pt x="288" y="398" on="1"/>
        <pt x="261" y="266" on="0"/>
        <pt x="368" y="133" on="0"/>
        <pt x="485" y="133" on="1"/>
        <pt x="588" y="133" on="0"/>
        <pt x="761" y="277" on="0"/>
      </contour>
      <contour>
        <pt x="882" y="1072" on="1"/>
        <pt x="905" y="1187" on="0"/>
        <pt x="814" y="1322" on="0"/>
        <pt x="720" y="1322" on="1"/>
        <pt x="632" y="1322" on="0"/>
        <pt x="482" y="1183" on="0"/>
        <pt x="460" y="1072" on="1"/>
        <pt x="436" y="953" on="0"/>
        <pt x="526" y="827" on="0"/>
        <pt x="623" y="827" on="1"/>
        <pt x="710" y="827" on="0"/>
        <pt x="860" y="963" on="0"/>
      </contour>
    </TTGlyph>
    <TTGlyph name="eight.lnum" xMin="75" yMin="-21" xMax="1172" yMax="1477">
      <contour>
        <pt x="1135" y="1076" on="1"/>
        <pt x="1110" y="953" on="0"/>
        <pt x="952" y="784" on="0"/>
        <pt x="837" y="745" on="1"/>
        <pt x="948" y="699" on="0"/>
        <pt x="1060" y="513" on="0"/>
        <pt x="1037" y="394" on="1"/>
        <pt x="993" y="178" on="0"/>
        <pt x="703" y="-21" on="0"/>
        <pt x="493" y="-21" on="1"/>
        <pt x="297" y="-21" on="0"/>
        <pt x="75" y="195" on="0"/>
        <pt x="115" y="394" on="1"/>
        <pt x="141" y="527" on="0"/>
        <pt x="320" y="711" on="0"/>
        <pt x="453" y="752" on="1"/>
        <pt x="358" y="796" on="0"/>
        <pt x="267" y="966" on="0"/>
        <pt x="289" y="1076" on="1"/>
        <pt x="330" y="1282" on="0"/>
        <pt x="595" y="1477" on="0"/>
        <pt x="790" y="1477" on="1"/>
        <pt x="966" y="1477" on="0"/>
        <pt x="1172" y="1265" on="0"/>
      </contour>
      <contour>
        <pt x="844" y="398" on="1"/>
        <pt x="869" y="525" on="0"/>
        <pt x="747" y="672" on="0"/>
        <pt x="629" y="672" on="1"/>
        <pt x="518" y="672" on="0"/>
        <pt x="332" y="516" on="0"/>
        <pt x="309" y="398" on="1"/>
        <pt x="282" y="266" on="0"/>
        <pt x="398" y="133" on="0"/>
        <pt x="524" y="133" on="1"/>
        <pt x="635" y="133" on="0"/>
        <pt x="819" y="277" on="0"/>
      </contour>
      <contour>
        <pt x="940" y="1072" on="1"/>
        <pt x="963" y="1187" on="0"/>
        <pt x="862" y="1322" on="0"/>
        <pt x="759" y="1322" on="1"/>
        <pt x="663" y="1322" on="0"/>
        <pt x="503" y="1183" on="0"/>
        <pt x="481" y="1072" on="1"/>
        <pt x="457" y="953" on="0"/>
        <pt x="556" y="827" on="0"/>
        <pt x="662" y="827" on="1"/>
        <pt x="757" y="827" on="0"/>
        <pt x="918" y="963" on="0"/>
      </contour>
    </TTGlyph>
    <TTGlyph name="eight.smcp" xMin="32" yMin="-17" xMax="994" yMax="1181">
      <contour>
        <pt x="964" y="860" on="1"/>
        <pt x="945" y="766" on="0"/>
        <pt x="824" y="635" on="0"/>
        <pt x="735" y="600" on="1"/>
        <pt x="821" y="560" on="0"/>
        <pt x="907" y="418" on="0"/>
        <pt x="889" y="327" on="1"/>
        <pt x="854" y="154" on="0"/>
        <pt x="595" y="-17" on="0"/>
        <pt x="416" y="-17" on="1"/>
        <pt x="246" y="-17" on="0"/>
        <pt x="32" y="168" on="0"/>
        <pt x="64" y="327" on="1"/>
        <pt x="84" y="429" on="0"/>
        <pt x="227" y="572" on="0"/>
        <pt x="335" y="608" on="1"/>
        <pt x="259" y="646" on="0"/>
        <pt x="185" y="777" on="0"/>
        <pt x="202" y="860" on="1"/>
        <pt x="234" y="1023" on="0"/>
        <pt x="481" y="1181" on="0"/>
        <pt x="654" y="1181" on="1"/>
        <pt x="805" y="1181" on="0"/>
        <pt x="994" y="1010" on="0"/>
      </contour>
      <contour>
        <pt x="696" y="331" on="1"/>
        <pt x="714" y="421" on="0"/>
        <pt x="613" y="526" on="0"/>
        <pt x="523" y="526" on="1"/>
        <pt x="434" y="526" on="0"/>
        <pt x="274" y="414" on="0"/>
        <pt x="258" y="331" on="1"/>
        <pt x="239" y="238" on="0"/>
        <pt x="348" y="135" on="0"/>
        <pt x="446" y="135" on="1"/>
        <pt x="529" y="135" on="0"/>
        <pt x="679" y="245" on="0"/>
      </contour>
      <contour>
        <pt x="769" y="856" on="1"/>
        <pt x="784" y="936" on="0"/>
        <pt x="699" y="1028" on="0"/>
        <pt x="624" y="1028" on="1"/>
        <pt x="546" y="1028" on="0"/>
        <pt x="410" y="932" on="0"/>
        <pt x="395" y="856" on="1"/>
        <pt x="379" y="773" on="0"/>
        <pt x="470" y="680" on="0"/>
        <pt x="555" y="680" on="1"/>
        <pt x="625" y="680" on="0"/>
        <pt x="753" y="780" on="0"/>
      </contour>
    </TTGlyph>
    <TTGlyph name="eight.sup" xMin="44" yMin="-11" xMax="761" yMax="812">
      <contour>
        <pt x="740" y="592" on="1"/>
        <pt x="727" y="528" on="0"/>
        <pt x="642" y="438" on="0"/>
        <pt x="578" y="413" on="1"/>
        <pt x="639" y="383" on="0"/>
        <pt x="700" y="286" on="0"/>
        <pt x="689" y="225" on="1"/>
        <pt x="665" y="106" on="0"/>
        <pt x="472" y="-11" on="0"/>
        <pt x="337" y="-11" on="1"/>
        <pt x="209" y="-11" on="0"/>
        <pt x="44" y="115" on="0"/>
        <pt x="67" y="225" on="1"/>
        <pt x="80" y="293" on="0"/>
        <pt x="183" y="391" on="0"/>
        <pt x="261" y="418" on="1"/>
        <pt x="205" y="445" on="0"/>
        <pt x="151" y="535" on="0"/>
        <pt x="163" y="592" on="1"/>
        <pt x="185" y="704" on="0"/>
        <pt x="370" y="812" on="0"/>
        <pt x="500" y="812" on="1"/>
        <pt x="615" y="812" on="0"/>
        <pt x="761" y="695" on="0"/>
      </contour>
      <contour>
        <pt x="524" y="232" on="1"/>
        <pt x="535" y="287" on="0"/>
        <pt x="467" y="350" on="0"/>
        <pt x="408" y="350" on="1"/>
        <pt x="349" y="350" on="0"/>
        <pt x="245" y="283" on="0"/>
        <pt x="235" y="232" on="1"/>
        <pt x="224" y="176" on="0"/>
        <pt x="297" y="119" on="0"/>
        <pt x="363" y="119" on="1"/>
        <pt x="418" y="119" on="0"/>
        <pt x="513" y="181" on="0"/>
      </contour>
      <contour>
        <pt x="571" y="583" on="1"/>
        <pt x="580" y="631" on="0"/>
        <pt x="524" y="681" on="0"/>
        <pt x="474" y="681" on="1"/>
        <pt x="423" y="681" on="0"/>
        <pt x="340" y="629" on="0"/>
        <pt x="331" y="583" on="1"/>
        <pt x="320" y="534" on="0"/>
        <pt x="380" y="480" on="0"/>
        <pt x="435" y="480" on="1"/>
        <pt x="479" y="480" on="0"/>
        <pt x="561" y="538" on="0"/>
      </contour>
    </TTGlyph>
    <TTGlyph name="ellipsis" xMin="69" yMin="0" xMax="1107" yMax="202">
      <component glyphName="period" x="0" y="0" flags="0x4"/>
      <component glyphName="period" x="413" y="0" flags="0x4"/>
      <component glyphName="period" x="807" y="0" flags="0x4"/>
    </TTGlyph>
    <TTGlyph name="emacron" xMin="73" yMin="-21" xMax="1033" yMax="1465">
      <component glyphName="e" x="0" y="0" flags="0x204"/>
      <component glyphName="macron" x="71" y="9" flags="0x4"/>
    </TTGlyph>
    <TTGlyph name="emdash" xMin="256" yMin="648" xMax="1547" yMax="803">
      <contour>
        <pt x="1498" y="648" on="1"/>
        <pt x="256" y="648" on="1"/>
        <pt x="306" y="803" on="1"/>
        <pt x="1547" y="803" on="1"/>
      </contour>
    </TTGlyph>
    <TTGlyph name="endash" xMin="233" yMin="648" xMax="1282" yMax="803">
      <contour>
        <pt x="1242" y="648" on="1"/>
        <pt x="233" y="648" on="1"/>
        <pt x="273" y="803" on="1"/>
        <pt x="1282" y="803" on="1"/>
      </contour>
    </TTGlyph>
    <TTGlyph name="eng" xMin="51" yMin="-437" xMax="1045" yMax="1102">
      <contour>
        <pt x="424" y="944" on="1"/>
        <pt x="489" y="1021" on="0"/>
        <pt x="652" y="1102" on="0"/>
        <pt x="745" y="1102" on="1"/>
        <pt x="897" y="1102" on="0"/>
        <pt x="1045" y="894" on="0"/>
        <pt x="1003" y="683" on="1"/>
        <pt x="848" y="-89" on="1"/>
        <pt x="812" y="-267" on="0"/>
        <pt x="621" y="-437" on="0"/>
        <pt x="473" y="-437" on="1"/>
        <pt x="447" y="-437" on="0"/>
        <pt x="397" y="-428" on="0"/>
        <pt x="373" y="-419" on="1"/>
        <pt x="419" y="-259" on="1"/>
        <pt x="430" y="-264" on="0"/>
        <pt x="491" y="-271" on="0"/>
        <pt x="506" y="-271" on="1"/>
        <pt x="556" y="-271" on="0"/>
        <pt x="637" y="-176" on="0"/>
        <pt x="655" y="-89" on="1"/>
        <pt x="809" y="679" on="1"/>
        <pt x="839" y="831" on="0"/>
        <pt x="762" y="942" on="0"/>
        <pt x="652" y="942" on="1"/>
        <pt x="580" y="942" on="0"/>
        <pt x="454" y="874" on="0"/>
        <pt x="406" y="814" on="1"/>
        <pt x="244" y="0" on="1"/>
        <pt x="51" y="0" on="1"/>
        <pt x="267" y="1082" on="1"/>
        <pt x="440" y="1082" on="1"/>
      </contour>
    </TTGlyph>
    <TTGlyph name="eogonek" xMin="73" yMin="-370" xMax="1006" yMax="1102">
      <component glyphName="e" x="0" y="0" flags="0x204"/>
      <component glyphName="ogonek" x="482" y="62" flags="0x4"/>
    </TTGlyph>
    <TTGlyph name="epsilon" xMin="41" yMin="-19" xMax="1019" yMax="1100">
      <contour>
        <pt x="712" y="477" on="1"/>
        <pt x="514" y="477" on="1"/>
        <pt x="413" y="477" on="0"/>
        <pt x="282" y="390" on="0"/>
        <pt x="265" y="305" on="1"/>
        <pt x="249" y="227" on="0"/>
        <pt x="352" y="132" on="0"/>
        <pt x="459" y="132" on="1"/>
        <pt x="552" y="132" on="0"/>
        <pt x="711" y="246" on="0"/>
        <pt x="726" y="320" on="1"/>
        <pt x="908" y="320" on="1"/>
        <pt x="910" y="314" on="1"/>
        <pt x="880" y="141" on="0"/>
        <pt x="605" y="-19" on="0"/>
        <pt x="429" y="-19" on="1"/>
        <pt x="253" y="-19" on="0"/>
        <pt x="41" y="156" on="0"/>
        <pt x="71" y="305" on="1"/>
        <pt x="90" y="403" on="0"/>
        <pt x="212" y="530" on="0"/>
        <pt x="311" y="560" on="1"/>
        <pt x="239" y="596" on="0"/>
        <pt x="170" y="716" on="0"/>
        <pt x="185" y="786" on="1"/>
        <pt x="217" y="946" on="0"/>
        <pt x="461" y="1100" on="0"/>
        <pt x="653" y="1100" on="1"/>
        <pt x="812" y="1100" on="0"/>
        <pt x="1019" y="923" on="0"/>
        <pt x="987" y="786" on="1"/>
        <pt x="985" y="780" on="1"/>
        <pt x="801" y="780" on="1"/>
        <pt x="815" y="855" on="0"/>
        <pt x="713" y="948" on="0"/>
        <pt x="623" y="948" on="1"/>
        <pt x="527" y="948" on="0"/>
        <pt x="391" y="851" on="0"/>
        <pt x="378" y="786" on="1"/>
        <pt x="362" y="707" on="0"/>
        <pt x="440" y="627" on="0"/>
        <pt x="544" y="627" on="1"/>
        <pt x="742" y="627" on="1"/>
        <pt x="734" y="587" on="1"/>
        <pt x="720" y="516" on="1"/>
      </contour>
    </TTGlyph>
    <TTGlyph name="epsilontonos" xMin="41" yMin="-19" xMax="1019" yMax="1666">
      <component glyphName="epsilon" x="0" y="0" flags="0x204"/>
      <component glyphName="tonos" x="279" y="6" flags="0x4"/>
    </TTGlyph>
    <TTGlyph name="equal" xMin="143" yMin="407" xMax="1034" yMax="987">
      <contour>
        <pt x="1002" y="823" on="1"/>
        <pt x="227" y="823" on="1"/>
        <pt x="259" y="987" on="1"/>
        <pt x="1034" y="987" on="1"/>
      </contour>
      <contour>
        <pt x="918" y="407" on="1"/>
        <pt x="143" y="407" on="1"/>
        <pt x="176" y="571" on="1"/>
        <pt x="951" y="571" on="1"/>
      </contour>
    </TTGlyph>
    <TTGlyph name="estimated" xMin="125" yMin="-20" xMax="1166" yMax="1102">
      <contour>
        <pt x="912" y="94" on="1"/>
        <pt x="820" y="39" on="0"/>
        <pt x="633" y="-20" on="0"/>
        <pt x="545" y="-20" on="1"/>
        <pt x="356" y="-20" on="0"/>
        <pt x="125" y="313" on="0"/>
        <pt x="170" y="541" on="1"/>
        <pt x="218" y="782" on="0"/>
        <pt x="577" y="1102" on="0"/>
        <pt x="769" y="1102" on="1"/>
        <pt x="949" y="1102" on="0"/>
        <pt x="1166" y="788" on="0"/>
        <pt x="1121" y="561" on="1"/>
        <pt x="1112" y="514" on="1"/>
        <pt x="398" y="514" on="1"/>
        <pt x="332" y="186" on="1"/>
        <pt x="374" y="133" on="0"/>
        <pt x="492" y="76" on="0"/>
        <pt x="564" y="76" on="1"/>
        <pt x="646" y="76" on="0"/>
        <pt x="840" y="137" on="0"/>
        <pt x="931" y="198" on="1"/>
      </contour>
      <contour>
        <pt x="751" y="1008" on="1"/>
        <pt x="687" y="1008" on="0"/>
        <pt x="536" y="942" on="0"/>
        <pt x="472" y="886" on="1"/>
        <pt x="417" y="609" on="1"/>
        <pt x="919" y="609" on="1"/>
        <pt x="976" y="895" on="1"/>
        <pt x="936" y="948" on="0"/>
        <pt x="820" y="1008" on="0"/>
      </contour>
    </TTGlyph>
    <TTGlyph name="eta" xMin="51" yMin="-415" xMax="1046" yMax="1102">
      <contour>
        <pt x="424" y="944" on="1"/>
        <pt x="489" y="1021" on="0"/>
        <pt x="652" y="1102" on="0"/>
        <pt x="745" y="1102" on="1"/>
        <pt x="900" y="1102" on="0"/>
        <pt x="1046" y="903" on="0"/>
        <pt x="1003" y="683" on="1"/>
        <pt x="783" y="-415" on="1"/>
        <pt x="590" y="-415" on="1"/>
        <pt x="809" y="679" on="1"/>
        <pt x="839" y="832" on="0"/>
        <pt x="762" y="947" on="0"/>
        <pt x="653" y="947" on="1"/>
        <pt x="581" y="947" on="0"/>
        <pt x="455" y="877" on="0"/>
        <pt x="407" y="816" on="1"/>
        <pt x="244" y="0" on="1"/>
        <pt x="51" y="0" on="1"/>
        <pt x="267" y="1082" on="1"/>
        <pt x="440" y="1082" on="1"/>
      </contour>
    </TTGlyph>
    <TTGlyph name="etatonos" xMin="51" yMin="-415" xMax="1046" yMax="1667">
      <component glyphName="eta" x="0" y="0" flags="0x204"/>
      <component glyphName="tonos" x="305" y="7" flags="0x4"/>
    </TTGlyph>
    <TTGlyph name="eth" xMin="35" yMin="-21" xMax="1195" yMax="1517">
      <contour>
        <pt x="970" y="1286" on="1"/>
        <pt x="1044" y="1165" on="0"/>
        <pt x="1085" y="833" on="0"/>
        <pt x="1046" y="633" on="1"/>
        <pt x="1026" y="535" on="1"/>
        <pt x="974" y="274" on="0"/>
        <pt x="650" y="-21" on="0"/>
        <pt x="444" y="-21" on="1"/>
        <pt x="253" y="-21" on="0"/>
        <pt x="35" y="263" on="0"/>
        <pt x="76" y="466" on="1"/>
        <pt x="124" y="709" on="0"/>
        <pt x="434" y="978" on="0"/>
        <pt x="636" y="978" on="1"/>
        <pt x="708" y="978" on="0"/>
        <pt x="835" y="910" on="0"/>
        <pt x="874" y="855" on="1"/>
        <pt x="878" y="859" on="1"/>
        <pt x="883" y="963" on="0"/>
        <pt x="840" y="1129" on="0"/>
        <pt x="798" y="1192" on="1"/>
        <pt x="512" y="1035" on="1"/>
        <pt x="457" y="1137" on="1"/>
        <pt x="716" y="1279" on="1"/>
        <pt x="687" y="1301" on="0"/>
        <pt x="621" y="1338" on="0"/>
        <pt x="585" y="1353" on="1"/>
        <pt x="675" y="1517" on="1"/>
        <pt x="740" y="1495" on="0"/>
        <pt x="852" y="1426" on="0"/>
        <pt x="899" y="1379" on="1"/>
        <pt x="1140" y="1511" on="1"/>
        <pt x="1195" y="1409" on="1"/>
      </contour>
      <contour>
        <pt x="862" y="688" on="1"/>
        <pt x="843" y="746" on="0"/>
        <pt x="712" y="823" on="0"/>
        <pt x="605" y="823" on="1"/>
        <pt x="496" y="823" on="0"/>
        <pt x="299" y="611" on="0"/>
        <pt x="270" y="466" on="1"/>
        <pt x="242" y="326" on="0"/>
        <pt x="351" y="133" on="0"/>
        <pt x="479" y="133" on="1"/>
        <pt x="591" y="133" on="0"/>
        <pt x="798" y="364" on="0"/>
        <pt x="833" y="535" on="1"/>
        <pt x="853" y="635" on="1"/>
      </contour>
    </TTGlyph>
    <TTGlyph name="exclam" xMin="81" yMin="0" xMax="564" yMax="1456">
      <contour>
        <pt x="369" y="478" on="1"/>
        <pt x="175" y="478" on="1"/>
        <pt x="370" y="1456" on="1"/>
        <pt x="564" y="1456" on="1"/>
      </contour>
      <contour>
        <pt x="272" y="0" on="1"/>
        <pt x="81" y="0" on="1"/>
        <pt x="122" y="204" on="1"/>
        <pt x="313" y="204" on="1"/>
      </contour>
    </TTGlyph>
    <TTGlyph name="exclamdbl" xMin="81" yMin="0" xMax="1085" yMax="1456">
      <component glyphName="exclam" x="0" y="0" flags="0x4"/>
      <component glyphName="exclam" x="521" y="0" flags="0x4"/>
    </TTGlyph>
    <TTGlyph name="exclamdown" xMin="-23" yMin="-374" xMax="460" yMax="1082">
      <contour>
        <pt x="171" y="-374" on="1"/>
        <pt x="-23" y="-374" on="1"/>
        <pt x="173" y="604" on="1"/>
        <pt x="367" y="604" on="1"/>
      </contour>
      <contour>
        <pt x="419" y="876" on="1"/>
        <pt x="229" y="876" on="1"/>
        <pt x="270" y="1082" on="1"/>
        <pt x="460" y="1082" on="1"/>
      </contour>
    </TTGlyph>
    <TTGlyph name="f" xMin="137" yMin="0" xMax="907" yMax="1581">
      <contour>
        <pt x="137" y="0" on="1"/>
        <pt x="324" y="936" on="1"/>
        <pt x="168" y="936" on="1"/>
        <pt x="197" y="1082" on="1"/>
        <pt x="353" y="1082" on="1"/>
        <pt x="381" y="1219" on="1"/>
        <pt x="417" y="1403" on="0"/>
        <pt x="620" y="1581" on="0"/>
        <pt x="776" y="1581" on="1"/>
        <pt x="806" y="1581" on="0"/>
        <pt x="870" y="1569" on="0"/>
        <pt x="907" y="1560" on="1"/>
        <pt x="855" y="1410" on="1"/>
        <pt x="839" y="1414" on="0"/>
        <pt x="793" y="1420" on="0"/>
        <pt x="768" y="1420" on="1"/>
        <pt x="694" y="1420" on="0"/>
        <pt x="593" y="1315" on="0"/>
        <pt x="574" y="1219" on="1"/>
        <pt x="546" y="1082" on="1"/>
        <pt x="751" y="1082" on="1"/>
        <pt x="722" y="936" on="1"/>
        <pt x="517" y="936" on="1"/>
        <pt x="330" y="0" on="1"/>
      </contour>
    </TTGlyph>
    <TTGlyph name="fi" xMin="100" yMin="0" xMax="1055" yMax="1581">
      <contour>
        <pt x="100" y="0" on="1"/>
        <pt x="287" y="936" on="1"/>
        <pt x="130" y="936" on="1"/>
        <pt x="159" y="1082" on="1"/>
        <pt x="316" y="1082" on="1"/>
        <pt x="340" y="1199" on="1"/>
        <pt x="378" y="1393" on="0"/>
        <pt x="613" y="1581" on="0"/>
        <pt x="796" y="1581" on="1"/>
        <pt x="854" y="1581" on="0"/>
        <pt x="977" y="1549" on="0"/>
        <pt x="1050" y="1520" on="1"/>
        <pt x="984" y="1360" on="1"/>
        <pt x="942" y="1381" on="0"/>
        <pt x="834" y="1411" on="0"/>
        <pt x="777" y="1411" on="1"/>
        <pt x="675" y="1411" on="0"/>
        <pt x="553" y="1305" on="0"/>
        <pt x="533" y="1199" on="1"/>
        <pt x="509" y="1082" on="1"/>
        <pt x="704" y="1082" on="1"/>
        <pt x="675" y="936" on="1"/>
        <pt x="480" y="936" on="1"/>
        <pt x="293" y="0" on="1"/>
      </contour>
      <contour>
        <pt x="839" y="0" on="1"/>
        <pt x="645" y="0" on="1"/>
        <pt x="861" y="1082" on="1"/>
        <pt x="1055" y="1082" on="1"/>
      </contour>
    </TTGlyph>
    <TTGlyph name="five" xMin="103" yMin="-21" xMax="1088" yMax="1456">
      <contour>
        <pt x="201" y="657" on="1"/>
        <pt x="407" y="1456" on="1"/>
        <pt x="1088" y="1456" on="1"/>
        <pt x="1060" y="1281" on="1"/>
        <pt x="543" y="1281" on="1"/>
        <pt x="434" y="872" on="1"/>
        <pt x="480" y="906" on="0"/>
        <pt x="590" y="951" on="0"/>
        <pt x="654" y="953" on="1"/>
        <pt x="843" y="955" on="0"/>
        <pt x="1016" y="689" on="0"/>
        <pt x="980" y="464" on="1"/>
        <pt x="943" y="237" on="0"/>
        <pt x="685" y="-21" on="0"/>
        <pt x="473" y="-21" on="1"/>
        <pt x="307" y="-21" on="0"/>
        <pt x="103" y="183" on="0"/>
        <pt x="139" y="378" on="1"/>
        <pt x="141" y="383" on="1"/>
        <pt x="316" y="383" on="1"/>
        <pt x="296" y="260" on="0"/>
        <pt x="398" y="133" on="0"/>
        <pt x="497" y="133" on="1"/>
        <pt x="604" y="133" on="0"/>
        <pt x="763" y="311" on="0"/>
        <pt x="787" y="462" on="1"/>
        <pt x="809" y="608" on="0"/>
        <pt x="712" y="782" on="0"/>
        <pt x="599" y="782" on="1"/>
        <pt x="499" y="782" on="0"/>
        <pt x="391" y="711" on="0"/>
        <pt x="359" y="640" on="1"/>
      </contour>
    </TTGlyph>
    <TTGlyph name="five.lnum" xMin="110" yMin="-21" xMax="1145" yMax="1456">
      <contour>
        <pt x="225" y="657" on="1"/>
        <pt x="464" y="1456" on="1"/>
        <pt x="1145" y="1456" on="1"/>
        <pt x="1110" y="1281" on="1"/>
        <pt x="592" y="1281" on="1"/>
        <pt x="467" y="872" on="1"/>
        <pt x="515" y="906" on="0"/>
        <pt x="627" y="951" on="0"/>
        <pt x="692" y="953" on="1"/>
        <pt x="881" y="955" on="0"/>
        <pt x="1042" y="689" on="0"/>
        <pt x="998" y="464" on="1"/>
        <pt x="951" y="232" on="0"/>
        <pt x="684" y="-21" on="0"/>
        <pt x="471" y="-21" on="1"/>
        <pt x="309" y="-21" on="0"/>
        <pt x="110" y="183" on="0"/>
        <pt x="153" y="378" on="1"/>
        <pt x="156" y="383" on="1"/>
        <pt x="332" y="383" on="1"/>
        <pt x="306" y="257" on="0"/>
        <pt x="402" y="133" on="0"/>
        <pt x="502" y="133" on="1"/>
        <pt x="606" y="133" on="0"/>
        <pt x="774" y="313" on="0"/>
        <pt x="804" y="462" on="1"/>
        <pt x="834" y="611" on="0"/>
        <pt x="743" y="782" on="0"/>
        <pt x="629" y="782" on="1"/>
        <pt x="532" y="782" on="0"/>
        <pt x="419" y="710" on="0"/>
        <pt x="383" y="640" on="1"/>
      </contour>
    </TTGlyph>
</ttFont>
